<?xml version="1.0" encoding="utf-8"?>
<!-- Generator: Adobe Illustrator 16.0.0, SVG Export Plug-In . SVG Version: 6.00 Build 0)  -->
<!DOCTYPE svg PUBLIC "-//W3C//DTD SVG 1.1//EN" "http://www.w3.org/Graphics/SVG/1.1/DTD/svg11.dtd">
<svg version="1.1" id="Layer_1" xmlns="http://www.w3.org/2000/svg" xmlns:xlink="http://www.w3.org/1999/xlink" x="0px" y="0px"
	 width="25px" height="25px" viewBox="0 0 25 25" enable-background="new 0 0 25 25" xml:space="preserve">
<g>
	<g>
		<path fill="#FFFFFF" d="M11.071,10.723H5.358l2.856,3.555L11.071,10.723z M14.881,4.5l-2.856,3.555h5.713L14.881,4.5z M9.643,4.5
			H6.786v6.222h2.857V4.5z M3.631,8.944h1.488V8.056H2.5v10.667h10.476v-2.667H3.631V8.944z M15.834,14.277v-2.666h-0.068
			l-0.408,2.666H15.834z M14.881,11.611h0.885l0.544-3.556h-2.856v6.222h1.428V11.611z M21.965,16v-0.5h-1.369V8.056h-1.667v0.889
			h0.536V15.5h-0.18V13H18.75v-0.5h-1.071V13h-0.536v2.5h-2.678V16h-0.536v1h0.536v0.5h2.678V20h0.536v0.5h1.071V20h0.535v-2.5
			h1.072v1.223h0.238V17.5h1.369V17H22.5v-1H21.965z M20.357,15.5h-0.715v-3.889h0.715V15.5z"/>
	</g>
	<g>
		<path fill="none" stroke="#000000" stroke-miterlimit="10" d="M11.071,10.723H5.358l2.856,3.555L11.071,10.723z M14.881,4.5
			l-2.856,3.555h5.713L14.881,4.5z M9.643,4.5H6.786v6.222h2.857V4.5z M3.631,8.944h1.488V8.056H2.5v10.667h10.476v-2.667H3.631
			V8.944z M15.834,14.277v-2.666h-0.068l-0.408,2.666H15.834z M14.881,11.611h0.885l0.544-3.556h-2.856v6.222h1.428V11.611z
			 M21.965,16v-0.5h-1.369V8.056h-1.667v0.889h0.536V15.5h-0.18V13H18.75v-0.5h-1.071V13h-0.536v2.5h-2.678V16h-0.536v1h0.536v0.5
			h2.678V20h0.536v0.5h1.071V20h0.535v-2.5h1.072v1.223h0.238V17.5h1.369V17H22.5v-1H21.965z M20.357,15.5h-0.715v-3.889h0.715V15.5
			z"/>
	</g>
</g>
</svg>
