<?xml version="1.0" encoding="utf-8"?>
<!-- Generator: Adobe Illustrator 16.0.0, SVG Export Plug-In . SVG Version: 6.00 Build 0)  -->
<!DOCTYPE svg PUBLIC "-//W3C//DTD SVG 1.1//EN" "http://www.w3.org/Graphics/SVG/1.1/DTD/svg11.dtd">
<svg version="1.1" id="Layer_1" xmlns="http://www.w3.org/2000/svg" xmlns:xlink="http://www.w3.org/1999/xlink" x="0px" y="0px"
	 width="25px" height="25px" viewBox="0 0 25 25" enable-background="new 0 0 25 25" xml:space="preserve">
<g>
	<g>
		<path fill="#FFFFFF" d="M20.385,12.971h-4.688c-0.74,0-1.34,1.313-1.34,2.354v0.365c0-0.462,0.348-0.836,0.775-0.836h5.041
			c0.428,0,0.775,0.374,0.775,0.836v2.092c0,0.462-0.348,0.836-0.775,0.836h-5.041c-0.428,0-0.775-0.374-0.775-0.836v0.365
			c0,1.04,0.6,2.354,1.34,2.354h4.688c0.74,0,2.115-1.313,2.115-2.354v-2.822C22.5,14.283,21.125,12.971,20.385,12.971z
			 M11.946,11.084h2.11V8.886h2.109V6.689h-2.109V4.491h-2.11v2.198h-2.11v2.197h2.11V11.084z M8.038,18.617H5.827
			c-0.428,0-0.776-0.374-0.776-0.836v-2.092c0-0.462,0.348-0.836,0.776-0.836h5.041c0.022,0,0.041,0.012,0.063,0.014h0.675
			c-0.139-0.932-0.667-1.896-1.302-1.896H5.615c-0.74,0-2.115,1.313-2.115,2.354v2.822c0,1.04,1.375,2.354,2.115,2.354h4.688
			c0.627,0,1.15-0.945,1.296-1.867H8.038V18.617z M9.833,17.676h7.238v-1.882H9.833V17.676z"/>
	</g>
	<g>
		<path fill="none" stroke="#000000" stroke-miterlimit="10" d="M20.385,12.971h-4.688c-0.74,0-1.34,1.313-1.34,2.354v0.365
			c0-0.462,0.348-0.836,0.775-0.836h5.041c0.428,0,0.775,0.374,0.775,0.836v2.092c0,0.462-0.348,0.836-0.775,0.836h-5.041
			c-0.428,0-0.775-0.374-0.775-0.836v0.365c0,1.04,0.6,2.354,1.34,2.354h4.688c0.74,0,2.115-1.313,2.115-2.354v-2.822
			C22.5,14.283,21.125,12.971,20.385,12.971z M11.946,11.084h2.11V8.886h2.109V6.689h-2.109V4.491h-2.11v2.198h-2.11v2.197h2.11
			V11.084z M8.038,18.617H5.827c-0.428,0-0.776-0.374-0.776-0.836v-2.092c0-0.462,0.348-0.836,0.776-0.836h5.041
			c0.022,0,0.041,0.012,0.063,0.014h0.675c-0.139-0.932-0.667-1.896-1.302-1.896H5.615c-0.74,0-2.115,1.313-2.115,2.354v2.822
			c0,1.04,1.375,2.354,2.115,2.354h4.688c0.627,0,1.15-0.945,1.296-1.867H8.038V18.617z M9.833,17.676h7.238v-1.882H9.833V17.676z"
			/>
	</g>
</g>
</svg>
