<?xml version="1.0" encoding="utf-8"?>
<!-- Generator: Adobe Illustrator 16.0.0, SVG Export Plug-In . SVG Version: 6.00 Build 0)  -->
<!DOCTYPE svg PUBLIC "-//W3C//DTD SVG 1.1//EN" "http://www.w3.org/Graphics/SVG/1.1/DTD/svg11.dtd">
<svg version="1.1" id="Layer_1" xmlns="http://www.w3.org/2000/svg" xmlns:xlink="http://www.w3.org/1999/xlink" x="0px" y="0px"
	 width="612px" height="792px" viewBox="0 0 612 792" enable-background="new 0 0 612 792" xml:space="preserve">
<g>
	<g>
		<path fill-rule="evenodd" clip-rule="evenodd" d="M138.706,229.442h49.46v-26.504h-74.195v79.521h24.735V229.442z
			 M138.706,335.478h-24.735v79.521h24.735V335.478z M138.706,468.018h-24.735v106.035h74.195v-26.514h-49.46V468.018z
			 M361.315,202.938H237.637v26.504h123.679V202.938z M176.869,511.8l159.881-0.657c-16.204-14.458-26.48-36.032-26.48-60.076
			c0-19.104,6.47-36.61,17.302-50.252l0.228-2.392c0,0,12.463-10.878,18.401-28.612c9.336-6.174,12.918-7.036,14.458-14.163
			c0,0,4.192-26.923-5.846-26.923c0,0-11.49,0.703-10.153-5.609c1.359-6.31,0.906-8.497,0.227-15.512
			c-0.68-7.013,3.377-27.058-10.674-29.856c-9.586-1.871-6.526,0.974-11.218,0.271c-4.668-0.703-10.243-13.416-18.946-13.416
			l-13.879,3.039c-8.704,0-1.1,2.809-5.779,3.511c-4.681,0.692,6.175-0.703-7.876,2.096c-14.05,2.798-16.917,21.733-17.586,28.748
			c-0.667,7.003-0.838,9.2-0.396,19.716c1.336,6.31-5.428,6.31-5.428,6.31c-8.419-0.566-9.858,26.923-9.858,26.923
			c1.212,6.775-0.43,10.153,12.033,15.398c5.938,17.722,21.042,26.673,21.042,26.673s0.747,11.365,0.985,19.455
			c-1.269-0.657-2.209,20.702-40.916,26.684c-38.717,5.984-46.129,19.127-53.438,26.448
			C175.657,476.924,176.869,511.8,176.869,511.8z M410.786,202.938v26.504h49.449v79.534h24.747V202.938H410.786z M460.235,547.539
			h-49.449v26.514h74.196v-79.542h-24.747V547.539z M237.637,574.053h123.679v-26.514H237.637V574.053z M460.235,441.503h24.747
			v-79.521h-24.747V441.503z M443.919,451.066c0-33.845-26.175-61.29-58.469-61.29c-32.293,0-58.468,27.445-58.468,61.29
			c0,33.835,26.175,61.302,58.468,61.302C417.744,512.368,443.919,484.901,443.919,451.066z M393.79,494.827h-16.68v-34.991h-33.426
			v-17.539h33.426v-35.003h16.68v35.003h33.427v17.539H393.79V494.827z"/>
	</g>
</g>
</svg>
