<?xml version="1.0" encoding="utf-8"?>
<!-- Generator: Adobe Illustrator 16.0.0, SVG Export Plug-In . SVG Version: 6.00 Build 0)  -->
<!DOCTYPE svg PUBLIC "-//W3C//DTD SVG 1.1//EN" "http://www.w3.org/Graphics/SVG/1.1/DTD/svg11.dtd">
<svg version="1.1" id="Layer_1" xmlns="http://www.w3.org/2000/svg" xmlns:xlink="http://www.w3.org/1999/xlink" x="0px" y="0px"
	 width="25px" height="25px" viewBox="0 0 25 25" enable-background="new 0 0 25 25" xml:space="preserve">
<g>
	<g>
		<path fill="#FFFFFF" d="M9.463,7.895h3.313c0.305,0,0.552-0.217,0.552-0.485V6.44c0-0.268-0.247-0.485-0.552-0.485h-0.033
			c0.021-0.078,0.033-0.159,0.033-0.242c0-0.669-0.742-1.212-1.656-1.212c-0.915,0-1.657,0.542-1.657,1.212
			c0,0.083,0.012,0.164,0.033,0.242H9.463c-0.305,0-0.552,0.217-0.552,0.485v0.97C8.911,7.677,9.158,7.895,9.463,7.895z
			 M10.567,5.471h1.104V6.44h-1.104V5.471z M16.089,13.716c-1.827,0-3.308,1.301-3.308,2.905c0,1.604,1.481,2.904,3.308,2.904
			s3.309-1.301,3.309-2.904C19.397,15.017,17.916,13.716,16.089,13.716z M18.021,17.045h-1.449v1.272h-0.967v-1.272h-1.449v-0.849
			h1.449v-1.272h0.967v1.272h1.449V17.045z M16.089,12.742c0.587,0,1.145,0.105,1.657,0.288V7.41c0-0.536-0.495-0.97-1.105-0.97
			h-2.76v1.212c0,0.402-0.207,0.728-0.461,0.728H8.819c-0.254,0-0.46-0.326-0.46-0.728V6.44H5.598c-0.61,0-1.104,0.434-1.104,0.97
			v10.666c0,0.535,0.495,0.97,1.104,0.97h7.068c-0.612-0.666-0.995-1.502-0.995-2.424C11.671,14.479,13.649,12.742,16.089,12.742z"
			/>
	</g>
	<g>
		<path fill="none" stroke="#000000" stroke-miterlimit="10" d="M9.463,7.895h3.313c0.305,0,0.552-0.217,0.552-0.485V6.44
			c0-0.268-0.247-0.485-0.552-0.485h-0.033c0.021-0.078,0.033-0.159,0.033-0.242c0-0.669-0.742-1.212-1.656-1.212
			c-0.915,0-1.657,0.542-1.657,1.212c0,0.083,0.012,0.164,0.033,0.242H9.463c-0.305,0-0.552,0.217-0.552,0.485v0.97
			C8.911,7.677,9.158,7.895,9.463,7.895z M10.567,5.471h1.104V6.44h-1.104V5.471z M16.089,13.716c-1.827,0-3.308,1.301-3.308,2.905
			c0,1.604,1.481,2.904,3.308,2.904s3.309-1.301,3.309-2.904C19.397,15.017,17.916,13.716,16.089,13.716z M18.021,17.045h-1.449
			v1.272h-0.967v-1.272h-1.449v-0.849h1.449v-1.272h0.967v1.272h1.449V17.045z M16.089,12.742c0.587,0,1.145,0.105,1.657,0.288V7.41
			c0-0.536-0.495-0.97-1.105-0.97h-2.76v1.212c0,0.402-0.207,0.728-0.461,0.728H8.819c-0.254,0-0.46-0.326-0.46-0.728V6.44H5.598
			c-0.61,0-1.104,0.434-1.104,0.97v10.666c0,0.535,0.495,0.97,1.104,0.97h7.068c-0.612-0.666-0.995-1.502-0.995-2.424
			C11.671,14.479,13.649,12.742,16.089,12.742z"/>
	</g>
</g>
</svg>
