<?xml version="1.0" encoding="utf-8"?>
<!-- Generator: Adobe Illustrator 16.0.0, SVG Export Plug-In . SVG Version: 6.00 Build 0)  -->
<!DOCTYPE svg PUBLIC "-//W3C//DTD SVG 1.1//EN" "http://www.w3.org/Graphics/SVG/1.1/DTD/svg11.dtd">
<svg version="1.1" id="Layer_1" xmlns="http://www.w3.org/2000/svg" xmlns:xlink="http://www.w3.org/1999/xlink" x="0px" y="0px"
	 width="25px" height="25px" viewBox="0 0 25 25" enable-background="new 0 0 25 25" xml:space="preserve">
<path fill="#FFFFFF" stroke="#000000" stroke-miterlimit="10" d="M17.576,19.496H7.423c-0.51,0-0.923-0.401-0.923-0.896V8.737
	c0-0.495,0.413-0.896,0.923-0.896h0.923v0.448c0,0.743,0.62,1.345,1.384,1.345c0.765,0,1.385-0.602,1.385-1.345V7.841h2.77v0.448
	c0,0.743,0.619,1.345,1.385,1.345c0.765,0,1.385-0.602,1.385-1.345V7.841h0.922c0.511,0,0.924,0.401,0.924,0.896V18.6
	C18.5,19.095,18.087,19.496,17.576,19.496z M17.576,10.979H7.423V18.6h10.153V10.979z M9.73,13.221H8.346v-1.345H9.73V13.221z
	 M9.73,15.461H8.346v-1.344H9.73V15.461z M9.73,17.703H8.346v-1.346H9.73V17.703z M12.039,13.221h-1.385v-1.345h1.385V13.221z
	 M12.039,15.461h-1.385v-1.344h1.385V15.461z M12.039,17.703h-1.385v-1.346h1.385V17.703z M14.346,13.221h-1.384v-1.345h1.384
	V13.221z M14.346,15.461h-1.384v-1.344h1.384V15.461z M14.346,17.703h-1.384v-1.346h1.384V17.703z M16.654,13.221H15.27v-1.345
	h1.385V13.221z M16.654,15.461H15.27v-1.344h1.385V15.461z M16.654,17.703H15.27v-1.346h1.385V17.703z M15.255,9.186
	c-0.502,0-0.909-0.395-0.909-0.882V7.378c0-0.487,0.407-0.882,0.909-0.882s0.909,0.395,0.909,0.882v0.925
	C16.164,8.791,15.757,9.186,15.255,9.186z M9.716,9.186c-0.502,0-0.909-0.395-0.909-0.882V7.378c0-0.487,0.407-0.882,0.909-0.882
	s0.909,0.395,0.909,0.882v0.925C10.625,8.791,10.218,9.186,9.716,9.186z"/>
</svg>
