<?xml version="1.0" encoding="utf-8"?>
<!-- Generator: Adobe Illustrator 16.0.0, SVG Export Plug-In . SVG Version: 6.00 Build 0)  -->
<!DOCTYPE svg PUBLIC "-//W3C//DTD SVG 1.1//EN" "http://www.w3.org/Graphics/SVG/1.1/DTD/svg11.dtd">
<svg version="1.1" id="Layer_1" xmlns="http://www.w3.org/2000/svg" xmlns:xlink="http://www.w3.org/1999/xlink" x="0px" y="0px"
	 width="25px" height="25px" viewBox="0 0 25 25" enable-background="new 0 0 25 25" xml:space="preserve">
<g>
	<g>
		<path fill="#FFFFFF" d="M16.711,15.125V9h-2.527v6.125H16.711z M15.447,5.5L12.922,9h5.051L15.447,5.5z M19.026,9v0.875H19.5v7
			h-14v-7h1.316V9H4.5v10.5h16V9H19.026z M12.078,11.625H7.027l2.526,3.5L12.078,11.625z M10.816,5.5H8.29v6.125h2.526V5.5z"/>
	</g>
	<g>
		<path fill="none" stroke="#000000" stroke-miterlimit="10" d="M16.711,15.125V9h-2.527v6.125H16.711z M15.447,5.5L12.922,9h5.051
			L15.447,5.5z M19.026,9v0.875H19.5v7h-14v-7h1.316V9H4.5v10.5h16V9H19.026z M12.078,11.625H7.027l2.526,3.5L12.078,11.625z
			 M10.816,5.5H8.29v6.125h2.526V5.5z"/>
	</g>
</g>
</svg>
