<?xml version="1.0" encoding="utf-8"?>
<!-- Generator: Adobe Illustrator 16.0.0, SVG Export Plug-In . SVG Version: 6.00 Build 0)  -->
<!DOCTYPE svg PUBLIC "-//W3C//DTD SVG 1.1//EN" "http://www.w3.org/Graphics/SVG/1.1/DTD/svg11.dtd">
<svg version="1.1" id="Layer_1" xmlns="http://www.w3.org/2000/svg" xmlns:xlink="http://www.w3.org/1999/xlink" x="0px" y="0px"
	 width="25px" height="25px" viewBox="0 0 25 25" enable-background="new 0 0 25 25" xml:space="preserve">
<path fill="#FFFFFF" stroke="#000000" stroke-miterlimit="10" d="M18.361,8.167l-5.883,9.135c-0.023,0.15-0.078,0.298-0.189,0.414
	l-0.24,0.252l-0.106,0.165c-0.202,0.313-0.579,0.416-0.907,0.289c-0.022-0.008-0.043-0.017-0.064-0.027
	c-0.033-0.017-0.068-0.021-0.1-0.042l-0.643-0.445c-0.193-0.134-0.302-0.342-0.33-0.563L6.69,13.986
	c-0.281-0.294-0.281-0.771,0-1.065L7.2,12.388c0.281-0.294,0.737-0.294,1.018,0l2.769,2.899l5.444-8.455
	c0.236-0.367,0.717-0.465,1.072-0.219l0.643,0.445C18.5,7.304,18.598,7.8,18.361,8.167z"/>
</svg>
