<?xml version="1.0" encoding="utf-8"?>
<!-- Generator: Adobe Illustrator 16.0.0, SVG Export Plug-In . SVG Version: 6.00 Build 0)  -->
<!DOCTYPE svg PUBLIC "-//W3C//DTD SVG 1.1//EN" "http://www.w3.org/Graphics/SVG/1.1/DTD/svg11.dtd">
<svg version="1.1" id="Layer_1" xmlns="http://www.w3.org/2000/svg" xmlns:xlink="http://www.w3.org/1999/xlink" x="0px" y="0px"
	 width="25px" height="25px" viewBox="0 0 25 25" enable-background="new 0 0 25 25" xml:space="preserve">
<g>
	<g>
		<path fill="#FFFFFF" d="M12.499,10.32c-0.254,0-0.461,0.216-0.461,0.483v2.415c0,0.066,0.013,0.129,0.036,0.187l-0.876,0.918
			c-0.18,0.188-0.18,0.494,0,0.683s0.472,0.188,0.652,0l0.979-1.024c0.143-0.15,0.167-0.373,0.082-0.554
			c0.03-0.063,0.05-0.133,0.05-0.209v-2.415C12.96,10.536,12.753,10.32,12.499,10.32z M10.436,7.006L9.891,6.103
			C9.373,5.108,8.24,5.605,8.24,5.605L7.155,6.366C6.02,7.386,6.701,8.241,6.701,8.241l0.961,1.124
			C7.662,9.364,8.354,7.862,10.436,7.006z M17.843,6.366l-1.085-0.761c0,0-1.133-0.498-1.651,0.498l-0.545,0.903
			c2.081,0.856,2.774,2.358,2.774,2.358l0.961-1.124C18.297,8.241,18.978,7.386,17.843,6.366z M12.499,7.853
			c-2.798,0-5.067,2.388-5.067,5.334c0,1.311,0.467,2.496,1.212,3.425l-1.196,2.169c-0.127,0.23-0.052,0.526,0.169,0.66
			c0.221,0.133,0.503,0.054,0.63-0.178l1.076-1.951c0.871,0.745,1.967,1.21,3.176,1.21c1.187,0,2.264-0.447,3.128-1.167l1.053,1.908
			c0.127,0.231,0.409,0.311,0.63,0.178c0.221-0.134,0.296-0.43,0.169-0.66l-1.167-2.114c0.771-0.937,1.255-2.144,1.255-3.479
			C17.566,10.241,15.297,7.853,12.499,7.853z M12.499,17.08c-2.037,0-3.689-1.729-3.689-3.862s1.652-3.862,3.689-3.862
			c2.038,0,3.689,1.729,3.689,3.862S14.536,17.08,12.499,17.08z M12.499,7.422c0.509,0,0.923-0.432,0.923-0.966
			c0-0.533-0.414-0.966-0.923-0.966s-0.923,0.433-0.923,0.966C11.576,6.99,11.989,7.422,12.499,7.422z"/>
	</g>
	<g>
		<path fill="none" stroke="#000000" stroke-miterlimit="10" d="M12.499,10.32c-0.254,0-0.461,0.216-0.461,0.483v2.415
			c0,0.066,0.013,0.129,0.036,0.187l-0.876,0.918c-0.18,0.188-0.18,0.494,0,0.683s0.472,0.188,0.652,0l0.979-1.024
			c0.143-0.15,0.167-0.373,0.082-0.554c0.03-0.063,0.05-0.133,0.05-0.209v-2.415C12.96,10.536,12.753,10.32,12.499,10.32z
			 M10.436,7.006L9.891,6.103C9.373,5.108,8.24,5.605,8.24,5.605L7.155,6.366C6.02,7.386,6.701,8.241,6.701,8.241l0.961,1.124
			C7.662,9.364,8.354,7.862,10.436,7.006z M17.843,6.366l-1.085-0.761c0,0-1.133-0.498-1.651,0.498l-0.545,0.903
			c2.081,0.856,2.774,2.358,2.774,2.358l0.961-1.124C18.297,8.241,18.978,7.386,17.843,6.366z M12.499,7.853
			c-2.798,0-5.067,2.388-5.067,5.334c0,1.311,0.467,2.496,1.212,3.425l-1.196,2.169c-0.127,0.23-0.052,0.526,0.169,0.66
			c0.221,0.133,0.503,0.054,0.63-0.178l1.076-1.951c0.871,0.745,1.967,1.21,3.176,1.21c1.187,0,2.264-0.447,3.128-1.167l1.053,1.908
			c0.127,0.231,0.409,0.311,0.63,0.178c0.221-0.134,0.296-0.43,0.169-0.66l-1.167-2.114c0.771-0.937,1.255-2.144,1.255-3.479
			C17.566,10.241,15.297,7.853,12.499,7.853z M12.499,17.08c-2.037,0-3.689-1.729-3.689-3.862s1.652-3.862,3.689-3.862
			c2.038,0,3.689,1.729,3.689,3.862S14.536,17.08,12.499,17.08z M12.499,7.422c0.509,0,0.923-0.432,0.923-0.966
			c0-0.533-0.414-0.966-0.923-0.966s-0.923,0.433-0.923,0.966C11.576,6.99,11.989,7.422,12.499,7.422z"/>
	</g>
</g>
</svg>
