<?xml version="1.0" encoding="utf-8"?>
<!-- Generator: Adobe Illustrator 16.0.0, SVG Export Plug-In . SVG Version: 6.00 Build 0)  -->
<!DOCTYPE svg PUBLIC "-//W3C//DTD SVG 1.1//EN" "http://www.w3.org/Graphics/SVG/1.1/DTD/svg11.dtd">
<svg version="1.1" id="Layer_1" xmlns="http://www.w3.org/2000/svg" xmlns:xlink="http://www.w3.org/1999/xlink" x="0px" y="0px"
	 width="25px" height="25px" viewBox="0 0 25 25" enable-background="new 0 0 25 25" xml:space="preserve">
<path fill="#FFFFFF" stroke="#000000" stroke-miterlimit="10" d="M8.929,8.476c0-0.755,0.602-1.357,1.405-1.357h5.403
	c0.804,0,1.334,0.659,1.334,1.414v5.372h1.753c0,0,1.131,0.566,0.366,1.61c-0.479,0.6-5.636,4.157-5.636,4.157
	s-0.385,0.566-1.079-0.039c-0.459-0.402-5.515-3.879-5.515-3.879s-1.03-1.058,0.101-1.85h1.866V8.476z M13,22.5
	c5.246,0,9.5-4.253,9.5-9.5c0-5.247-4.254-9.5-9.5-9.5c-5.247,0-9.5,4.253-9.5,9.5C3.5,18.247,7.753,22.5,13,22.5z"/>
</svg>
