<?xml version="1.0" encoding="utf-8"?>
<!-- Generator: Adobe Illustrator 16.0.0, SVG Export Plug-In . SVG Version: 6.00 Build 0)  -->
<!DOCTYPE svg PUBLIC "-//W3C//DTD SVG 1.1//EN" "http://www.w3.org/Graphics/SVG/1.1/DTD/svg11.dtd">
<svg version="1.1" id="Layer_1" xmlns="http://www.w3.org/2000/svg" xmlns:xlink="http://www.w3.org/1999/xlink" x="0px" y="0px"
	 width="25px" height="25px" viewBox="0 0 25 25" enable-background="new 0 0 25 25" xml:space="preserve">
<g>
	<g>
		<path fill="#FFFFFF" d="M16.469,7.241c0.07,0-0.084-0.681,0-1.658c-1.742-0.06-3.542-0.538-4.733,1.658
			c-0.326,0.601-0.187,2.142-0.079,4.447l-1.499,0.525v1.657l1.558-0.545c0.018,0.689,0.03,1.412,0.02,2.202
			c-0.045,3.583-3.156,3.315-3.156,3.315s-0.158,1.819,0,1.657c5.016-0.225,4.821-4.283,4.744-7.739l1.566-0.548v-1.658l-1.599,0.56
			C13.206,7.4,13.157,7.241,16.469,7.241z"/>
	</g>
	<g>
		<path fill="none" stroke="#000000" stroke-miterlimit="10" d="M16.469,7.241c0.07,0-0.084-0.681,0-1.658
			c-1.742-0.06-3.542-0.538-4.733,1.658c-0.326,0.601-0.187,2.142-0.079,4.447l-1.499,0.525v1.657l1.558-0.545
			c0.018,0.689,0.03,1.412,0.02,2.202c-0.045,3.583-3.156,3.315-3.156,3.315s-0.158,1.819,0,1.657
			c5.016-0.225,4.821-4.283,4.744-7.739l1.566-0.548v-1.658l-1.599,0.56C13.206,7.4,13.157,7.241,16.469,7.241z"/>
	</g>
</g>
</svg>
