<?xml version="1.0" encoding="utf-8"?>
<!-- Generator: Adobe Illustrator 16.0.0, SVG Export Plug-In . SVG Version: 6.00 Build 0)  -->
<!DOCTYPE svg PUBLIC "-//W3C//DTD SVG 1.1//EN" "http://www.w3.org/Graphics/SVG/1.1/DTD/svg11.dtd">
<svg version="1.1" id="Layer_1" xmlns="http://www.w3.org/2000/svg" xmlns:xlink="http://www.w3.org/1999/xlink" x="0px" y="0px"
	 width="25px" height="25px" viewBox="0 0 25 25" enable-background="new 0 0 25 25" xml:space="preserve">
<path fill="#FFFFFF" stroke="#000000" stroke-miterlimit="10" d="M7.3,6.082c-0.784,0-1.449,0.495-1.696,1.186h13.794
	c-0.248-0.691-0.914-1.186-1.699-1.186H7.3z M8.489,4.5c-0.588,0-1.09,0.328-1.293,0.791h10.609C17.602,4.828,17.1,4.5,16.512,4.5
	H8.489z M14.199,15.57H19.2c0.165,0,0.3,0.133,0.3,0.296v0.593c0,0.164-0.135,0.297-0.3,0.297h-5.001
	c-0.165,0-0.299-0.133-0.299-0.297v-0.593C13.9,15.703,14.034,15.57,14.199,15.57z M14.199,13.593H19.2c0.165,0,0.3,0.133,0.3,0.297
	v0.593c0,0.164-0.135,0.297-0.3,0.297h-5.001c-0.165,0-0.299-0.133-0.299-0.297V13.89C13.9,13.726,14.034,13.593,14.199,13.593z
	 M14.199,11.616H19.2c0.165,0,0.3,0.133,0.3,0.296v0.593c0,0.164-0.135,0.296-0.3,0.296h-5.001c-0.165,0-0.299-0.133-0.299-0.296
	v-0.593C13.9,11.749,14.034,11.616,14.199,11.616z M5.475,17.559c0-1.838,1.075-3.199,3.425-3.199s3.413,1.297,3.413,3.039
	c0,0.07,0.004,0.475,0,0.543H5.475V17.559z M7.025,12.061c0-0.935,0.886-1.705,1.85-1.705s1.9,0.869,1.9,1.804s-0.9,1.877-1.9,1.877
	C7.911,14.037,7.025,12.996,7.025,12.061z M6.016,8.058c-1.39,0-2.516,1.113-2.516,2.487v8.469c0,1.373,1.126,2.486,2.516,2.486H8.3
	v-1.186H7.5v-0.791h1.168h0.064H9.9v0.791H9.1V21.5h6.8v-1.186H15.1v-0.791h1.168h0.064H17.5v0.791h-0.8V21.5h2.284
	c1.389,0,2.516-1.113,2.516-2.486v-8.469c0-1.374-1.127-2.487-2.516-2.487H6.016z"/>
</svg>
