<?xml version="1.0" encoding="utf-8"?>
<!-- Generator: Adobe Illustrator 16.0.0, SVG Export Plug-In . SVG Version: 6.00 Build 0)  -->
<!DOCTYPE svg PUBLIC "-//W3C//DTD SVG 1.1//EN" "http://www.w3.org/Graphics/SVG/1.1/DTD/svg11.dtd">
<svg version="1.1" id="Layer_1" xmlns="http://www.w3.org/2000/svg" xmlns:xlink="http://www.w3.org/1999/xlink" x="0px" y="0px"
	 width="25px" height="25px" viewBox="0 0 25 25" enable-background="new 0 0 25 25" xml:space="preserve">
<g>
	<g>
		<path fill="#FFFFFF" d="M5.578,5.642h2.131V4.5H4.512v3.427h1.066V5.642z M5.578,10.211H4.512v3.427h1.066V10.211z M15.171,4.5
			h-5.33v1.142h5.33V4.5z M7.223,17.81l6.89-0.028c-0.698-0.623-1.141-1.553-1.141-2.589c0-0.823,0.279-1.577,0.746-2.165
			l0.01-0.104c0,0,0.537-0.469,0.793-1.233c0.402-0.266,0.557-0.303,0.623-0.61c0,0,0.181-1.16-0.252-1.16
			c0,0-0.495,0.03-0.438-0.242c0.059-0.272,0.039-0.366,0.01-0.668s0.146-1.166-0.46-1.287c-0.413-0.081-0.281,0.042-0.483,0.012
			c-0.201-0.03-0.441-0.578-0.816-0.578l-0.598,0.131c-0.375,0-0.047,0.121-0.249,0.151c-0.202,0.03,0.266-0.03-0.339,0.09
			s-0.729,0.937-0.758,1.239c-0.029,0.302-0.036,0.396-0.017,0.85c0.058,0.272-0.234,0.272-0.234,0.272
			c-0.363-0.024-0.425,1.16-0.425,1.16c0.052,0.292-0.019,0.438,0.519,0.664c0.256,0.764,0.907,1.149,0.907,1.149
			s0.032,0.49,0.042,0.838c-0.055-0.027-0.095,0.893-1.763,1.15c-1.668,0.258-1.988,0.824-2.303,1.14
			C7.17,16.307,7.223,17.81,7.223,17.81z M5.578,15.923H4.512v4.569h3.197V19.35H5.578V15.923z M19.434,14.78H20.5v-3.427h-1.066
			V14.78z M19.434,19.35h-2.131v1.143H20.5v-3.428h-1.066V19.35z M17.303,4.5v1.142h2.131v3.427H20.5V4.5H17.303z M9.841,20.492
			h5.33V19.35h-5.33V20.492z M18.73,15.192c0-1.458-1.128-2.641-2.52-2.641s-2.52,1.183-2.52,2.641s1.128,2.642,2.52,2.642
			S18.73,16.65,18.73,15.192z M16.57,17.078h-0.719V15.57h-1.44v-0.756h1.44v-1.508h0.719v1.508h1.44v0.756h-1.44V17.078z"/>
	</g>
	<g>
		<path fill="none" stroke="#000000" stroke-miterlimit="10" d="M5.578,5.642h2.131V4.5H4.512v3.427h1.066V5.642z M5.578,10.211
			H4.512v3.427h1.066V10.211z M15.171,4.5h-5.33v1.142h5.33V4.5z M7.223,17.81l6.89-0.028c-0.698-0.623-1.141-1.553-1.141-2.589
			c0-0.823,0.279-1.577,0.746-2.165l0.01-0.104c0,0,0.537-0.469,0.793-1.233c0.402-0.266,0.557-0.303,0.623-0.61
			c0,0,0.181-1.16-0.252-1.16c0,0-0.495,0.03-0.438-0.242c0.059-0.272,0.039-0.366,0.01-0.668s0.146-1.166-0.46-1.287
			c-0.413-0.081-0.281,0.042-0.483,0.012c-0.201-0.03-0.441-0.578-0.816-0.578l-0.598,0.131c-0.375,0-0.047,0.121-0.249,0.151
			c-0.202,0.03,0.266-0.03-0.339,0.09s-0.729,0.937-0.758,1.239c-0.029,0.302-0.036,0.396-0.017,0.85
			c0.058,0.272-0.234,0.272-0.234,0.272c-0.363-0.024-0.425,1.16-0.425,1.16c0.052,0.292-0.019,0.438,0.519,0.664
			c0.256,0.764,0.907,1.149,0.907,1.149s0.032,0.49,0.042,0.838c-0.055-0.027-0.095,0.893-1.763,1.15
			c-1.668,0.258-1.988,0.824-2.303,1.14C7.17,16.307,7.223,17.81,7.223,17.81z M5.578,15.923H4.512v4.569h3.197V19.35H5.578V15.923z
			 M19.434,14.78H20.5v-3.427h-1.066V14.78z M19.434,19.35h-2.131v1.143H20.5v-3.428h-1.066V19.35z M17.303,4.5v1.142h2.131v3.427
			H20.5V4.5H17.303z M9.841,20.492h5.33V19.35h-5.33V20.492z M18.73,15.192c0-1.458-1.128-2.641-2.52-2.641s-2.52,1.183-2.52,2.641
			s1.128,2.642,2.52,2.642S18.73,16.65,18.73,15.192z M16.57,17.078h-0.719V15.57h-1.44v-0.756h1.44v-1.508h0.719v1.508h1.44v0.756
			h-1.44V17.078z"/>
	</g>
</g>
</svg>
