<?xml version="1.0" encoding="utf-8"?>
<!-- Generator: Adobe Illustrator 16.0.0, SVG Export Plug-In . SVG Version: 6.00 Build 0)  -->
<!DOCTYPE svg PUBLIC "-//W3C//DTD SVG 1.1//EN" "http://www.w3.org/Graphics/SVG/1.1/DTD/svg11.dtd">
<svg version="1.1" id="Layer_1" xmlns="http://www.w3.org/2000/svg" xmlns:xlink="http://www.w3.org/1999/xlink" x="0px" y="0px"
	 width="25px" height="25px" viewBox="0 0 25 25" enable-background="new 0 0 25 25" xml:space="preserve">
<g>
	<g>
		<path fill-rule="evenodd" clip-rule="evenodd" d="M20.842,5.809c-2.208-1.759-5.787-1.759-7.994,0
			c-1.757,1.4-2.091,3.486-1.051,5.168L2.5,19.373V21.5h2.002l2.002-1.596v-1.063h1.334l0.667-0.532v-1.063h1.334v-1.064h1.335
			l0.697-0.531v-1.063h1.305l2.14-1.278c1.903,0.426,4.026,0.063,5.524-1.131C23.049,10.419,23.049,7.567,20.842,5.809z
			 M19.098,9.104c-0.662,0.527-1.735,0.527-2.397,0c-0.662-0.528-0.662-1.383,0-1.911c0.662-0.527,1.735-0.527,2.397,0
			C19.76,7.721,19.76,8.576,19.098,9.104z"/>
	</g>
</g>
</svg>
