<?xml version="1.0" encoding="utf-8"?>
<!-- Generator: Adobe Illustrator 16.0.0, SVG Export Plug-In . SVG Version: 6.00 Build 0)  -->
<!DOCTYPE svg PUBLIC "-//W3C//DTD SVG 1.1//EN" "http://www.w3.org/Graphics/SVG/1.1/DTD/svg11.dtd">
<svg version="1.1" id="Layer_1" xmlns="http://www.w3.org/2000/svg" xmlns:xlink="http://www.w3.org/1999/xlink" x="0px" y="0px"
	 width="20px" height="20px" viewBox="0 0 20 20" enable-background="new 0 0 20 20" xml:space="preserve">
<g>
	<g>
		<path fill-rule="evenodd" clip-rule="evenodd" d="M10.686,10.486c0.408,0,0.739-0.331,0.739-0.739
			c0-0.408-0.331-0.739-0.739-0.739S9.947,9.339,9.947,9.747C9.947,10.155,10.278,10.486,10.686,10.486z M13.638,7.903v3.69
			l2.585-1.846L13.638,7.903z M10.686,4.209L8.841,6.793h3.69L10.686,4.209z M10.686,11.963c1.224,0,2.216-0.992,2.216-2.216
			c0-1.224-0.992-2.216-2.216-2.216c-1.224,0-2.215,0.992-2.215,2.216C8.471,10.971,9.462,11.963,10.686,11.963z M10.686,8.27
			c0.816,0,1.477,0.661,1.477,1.478c0,0.816-0.661,1.478-1.477,1.478s-1.477-0.662-1.477-1.478C9.209,8.931,9.87,8.27,10.686,8.27z
			 M2.566,1.625v15.87h15.868V1.625H2.566z M17.297,16.209H3.703V2.951h13.594V16.209z M7.731,7.9L5.146,9.746l2.585,1.844V7.9z
			 M10.683,15.285l1.845-2.585h-3.69L10.683,15.285z"/>
	</g>
</g>
</svg>
