<?xml version="1.0" encoding="utf-8"?>
<!-- Generator: Adobe Illustrator 16.0.0, SVG Export Plug-In . SVG Version: 6.00 Build 0)  -->
<!DOCTYPE svg PUBLIC "-//W3C//DTD SVG 1.1//EN" "http://www.w3.org/Graphics/SVG/1.1/DTD/svg11.dtd">
<svg version="1.1" id="Layer_1" xmlns="http://www.w3.org/2000/svg" xmlns:xlink="http://www.w3.org/1999/xlink" x="0px" y="0px"
	 width="25px" height="25px" viewBox="0 0 25 25" enable-background="new 0 0 25 25" xml:space="preserve">
<g>
	<g>
		<path fill="#FFFFFF" d="M18.666,14.334c-0.401,0-0.772,0.121-1.086,0.324l-4.025-4.695c0.066-0.199,0.111-0.408,0.111-0.629
			c0-1.104-0.895-2-2-2c-1.104,0-2,0.896-2,2c0,0.37,0.107,0.712,0.283,1.01l-2.272,2.272c-0.297-0.175-0.64-0.283-1.01-0.283
			c-1.104,0-2,0.895-2,2c0,1.104,0.896,2,2,2c1.105,0,2-0.896,2-2c0-0.371-0.107-0.713-0.283-1.011l2.272-2.272
			c0.298,0.175,0.64,0.283,1.01,0.283c0.506,0,0.963-0.194,1.315-0.504l3.923,4.577c-0.147,0.278-0.238,0.591-0.238,0.928
			c0,1.104,0.896,2,2,2c1.105,0,2-0.896,2-2C20.666,15.229,19.771,14.334,18.666,14.334z"/>
	</g>
	<g>
		<path fill="none" stroke="#000000" stroke-miterlimit="10" d="M18.666,14.334c-0.401,0-0.772,0.121-1.086,0.324l-4.025-4.695
			c0.066-0.199,0.111-0.408,0.111-0.629c0-1.104-0.895-2-2-2c-1.104,0-2,0.896-2,2c0,0.37,0.107,0.712,0.283,1.01l-2.272,2.272
			c-0.297-0.175-0.64-0.283-1.01-0.283c-1.104,0-2,0.895-2,2c0,1.104,0.896,2,2,2c1.105,0,2-0.896,2-2
			c0-0.371-0.107-0.713-0.283-1.011l2.272-2.272c0.298,0.175,0.64,0.283,1.01,0.283c0.506,0,0.963-0.194,1.315-0.504l3.923,4.577
			c-0.147,0.278-0.238,0.591-0.238,0.928c0,1.104,0.896,2,2,2c1.105,0,2-0.896,2-2C20.666,15.229,19.771,14.334,18.666,14.334z"/>
	</g>
</g>
</svg>
