<?xml version="1.0" encoding="utf-8"?>
<!-- Generator: Adobe Illustrator 16.0.0, SVG Export Plug-In . SVG Version: 6.00 Build 0)  -->
<!DOCTYPE svg PUBLIC "-//W3C//DTD SVG 1.1//EN" "http://www.w3.org/Graphics/SVG/1.1/DTD/svg11.dtd">
<svg version="1.1" id="Layer_1" xmlns="http://www.w3.org/2000/svg" xmlns:xlink="http://www.w3.org/1999/xlink" x="0px" y="0px"
	 width="25px" height="25px" viewBox="0 0 25 25" enable-background="new 0 0 25 25" xml:space="preserve">
<g>
	<g>
		<path fill="#FFFFFF" d="M10.654,14.785h4.922v-4.571h-4.922V14.785z M19.29,16.256c0.763-1.079,1.21-2.368,1.21-3.756
			c0-2.063-0.986-3.91-2.54-5.167c0.047-0.176,0.079-0.357,0.079-0.547c0-1.262-1.103-2.286-2.463-2.286
			c-0.915,0-1.705,0.47-2.129,1.158c-0.11-0.005-0.22-0.016-0.332-0.016c-4.078,0-7.384,3.07-7.384,6.857
			c0,0.104,0.012,0.206,0.017,0.309C5.006,13.202,4.5,13.936,4.5,14.785c0,1.264,1.102,2.286,2.461,2.286
			c0.204,0,0.399-0.029,0.589-0.073c1.354,1.443,3.342,2.359,5.565,2.359c0.913,0,1.784-0.161,2.591-0.442
			c0.32,0.917,1.238,1.585,2.333,1.585c1.359,0,2.461-1.023,2.461-2.285C20.5,17.378,20.012,16.654,19.29,16.256z M18.029,15.93
			c-1.166,0.004-2.139,0.763-2.388,1.777c-0.771,0.323-1.625,0.508-2.526,0.508c-1.755,0-3.334-0.686-4.456-1.78
			c0.468-0.416,0.763-0.999,0.763-1.649c0-1.262-1.102-2.285-2.461-2.285c0-3.156,2.755-5.714,6.154-5.714
			c0,1.263,1.102,2.286,2.461,2.286c0.7,0,1.328-0.273,1.776-0.708c1.179,1.041,1.917,2.508,1.917,4.137
			C19.27,13.789,18.805,14.974,18.029,15.93z"/>
	</g>
	<g>
		<path fill="none" stroke="#000000" stroke-miterlimit="10" d="M10.654,14.785h4.922v-4.571h-4.922V14.785z M19.29,16.256
			c0.763-1.079,1.21-2.368,1.21-3.756c0-2.063-0.986-3.91-2.54-5.167c0.047-0.176,0.079-0.357,0.079-0.547
			c0-1.262-1.103-2.286-2.463-2.286c-0.915,0-1.705,0.47-2.129,1.158c-0.11-0.005-0.22-0.016-0.332-0.016
			c-4.078,0-7.384,3.07-7.384,6.857c0,0.104,0.012,0.206,0.017,0.309C5.006,13.202,4.5,13.936,4.5,14.785
			c0,1.264,1.102,2.286,2.461,2.286c0.204,0,0.399-0.029,0.589-0.073c1.354,1.443,3.342,2.359,5.565,2.359
			c0.913,0,1.784-0.161,2.591-0.442c0.32,0.917,1.238,1.585,2.333,1.585c1.359,0,2.461-1.023,2.461-2.285
			C20.5,17.378,20.012,16.654,19.29,16.256z M18.029,15.93c-1.166,0.004-2.139,0.763-2.388,1.777
			c-0.771,0.323-1.625,0.508-2.526,0.508c-1.755,0-3.334-0.686-4.456-1.78c0.468-0.416,0.763-0.999,0.763-1.649
			c0-1.262-1.102-2.285-2.461-2.285c0-3.156,2.755-5.714,6.154-5.714c0,1.263,1.102,2.286,2.461,2.286
			c0.7,0,1.328-0.273,1.776-0.708c1.179,1.041,1.917,2.508,1.917,4.137C19.27,13.789,18.805,14.974,18.029,15.93z"/>
	</g>
</g>
</svg>
