<?xml version="1.0" encoding="utf-8"?>
<!-- Generator: Adobe Illustrator 16.0.0, SVG Export Plug-In . SVG Version: 6.00 Build 0)  -->
<!DOCTYPE svg PUBLIC "-//W3C//DTD SVG 1.1//EN" "http://www.w3.org/Graphics/SVG/1.1/DTD/svg11.dtd">
<svg version="1.1" id="Layer_1" xmlns="http://www.w3.org/2000/svg" xmlns:xlink="http://www.w3.org/1999/xlink" x="0px" y="0px"
	 width="25px" height="25px" viewBox="0 0 25 25" enable-background="new 0 0 25 25" xml:space="preserve">
<g>
	<g>
		<path fill="#FFFFFF" d="M19.611,14.834v-4.667c2.147,0,3.889-1.492,3.889-3.333c0-1.841-1.741-3.333-3.889-3.333
			c-2.148,0-3.889,1.492-3.889,3.333c0,0.182,0.029,0.357,0.063,0.531l-6.112,3.032C8.985,9.46,7.776,8.833,6.389,8.833
			c-2.147,0-3.889,1.492-3.889,3.333c0,1.841,1.741,3.333,3.889,3.333c1.581,0,2.935-0.812,3.543-1.973l6.066,3.424
			c-0.173,0.377-0.275,0.785-0.275,1.215c0,1.842,1.74,3.334,3.889,3.334c2.147,0,3.889-1.492,3.889-3.334
			C23.5,16.326,21.759,14.834,19.611,14.834z M10.187,12.873c0.057-0.228,0.091-0.464,0.091-0.707c0-0.413-0.099-0.803-0.259-1.168
			l5.974-2.963c0.473,1.044,1.533,1.837,2.841,2.064v4.802c-1.038,0.181-1.921,0.718-2.479,1.452L10.187,12.873z"/>
	</g>
	<g>
		<path fill="none" stroke="#000000" stroke-miterlimit="10" d="M19.611,14.834v-4.667c2.147,0,3.889-1.492,3.889-3.333
			c0-1.841-1.741-3.333-3.889-3.333c-2.148,0-3.889,1.492-3.889,3.333c0,0.182,0.029,0.357,0.063,0.531l-6.112,3.032
			C8.985,9.46,7.776,8.833,6.389,8.833c-2.147,0-3.889,1.492-3.889,3.333c0,1.841,1.741,3.333,3.889,3.333
			c1.581,0,2.935-0.812,3.543-1.973l6.066,3.424c-0.173,0.377-0.275,0.785-0.275,1.215c0,1.842,1.74,3.334,3.889,3.334
			c2.147,0,3.889-1.492,3.889-3.334C23.5,16.326,21.759,14.834,19.611,14.834z M10.187,12.873c0.057-0.228,0.091-0.464,0.091-0.707
			c0-0.413-0.099-0.803-0.259-1.168l5.974-2.963c0.473,1.044,1.533,1.837,2.841,2.064v4.802c-1.038,0.181-1.921,0.718-2.479,1.452
			L10.187,12.873z"/>
	</g>
</g>
</svg>
