<?xml version="1.0" encoding="utf-8"?>
<!-- Generator: Adobe Illustrator 16.0.0, SVG Export Plug-In . SVG Version: 6.00 Build 0)  -->
<!DOCTYPE svg PUBLIC "-//W3C//DTD SVG 1.1//EN" "http://www.w3.org/Graphics/SVG/1.1/DTD/svg11.dtd">
<svg version="1.1" id="Layer_1" xmlns="http://www.w3.org/2000/svg" xmlns:xlink="http://www.w3.org/1999/xlink" x="0px" y="0px"
	 width="25px" height="25px" viewBox="0 0 25 25" enable-background="new 0 0 25 25" xml:space="preserve">
<g>
	<g>
		<path fill="#FFFFFF" d="M19.158,6.928h-3.329v1.518c0,0.503-0.249,0.911-0.555,0.911H9.726c-0.306,0-0.555-0.408-0.555-0.911
			V6.928H5.842c-0.736,0-1.332,0.543-1.332,1.214v12.144c0,0.671,0.596,1.214,1.332,1.214h13.316c0.735,0,1.332-0.543,1.332-1.214
			V8.142C20.49,7.472,19.894,6.928,19.158,6.928z M17.826,19.68H7.173c-0.368,0-0.666-0.272-0.666-0.607
			c0-0.336,0.298-0.607,0.666-0.607h10.653c0.368,0,0.666,0.271,0.666,0.607C18.492,19.407,18.194,19.68,17.826,19.68z
			 M17.826,16.947H7.173c-0.368,0-0.666-0.272-0.666-0.607c0-0.336,0.298-0.607,0.666-0.607h10.653c0.368,0,0.666,0.271,0.666,0.607
			C18.492,16.675,18.194,16.947,17.826,16.947z M17.826,14.215H7.173c-0.368,0-0.666-0.272-0.666-0.607
			C6.507,13.271,6.806,13,7.173,13h10.653c0.368,0,0.666,0.271,0.666,0.607C18.492,13.942,18.194,14.215,17.826,14.215z
			 M17.826,11.786H7.173c-0.368,0-0.666-0.272-0.666-0.607c0-0.335,0.298-0.607,0.666-0.607h10.653c0.368,0,0.666,0.272,0.666,0.607
			C18.492,11.514,18.194,11.786,17.826,11.786z M10.502,8.75h3.996c0.367,0,0.665-0.272,0.665-0.607V6.928
			c0-0.335-0.298-0.607-0.665-0.607h-0.041c0.026-0.098,0.041-0.2,0.041-0.304c0-0.838-0.895-1.518-1.998-1.518
			s-1.998,0.679-1.998,1.518c0,0.104,0.014,0.206,0.04,0.304h-0.04c-0.368,0-0.666,0.272-0.666,0.607v1.214
			C9.836,8.478,10.135,8.75,10.502,8.75z M11.834,5.714h1.332v1.214h-1.332V5.714z"/>
	</g>
	<g>
		<path fill="none" stroke="#000000" stroke-miterlimit="10" d="M19.158,6.928h-3.329v1.518c0,0.503-0.249,0.911-0.555,0.911H9.726
			c-0.306,0-0.555-0.408-0.555-0.911V6.928H5.842c-0.736,0-1.332,0.543-1.332,1.214v12.144c0,0.671,0.596,1.214,1.332,1.214h13.316
			c0.735,0,1.332-0.543,1.332-1.214V8.142C20.49,7.472,19.894,6.928,19.158,6.928z M17.826,19.68H7.173
			c-0.368,0-0.666-0.272-0.666-0.607c0-0.336,0.298-0.607,0.666-0.607h10.653c0.368,0,0.666,0.271,0.666,0.607
			C18.492,19.407,18.194,19.68,17.826,19.68z M17.826,16.947H7.173c-0.368,0-0.666-0.272-0.666-0.607
			c0-0.336,0.298-0.607,0.666-0.607h10.653c0.368,0,0.666,0.271,0.666,0.607C18.492,16.675,18.194,16.947,17.826,16.947z
			 M17.826,14.215H7.173c-0.368,0-0.666-0.272-0.666-0.607C6.507,13.271,6.806,13,7.173,13h10.653c0.368,0,0.666,0.271,0.666,0.607
			C18.492,13.942,18.194,14.215,17.826,14.215z M17.826,11.786H7.173c-0.368,0-0.666-0.272-0.666-0.607
			c0-0.335,0.298-0.607,0.666-0.607h10.653c0.368,0,0.666,0.272,0.666,0.607C18.492,11.514,18.194,11.786,17.826,11.786z
			 M10.502,8.75h3.996c0.367,0,0.665-0.272,0.665-0.607V6.928c0-0.335-0.298-0.607-0.665-0.607h-0.041
			c0.026-0.098,0.041-0.2,0.041-0.304c0-0.838-0.895-1.518-1.998-1.518s-1.998,0.679-1.998,1.518c0,0.104,0.014,0.206,0.04,0.304
			h-0.04c-0.368,0-0.666,0.272-0.666,0.607v1.214C9.836,8.478,10.135,8.75,10.502,8.75z M11.834,5.714h1.332v1.214h-1.332V5.714z"/>
	</g>
</g>
</svg>
