<?xml version="1.0" encoding="utf-8"?>
<!-- Generator: Adobe Illustrator 16.0.0, SVG Export Plug-In . SVG Version: 6.00 Build 0)  -->
<!DOCTYPE svg PUBLIC "-//W3C//DTD SVG 1.1//EN" "http://www.w3.org/Graphics/SVG/1.1/DTD/svg11.dtd">
<svg version="1.1" id="Layer_1" xmlns="http://www.w3.org/2000/svg" xmlns:xlink="http://www.w3.org/1999/xlink" x="0px" y="0px"
	 width="25px" height="25px" viewBox="0 0 25 25" enable-background="new 0 0 25 25" xml:space="preserve">
<path fill="#FFFFFF" stroke="#000000" stroke-miterlimit="10" d="M6.961,17.301v1.066h11.078v-1.066H6.961z M6.961,15.166v1.067
	h11.078v-1.067H6.961z M6.961,13.033V14.1h11.078v-1.066H6.961z M11.885,10.9v1.067h6.154V10.9H11.885z M11.885,8.767v1.067h6.154
	V8.767H11.885z M6.961,8.767v3.2h3.692v-3.2H6.961z M11.885,5.567H12.5h0.615V6.1v0.533H12.5h-0.615V6.1V5.567z M15.577,7.7V6.633
	V5.567V4.5h-2.462H9.423v1.067v1.066V7.7H15.577z M4.5,6.633V7.7v1.066v10.667L5.731,20.5h11.077h2.462l1.23-1.066v-7.467v-3.2V7.7
	V6.633l-1.23-1.066h-2.462v1.066h2.462V7.7v1.066v4.267v6.4h-2.462H5.731V8.767V7.7V6.633h2.461V5.567H5.731L4.5,6.633z"/>
</svg>
