<?xml version="1.0" encoding="utf-8"?>
<!-- Generator: Adobe Illustrator 16.0.0, SVG Export Plug-In . SVG Version: 6.00 Build 0)  -->
<!DOCTYPE svg PUBLIC "-//W3C//DTD SVG 1.1//EN" "http://www.w3.org/Graphics/SVG/1.1/DTD/svg11.dtd">
<svg version="1.1" id="Layer_1" xmlns="http://www.w3.org/2000/svg" xmlns:xlink="http://www.w3.org/1999/xlink" x="0px" y="0px"
	 width="25px" height="25px" viewBox="0 0 25 25" enable-background="new 0 0 25 25" xml:space="preserve">
<path fill="#FFFFFF" stroke="#000000" stroke-miterlimit="10" d="M19.672,18.5c-0.457,0-0.827-0.384-0.827-0.857V7.357
	c0-0.473,0.37-0.857,0.827-0.857S20.5,6.884,20.5,7.357v10.286C20.5,18.116,20.129,18.5,19.672,18.5z M15.535,17.357
	c0,0.631-0.494,1.143-1.104,1.143H9.466c-0.61,0-1.104-0.512-1.104-1.143v-2.262L6.16,14.588v-4.131l12.151-2.773v9.705l-2.776-0.64
	V17.357z M14.982,16.621l-6.069-1.398v2.135c0,0.315,0.247,0.571,0.552,0.571h4.966c0.305,0,0.551-0.256,0.551-0.571V16.621z
	 M5.052,15.071c-0.305,0-0.552-0.256-0.552-0.571v-4c0-0.315,0.247-0.571,0.552-0.571s0.552,0.256,0.552,0.571v4
	C5.604,14.815,5.356,15.071,5.052,15.071z"/>
</svg>
