<?xml version="1.0" encoding="utf-8"?>
<!-- Generator: Adobe Illustrator 16.0.0, SVG Export Plug-In . SVG Version: 6.00 Build 0)  -->
<!DOCTYPE svg PUBLIC "-//W3C//DTD SVG 1.1//EN" "http://www.w3.org/Graphics/SVG/1.1/DTD/svg11.dtd">
<svg version="1.1" id="Layer_1" xmlns="http://www.w3.org/2000/svg" xmlns:xlink="http://www.w3.org/1999/xlink" x="0px" y="0px"
	 width="25px" height="25px" viewBox="0 0 25 25" enable-background="new 0 0 25 25" xml:space="preserve">
<g>
	<g>
		<path fill="#FFFFFF" d="M7.751,10.151l0.019,0.003c0.248-0.487,0.574-0.948,0.985-1.357c1.776-1.764,4.497-2.009,6.542-0.744
			L13.58,9.759l6.701,1.405l-0.738-3.553l-0.671-3.108l-1.597,1.587c-3.143-2.32-7.6-2.074-10.451,0.756
			c-1.404,1.394-2.171,3.176-2.317,4.997l2.701,0.566C7.221,11.633,7.398,10.862,7.751,10.151z M17.793,12.609
			c-0.014,0.77-0.191,1.535-0.543,2.242l-0.019-0.006c-0.249,0.49-0.573,0.95-0.985,1.357c-1.775,1.766-4.497,2.01-6.542,0.746
			l1.704-1.692l-6.696-1.405l0.475,2.291l0.942,4.355l1.596-1.584c3.142,2.319,7.599,2.074,10.45-0.758
			c1.4-1.391,2.168-3.164,2.316-4.98L17.793,12.609z"/>
	</g>
	<g>
		<path fill="none" stroke="#000000" stroke-miterlimit="10" d="M7.751,10.151l0.019,0.003c0.248-0.487,0.574-0.948,0.985-1.357
			c1.776-1.764,4.497-2.009,6.542-0.744L13.58,9.759l6.701,1.405l-0.738-3.553l-0.671-3.108l-1.597,1.587
			c-3.143-2.32-7.6-2.074-10.451,0.756c-1.404,1.394-2.171,3.176-2.317,4.997l2.701,0.566C7.221,11.633,7.398,10.862,7.751,10.151z
			 M17.793,12.609c-0.014,0.77-0.191,1.535-0.543,2.242l-0.019-0.006c-0.249,0.49-0.573,0.95-0.985,1.357
			c-1.775,1.766-4.497,2.01-6.542,0.746l1.704-1.692l-6.696-1.405l0.475,2.291l0.942,4.355l1.596-1.584
			c3.142,2.319,7.599,2.074,10.45-0.758c1.4-1.391,2.168-3.164,2.316-4.98L17.793,12.609z"/>
	</g>
</g>
</svg>
