<?xml version="1.0" encoding="utf-8"?>
<!-- Generator: Adobe Illustrator 16.0.0, SVG Export Plug-In . SVG Version: 6.00 Build 0)  -->
<!DOCTYPE svg PUBLIC "-//W3C//DTD SVG 1.1//EN" "http://www.w3.org/Graphics/SVG/1.1/DTD/svg11.dtd">
<svg version="1.1" id="Layer_1" xmlns="http://www.w3.org/2000/svg" xmlns:xlink="http://www.w3.org/1999/xlink" x="0px" y="0px"
	 width="25px" height="25px" viewBox="0 0 25 25" enable-background="new 0 0 25 25" xml:space="preserve">
<g>
	<g>
		<path fill="#FFFFFF" d="M15.072,17.322H9.928v1.044H3.5v2.09h6.429V21.5h5.144v-1.044H21.5v-2.09h-6.428V17.322z M13.785,20.456
			h-2.571v-2.09h2.571V20.456z M12.5,13.143v-1.044H7.357v1.044H3.5v2.09h3.857v1.045H12.5v-1.045h9v-2.09H12.5z M11.214,15.232
			H8.643v-2.09h2.572V15.232z M13.062,9.719h0.37c0.061,0.218,0.146,0.425,0.258,0.617l-0.343,0.343c-0.22,0.219-0.22,0.575,0,0.794
			l0.198,0.198c0.219,0.219,0.574,0.219,0.794,0l0.345-0.345c0.191,0.109,0.397,0.194,0.615,0.253v0.359
			c0,0.31,0.251,0.562,0.561,0.562h0.281c0.31,0,0.561-0.251,0.561-0.562v-0.359c0.218-0.059,0.424-0.144,0.615-0.253l0.345,0.345
			c0.22,0.219,0.575,0.219,0.794,0l0.198-0.198c0.22-0.219,0.22-0.575,0-0.794l-0.343-0.343c0.111-0.192,0.197-0.398,0.258-0.617
			h0.37c0.31,0,0.562-0.251,0.562-0.562V8.877c0-0.31-0.252-0.561-0.562-0.561h-0.366c-0.059-0.216-0.141-0.422-0.248-0.612
			l0.329-0.33c0.22-0.219,0.22-0.575,0-0.794l-0.198-0.198c-0.219-0.219-0.574-0.219-0.794,0l-0.323,0.323
			c-0.197-0.115-0.41-0.205-0.637-0.266V6.062c0-0.31-0.251-0.562-0.561-0.562h-0.281c-0.31,0-0.561,0.251-0.561,0.562v0.377
			C15.072,6.5,14.859,6.59,14.662,6.705l-0.323-0.323c-0.22-0.219-0.575-0.219-0.794,0L13.347,6.58c-0.22,0.219-0.22,0.575,0,0.794
			l0.329,0.33c-0.107,0.19-0.19,0.396-0.248,0.612h-0.366c-0.31,0-0.562,0.251-0.562,0.561v0.281
			C12.5,9.468,12.751,9.719,13.062,9.719z M16,7.482c0.853,0,1.544,0.691,1.544,1.544S16.853,10.57,16,10.57
			s-1.544-0.691-1.544-1.544S15.147,7.482,16,7.482z M16,9.71c0.388,0,0.701-0.314,0.701-0.702S16.388,8.307,16,8.307
			s-0.701,0.314-0.701,0.702S15.612,9.71,16,9.71z"/>
	</g>
	<g>
		<path fill="none" stroke="#000000" stroke-miterlimit="10" d="M15.072,17.322H9.928v1.044H3.5v2.09h6.429V21.5h5.144v-1.044H21.5
			v-2.09h-6.428V17.322z M13.785,20.456h-2.571v-2.09h2.571V20.456z M12.5,13.143v-1.044H7.357v1.044H3.5v2.09h3.857v1.045H12.5
			v-1.045h9v-2.09H12.5z M11.214,15.232H8.643v-2.09h2.572V15.232z M13.062,9.719h0.37c0.061,0.218,0.146,0.425,0.258,0.617
			l-0.343,0.343c-0.22,0.219-0.22,0.575,0,0.794l0.198,0.198c0.219,0.219,0.574,0.219,0.794,0l0.345-0.345
			c0.191,0.109,0.397,0.194,0.615,0.253v0.359c0,0.31,0.251,0.562,0.561,0.562h0.281c0.31,0,0.561-0.251,0.561-0.562v-0.359
			c0.218-0.059,0.424-0.144,0.615-0.253l0.345,0.345c0.22,0.219,0.575,0.219,0.794,0l0.198-0.198c0.22-0.219,0.22-0.575,0-0.794
			l-0.343-0.343c0.111-0.192,0.197-0.398,0.258-0.617h0.37c0.31,0,0.562-0.251,0.562-0.562V8.877c0-0.31-0.252-0.561-0.562-0.561
			h-0.366c-0.059-0.216-0.141-0.422-0.248-0.612l0.329-0.33c0.22-0.219,0.22-0.575,0-0.794l-0.198-0.198
			c-0.219-0.219-0.574-0.219-0.794,0l-0.323,0.323c-0.197-0.115-0.41-0.205-0.637-0.266V6.062c0-0.31-0.251-0.562-0.561-0.562
			h-0.281c-0.31,0-0.561,0.251-0.561,0.562v0.377C15.072,6.5,14.859,6.59,14.662,6.705l-0.323-0.323
			c-0.22-0.219-0.575-0.219-0.794,0L13.347,6.58c-0.22,0.219-0.22,0.575,0,0.794l0.329,0.33c-0.107,0.19-0.19,0.396-0.248,0.612
			h-0.366c-0.31,0-0.562,0.251-0.562,0.561v0.281C12.5,9.468,12.751,9.719,13.062,9.719z M16,7.482c0.853,0,1.544,0.691,1.544,1.544
			S16.853,10.57,16,10.57s-1.544-0.691-1.544-1.544S15.147,7.482,16,7.482z M16,9.71c0.388,0,0.701-0.314,0.701-0.702
			S16.388,8.307,16,8.307s-0.701,0.314-0.701,0.702S15.612,9.71,16,9.71z"/>
	</g>
</g>
</svg>
