<?xml version="1.0" encoding="utf-8"?>
<!-- Generator: Adobe Illustrator 16.0.0, SVG Export Plug-In . SVG Version: 6.00 Build 0)  -->
<!DOCTYPE svg PUBLIC "-//W3C//DTD SVG 1.1//EN" "http://www.w3.org/Graphics/SVG/1.1/DTD/svg11.dtd">
<svg version="1.1" id="Layer_1" xmlns="http://www.w3.org/2000/svg" xmlns:xlink="http://www.w3.org/1999/xlink" x="0px" y="0px"
	 width="25px" height="25px" viewBox="0 0 25 25" enable-background="new 0 0 25 25" xml:space="preserve">
<path fill="#FFFFFF" stroke="#000000" stroke-miterlimit="10" d="M17.643,11.5h2.572v2h-2.572V11.5z M17.643,5.5v5h-1.285v4h1.285v5
	h2.572v-5H21.5v-4h-1.285v-5H17.643z M11.214,13.5h2.571v2h-2.571V13.5z M11.214,5.5v7H9.928v4h1.286v3h2.571v-3h1.287v-4h-1.287v-7
	H11.214z M4.785,9.5h2.572v2H4.785V9.5z M4.785,5.5v3H3.5v4h1.286v7h2.572v-7h1.286v-4H7.357v-3H4.785z"/>
</svg>
