<?xml version="1.0" encoding="utf-8"?>
<!-- Generator: Adobe Illustrator 16.0.0, SVG Export Plug-In . SVG Version: 6.00 Build 0)  -->
<!DOCTYPE svg PUBLIC "-//W3C//DTD SVG 1.1//EN" "http://www.w3.org/Graphics/SVG/1.1/DTD/svg11.dtd">
<svg version="1.1" id="Layer_1" xmlns="http://www.w3.org/2000/svg" xmlns:xlink="http://www.w3.org/1999/xlink" x="0px" y="0px"
	 width="25px" height="25px" viewBox="0 0 25 25" enable-background="new 0 0 25 25" xml:space="preserve">
<g>
	<g>
		<path fill="#FFFFFF" d="M9.2,8.037h2.1v1.769c0,0.326,0.313,0.589,0.7,0.589c0.386,0,0.7-0.264,0.7-0.589V8.037h2.1
			c0.387,0,0.7-0.264,0.7-0.589s-0.313-0.589-0.7-0.589h-2.1V5.089C12.7,4.764,12.386,4.5,12,4.5c-0.387,0-0.7,0.264-0.7,0.589
			v1.769H9.2c-0.386,0-0.7,0.264-0.7,0.589S8.813,8.037,9.2,8.037z M12.5,16.383H7.357v1.029H3.5v2.059h3.857V20.5H12.5v-1.029h9
			v-2.059h-9V16.383z M11.214,19.471H8.643v-2.059h2.572V19.471z M17.643,12.266v-1.029H12.5v1.029h-9v2.058h9v1.029h5.143v-1.029
			H21.5v-2.058H17.643z M16.357,14.324h-2.572v-2.058h2.572V14.324z"/>
	</g>
	<g>
		<path fill="none" stroke="#000000" stroke-miterlimit="10" d="M9.2,8.037h2.1v1.769c0,0.326,0.313,0.589,0.7,0.589
			c0.386,0,0.7-0.264,0.7-0.589V8.037h2.1c0.387,0,0.7-0.264,0.7-0.589s-0.313-0.589-0.7-0.589h-2.1V5.089
			C12.7,4.764,12.386,4.5,12,4.5c-0.387,0-0.7,0.264-0.7,0.589v1.769H9.2c-0.386,0-0.7,0.264-0.7,0.589S8.813,8.037,9.2,8.037z
			 M12.5,16.383H7.357v1.029H3.5v2.059h3.857V20.5H12.5v-1.029h9v-2.059h-9V16.383z M11.214,19.471H8.643v-2.059h2.572V19.471z
			 M17.643,12.266v-1.029H12.5v1.029h-9v2.058h9v1.029h5.143v-1.029H21.5v-2.058H17.643z M16.357,14.324h-2.572v-2.058h2.572V14.324
			z"/>
	</g>
</g>
</svg>
