<?xml version="1.0" encoding="utf-8"?>
<!-- Generator: Adobe Illustrator 16.0.0, SVG Export Plug-In . SVG Version: 6.00 Build 0)  -->
<!DOCTYPE svg PUBLIC "-//W3C//DTD SVG 1.1//EN" "http://www.w3.org/Graphics/SVG/1.1/DTD/svg11.dtd">
<svg version="1.1" id="Layer_1" xmlns="http://www.w3.org/2000/svg" xmlns:xlink="http://www.w3.org/1999/xlink" x="0px" y="0px"
	 width="25px" height="25px" viewBox="0 0 25 25" enable-background="new 0 0 25 25" xml:space="preserve">
<g>
	<g>
		<path fill="#FFFFFF" d="M15.205,4.5v3.84H20.5L15.205,4.5z M14.324,4.5H5.5v16h15V8.976L14.324,8.98V4.5z M7.265,6.42h1.765v0.64
			H7.265V6.42z M7.265,7.7h3.529v0.64H7.265V7.7z M7.265,8.98h5.294v0.64H7.265V8.98z M9.897,10.265l2.656,2.555h-1.76v3.84H9.029
			v-3.84H7.242L9.897,10.265z M18.735,19.22H7.265v-0.64h11.471V19.22z M18.735,17.939H7.265V17.3h11.471V17.939z M15.206,14.1
			v-3.84h1.765v3.84h1.76l-2.656,2.556L13.418,14.1H15.206z"/>
	</g>
	<g>
		<path fill="none" stroke="#000000" stroke-miterlimit="10" d="M15.205,4.5v3.84H20.5L15.205,4.5z M14.324,4.5H5.5v16h15V8.976
			L14.324,8.98V4.5z M7.265,6.42h1.765v0.64H7.265V6.42z M7.265,7.7h3.529v0.64H7.265V7.7z M7.265,8.98h5.294v0.64H7.265V8.98z
			 M9.897,10.265l2.656,2.555h-1.76v3.84H9.029v-3.84H7.242L9.897,10.265z M18.735,19.22H7.265v-0.64h11.471V19.22z M18.735,17.939
			H7.265V17.3h11.471V17.939z M15.206,14.1v-3.84h1.765v3.84h1.76l-2.656,2.556L13.418,14.1H15.206z"/>
	</g>
</g>
</svg>
