<?xml version="1.0" encoding="utf-8"?>
<!-- Generated by IcoMoon.io -->
<!DOCTYPE svg PUBLIC "-//W3C//DTD SVG 1.1//EN" "http://www.w3.org/Graphics/SVG/1.1/DTD/svg11.dtd">
<svg version="1.1" xmlns="http://www.w3.org/2000/svg" xmlns:xlink="http://www.w3.org/1999/xlink" width="1024" height="1024" viewBox="0 0 1024 1024">
<g id="icomoon-ignore">
	<line stroke-width="1" x1="16" y1="0" x2="16" y2="1024" stroke="#449FDB" opacity="0.3"></line>
	<line stroke-width="1" x1="32" y1="0" x2="32" y2="1024" stroke="#449FDB" opacity="1"></line>
	<line stroke-width="1" x1="48" y1="0" x2="48" y2="1024" stroke="#449FDB" opacity="0.3"></line>
	<line stroke-width="1" x1="64" y1="0" x2="64" y2="1024" stroke="#449FDB" opacity="1"></line>
	<line stroke-width="1" x1="80" y1="0" x2="80" y2="1024" stroke="#449FDB" opacity="0.3"></line>
	<line stroke-width="1" x1="96" y1="0" x2="96" y2="1024" stroke="#449FDB" opacity="1"></line>
	<line stroke-width="1" x1="112" y1="0" x2="112" y2="1024" stroke="#449FDB" opacity="0.3"></line>
	<line stroke-width="1" x1="128" y1="0" x2="128" y2="1024" stroke="#449FDB" opacity="1"></line>
	<line stroke-width="1" x1="144" y1="0" x2="144" y2="1024" stroke="#449FDB" opacity="0.3"></line>
	<line stroke-width="1" x1="160" y1="0" x2="160" y2="1024" stroke="#449FDB" opacity="1"></line>
	<line stroke-width="1" x1="176" y1="0" x2="176" y2="1024" stroke="#449FDB" opacity="0.3"></line>
	<line stroke-width="1" x1="192" y1="0" x2="192" y2="1024" stroke="#449FDB" opacity="1"></line>
	<line stroke-width="1" x1="208" y1="0" x2="208" y2="1024" stroke="#449FDB" opacity="0.3"></line>
	<line stroke-width="1" x1="224" y1="0" x2="224" y2="1024" stroke="#449FDB" opacity="1"></line>
	<line stroke-width="1" x1="240" y1="0" x2="240" y2="1024" stroke="#449FDB" opacity="0.3"></line>
	<line stroke-width="1" x1="256" y1="0" x2="256" y2="1024" stroke="#449FDB" opacity="1"></line>
	<line stroke-width="1" x1="272" y1="0" x2="272" y2="1024" stroke="#449FDB" opacity="0.3"></line>
	<line stroke-width="1" x1="288" y1="0" x2="288" y2="1024" stroke="#449FDB" opacity="1"></line>
	<line stroke-width="1" x1="304" y1="0" x2="304" y2="1024" stroke="#449FDB" opacity="0.3"></line>
	<line stroke-width="1" x1="320" y1="0" x2="320" y2="1024" stroke="#449FDB" opacity="1"></line>
	<line stroke-width="1" x1="336" y1="0" x2="336" y2="1024" stroke="#449FDB" opacity="0.3"></line>
	<line stroke-width="1" x1="352" y1="0" x2="352" y2="1024" stroke="#449FDB" opacity="1"></line>
	<line stroke-width="1" x1="368" y1="0" x2="368" y2="1024" stroke="#449FDB" opacity="0.3"></line>
	<line stroke-width="1" x1="384" y1="0" x2="384" y2="1024" stroke="#449FDB" opacity="1"></line>
	<line stroke-width="1" x1="400" y1="0" x2="400" y2="1024" stroke="#449FDB" opacity="0.3"></line>
	<line stroke-width="1" x1="416" y1="0" x2="416" y2="1024" stroke="#449FDB" opacity="1"></line>
	<line stroke-width="1" x1="432" y1="0" x2="432" y2="1024" stroke="#449FDB" opacity="0.3"></line>
	<line stroke-width="1" x1="448" y1="0" x2="448" y2="1024" stroke="#449FDB" opacity="1"></line>
	<line stroke-width="1" x1="464" y1="0" x2="464" y2="1024" stroke="#449FDB" opacity="0.3"></line>
	<line stroke-width="1" x1="480" y1="0" x2="480" y2="1024" stroke="#449FDB" opacity="1"></line>
	<line stroke-width="1" x1="496" y1="0" x2="496" y2="1024" stroke="#449FDB" opacity="0.3"></line>
	<line stroke-width="1" x1="512" y1="0" x2="512" y2="1024" stroke="#449FDB" opacity="1"></line>
	<line stroke-width="1" x1="528" y1="0" x2="528" y2="1024" stroke="#449FDB" opacity="0.3"></line>
	<line stroke-width="1" x1="544" y1="0" x2="544" y2="1024" stroke="#449FDB" opacity="1"></line>
	<line stroke-width="1" x1="560" y1="0" x2="560" y2="1024" stroke="#449FDB" opacity="0.3"></line>
	<line stroke-width="1" x1="576" y1="0" x2="576" y2="1024" stroke="#449FDB" opacity="1"></line>
	<line stroke-width="1" x1="592" y1="0" x2="592" y2="1024" stroke="#449FDB" opacity="0.3"></line>
	<line stroke-width="1" x1="608" y1="0" x2="608" y2="1024" stroke="#449FDB" opacity="1"></line>
	<line stroke-width="1" x1="624" y1="0" x2="624" y2="1024" stroke="#449FDB" opacity="0.3"></line>
	<line stroke-width="1" x1="640" y1="0" x2="640" y2="1024" stroke="#449FDB" opacity="1"></line>
	<line stroke-width="1" x1="656" y1="0" x2="656" y2="1024" stroke="#449FDB" opacity="0.3"></line>
	<line stroke-width="1" x1="672" y1="0" x2="672" y2="1024" stroke="#449FDB" opacity="1"></line>
	<line stroke-width="1" x1="688" y1="0" x2="688" y2="1024" stroke="#449FDB" opacity="0.3"></line>
	<line stroke-width="1" x1="704" y1="0" x2="704" y2="1024" stroke="#449FDB" opacity="1"></line>
	<line stroke-width="1" x1="720" y1="0" x2="720" y2="1024" stroke="#449FDB" opacity="0.3"></line>
	<line stroke-width="1" x1="736" y1="0" x2="736" y2="1024" stroke="#449FDB" opacity="1"></line>
	<line stroke-width="1" x1="752" y1="0" x2="752" y2="1024" stroke="#449FDB" opacity="0.3"></line>
	<line stroke-width="1" x1="768" y1="0" x2="768" y2="1024" stroke="#449FDB" opacity="1"></line>
	<line stroke-width="1" x1="784" y1="0" x2="784" y2="1024" stroke="#449FDB" opacity="0.3"></line>
	<line stroke-width="1" x1="800" y1="0" x2="800" y2="1024" stroke="#449FDB" opacity="1"></line>
	<line stroke-width="1" x1="816" y1="0" x2="816" y2="1024" stroke="#449FDB" opacity="0.3"></line>
	<line stroke-width="1" x1="832" y1="0" x2="832" y2="1024" stroke="#449FDB" opacity="1"></line>
	<line stroke-width="1" x1="848" y1="0" x2="848" y2="1024" stroke="#449FDB" opacity="0.3"></line>
	<line stroke-width="1" x1="864" y1="0" x2="864" y2="1024" stroke="#449FDB" opacity="1"></line>
	<line stroke-width="1" x1="880" y1="0" x2="880" y2="1024" stroke="#449FDB" opacity="0.3"></line>
	<line stroke-width="1" x1="896" y1="0" x2="896" y2="1024" stroke="#449FDB" opacity="1"></line>
	<line stroke-width="1" x1="912" y1="0" x2="912" y2="1024" stroke="#449FDB" opacity="0.3"></line>
	<line stroke-width="1" x1="928" y1="0" x2="928" y2="1024" stroke="#449FDB" opacity="1"></line>
	<line stroke-width="1" x1="944" y1="0" x2="944" y2="1024" stroke="#449FDB" opacity="0.3"></line>
	<line stroke-width="1" x1="960" y1="0" x2="960" y2="1024" stroke="#449FDB" opacity="1"></line>
	<line stroke-width="1" x1="976" y1="0" x2="976" y2="1024" stroke="#449FDB" opacity="0.3"></line>
	<line stroke-width="1" x1="992" y1="0" x2="992" y2="1024" stroke="#449FDB" opacity="1"></line>
	<line stroke-width="1" x1="1008" y1="0" x2="1008" y2="1024" stroke="#449FDB" opacity="0.3"></line>
	<line stroke-width="1" x1="0" y1="16" x2="1024" y2="16" stroke="#449FDB" opacity="0.3"></line>
	<line stroke-width="1" x1="0" y1="32" x2="1024" y2="32" stroke="#449FDB" opacity="1"></line>
	<line stroke-width="1" x1="0" y1="48" x2="1024" y2="48" stroke="#449FDB" opacity="0.3"></line>
	<line stroke-width="1" x1="0" y1="64" x2="1024" y2="64" stroke="#449FDB" opacity="1"></line>
	<line stroke-width="1" x1="0" y1="80" x2="1024" y2="80" stroke="#449FDB" opacity="0.3"></line>
	<line stroke-width="1" x1="0" y1="96" x2="1024" y2="96" stroke="#449FDB" opacity="1"></line>
	<line stroke-width="1" x1="0" y1="112" x2="1024" y2="112" stroke="#449FDB" opacity="0.3"></line>
	<line stroke-width="1" x1="0" y1="128" x2="1024" y2="128" stroke="#449FDB" opacity="1"></line>
	<line stroke-width="1" x1="0" y1="144" x2="1024" y2="144" stroke="#449FDB" opacity="0.3"></line>
	<line stroke-width="1" x1="0" y1="160" x2="1024" y2="160" stroke="#449FDB" opacity="1"></line>
	<line stroke-width="1" x1="0" y1="176" x2="1024" y2="176" stroke="#449FDB" opacity="0.3"></line>
	<line stroke-width="1" x1="0" y1="192" x2="1024" y2="192" stroke="#449FDB" opacity="1"></line>
	<line stroke-width="1" x1="0" y1="208" x2="1024" y2="208" stroke="#449FDB" opacity="0.3"></line>
	<line stroke-width="1" x1="0" y1="224" x2="1024" y2="224" stroke="#449FDB" opacity="1"></line>
	<line stroke-width="1" x1="0" y1="240" x2="1024" y2="240" stroke="#449FDB" opacity="0.3"></line>
	<line stroke-width="1" x1="0" y1="256" x2="1024" y2="256" stroke="#449FDB" opacity="1"></line>
	<line stroke-width="1" x1="0" y1="272" x2="1024" y2="272" stroke="#449FDB" opacity="0.3"></line>
	<line stroke-width="1" x1="0" y1="288" x2="1024" y2="288" stroke="#449FDB" opacity="1"></line>
	<line stroke-width="1" x1="0" y1="304" x2="1024" y2="304" stroke="#449FDB" opacity="0.3"></line>
	<line stroke-width="1" x1="0" y1="320" x2="1024" y2="320" stroke="#449FDB" opacity="1"></line>
	<line stroke-width="1" x1="0" y1="336" x2="1024" y2="336" stroke="#449FDB" opacity="0.3"></line>
	<line stroke-width="1" x1="0" y1="352" x2="1024" y2="352" stroke="#449FDB" opacity="1"></line>
	<line stroke-width="1" x1="0" y1="368" x2="1024" y2="368" stroke="#449FDB" opacity="0.3"></line>
	<line stroke-width="1" x1="0" y1="384" x2="1024" y2="384" stroke="#449FDB" opacity="1"></line>
	<line stroke-width="1" x1="0" y1="400" x2="1024" y2="400" stroke="#449FDB" opacity="0.3"></line>
	<line stroke-width="1" x1="0" y1="416" x2="1024" y2="416" stroke="#449FDB" opacity="1"></line>
	<line stroke-width="1" x1="0" y1="432" x2="1024" y2="432" stroke="#449FDB" opacity="0.3"></line>
	<line stroke-width="1" x1="0" y1="448" x2="1024" y2="448" stroke="#449FDB" opacity="1"></line>
	<line stroke-width="1" x1="0" y1="464" x2="1024" y2="464" stroke="#449FDB" opacity="0.3"></line>
	<line stroke-width="1" x1="0" y1="480" x2="1024" y2="480" stroke="#449FDB" opacity="1"></line>
	<line stroke-width="1" x1="0" y1="496" x2="1024" y2="496" stroke="#449FDB" opacity="0.3"></line>
	<line stroke-width="1" x1="0" y1="512" x2="1024" y2="512" stroke="#449FDB" opacity="1"></line>
	<line stroke-width="1" x1="0" y1="528" x2="1024" y2="528" stroke="#449FDB" opacity="0.3"></line>
	<line stroke-width="1" x1="0" y1="544" x2="1024" y2="544" stroke="#449FDB" opacity="1"></line>
	<line stroke-width="1" x1="0" y1="560" x2="1024" y2="560" stroke="#449FDB" opacity="0.3"></line>
	<line stroke-width="1" x1="0" y1="576" x2="1024" y2="576" stroke="#449FDB" opacity="1"></line>
	<line stroke-width="1" x1="0" y1="592" x2="1024" y2="592" stroke="#449FDB" opacity="0.3"></line>
	<line stroke-width="1" x1="0" y1="608" x2="1024" y2="608" stroke="#449FDB" opacity="1"></line>
	<line stroke-width="1" x1="0" y1="624" x2="1024" y2="624" stroke="#449FDB" opacity="0.3"></line>
	<line stroke-width="1" x1="0" y1="640" x2="1024" y2="640" stroke="#449FDB" opacity="1"></line>
	<line stroke-width="1" x1="0" y1="656" x2="1024" y2="656" stroke="#449FDB" opacity="0.3"></line>
	<line stroke-width="1" x1="0" y1="672" x2="1024" y2="672" stroke="#449FDB" opacity="1"></line>
	<line stroke-width="1" x1="0" y1="688" x2="1024" y2="688" stroke="#449FDB" opacity="0.3"></line>
	<line stroke-width="1" x1="0" y1="704" x2="1024" y2="704" stroke="#449FDB" opacity="1"></line>
	<line stroke-width="1" x1="0" y1="720" x2="1024" y2="720" stroke="#449FDB" opacity="0.3"></line>
	<line stroke-width="1" x1="0" y1="736" x2="1024" y2="736" stroke="#449FDB" opacity="1"></line>
	<line stroke-width="1" x1="0" y1="752" x2="1024" y2="752" stroke="#449FDB" opacity="0.3"></line>
	<line stroke-width="1" x1="0" y1="768" x2="1024" y2="768" stroke="#449FDB" opacity="1"></line>
	<line stroke-width="1" x1="0" y1="784" x2="1024" y2="784" stroke="#449FDB" opacity="0.3"></line>
	<line stroke-width="1" x1="0" y1="800" x2="1024" y2="800" stroke="#449FDB" opacity="1"></line>
	<line stroke-width="1" x1="0" y1="816" x2="1024" y2="816" stroke="#449FDB" opacity="0.3"></line>
	<line stroke-width="1" x1="0" y1="832" x2="1024" y2="832" stroke="#449FDB" opacity="1"></line>
	<line stroke-width="1" x1="0" y1="848" x2="1024" y2="848" stroke="#449FDB" opacity="0.3"></line>
	<line stroke-width="1" x1="0" y1="864" x2="1024" y2="864" stroke="#449FDB" opacity="1"></line>
	<line stroke-width="1" x1="0" y1="880" x2="1024" y2="880" stroke="#449FDB" opacity="0.3"></line>
	<line stroke-width="1" x1="0" y1="896" x2="1024" y2="896" stroke="#449FDB" opacity="1"></line>
	<line stroke-width="1" x1="0" y1="912" x2="1024" y2="912" stroke="#449FDB" opacity="0.3"></line>
	<line stroke-width="1" x1="0" y1="928" x2="1024" y2="928" stroke="#449FDB" opacity="1"></line>
	<line stroke-width="1" x1="0" y1="944" x2="1024" y2="944" stroke="#449FDB" opacity="0.3"></line>
	<line stroke-width="1" x1="0" y1="960" x2="1024" y2="960" stroke="#449FDB" opacity="1"></line>
	<line stroke-width="1" x1="0" y1="976" x2="1024" y2="976" stroke="#449FDB" opacity="0.3"></line>
	<line stroke-width="1" x1="0" y1="992" x2="1024" y2="992" stroke="#449FDB" opacity="1"></line>
	<line stroke-width="1" x1="0" y1="1008" x2="1024" y2="1008" stroke="#449FDB" opacity="0.3"></line>
</g>
	<path d="M972.512 405.76l-98.048-19.648c-4.928-14.176-10.752-27.936-17.184-41.248l55.552-83.328c16.928-25.376 13.568-59.2-8-80.736l-61.568-61.568c-12.384-12.384-28.736-18.752-45.312-18.752-12.256 0-24.64 3.52-35.424 10.752l-83.328 55.52c-13.376-6.464-27.136-12.224-41.312-17.152l-19.648-98.080c-5.952-29.952-32.256-51.456-62.752-51.456h-87.040c-30.496 0-56.768 21.536-62.752 51.456l-19.648 98.080c-14.176 4.928-27.936 10.72-41.248 17.152l-83.296-55.52c-10.848-7.232-23.2-10.752-35.488-10.752-16.544 0-32.896 6.368-45.28 18.752l-61.536 61.568c-21.568 21.568-24.928 55.36-8 80.736l55.52 83.328c-6.464 13.344-12.224 27.104-17.152 41.28l-98.112 19.616c-29.92 5.984-51.456 32.256-51.456 62.752v87.040c0 30.496 21.536 56.8 51.456 62.752l98.080 19.68c4.928 14.176 10.72 27.936 17.152 41.248l-55.488 83.328c-16.928 25.376-13.568 59.2 8 80.736l61.568 61.568c12.384 12.384 28.736 18.752 45.28 18.752 12.288 0 24.672-3.552 35.456-10.752l83.328-55.552c13.344 6.496 27.104 12.256 41.28 17.184l19.616 98.048c5.984 29.952 32.256 51.488 62.752 51.488h87.040c30.496 0 56.8-21.568 62.752-51.488l19.68-98.048c14.176-4.928 27.936-10.752 41.248-17.184l83.328 55.552c10.816 7.2 23.2 10.752 35.424 10.752 16.576 0 32.928-6.368 45.312-18.752l61.568-61.568c21.568-21.568 24.928-55.36 8-80.736l-55.552-83.328c6.496-13.376 12.256-27.136 17.184-41.312l98.048-19.616c29.92-5.92 51.488-32.256 51.488-62.752v-87.040c0-30.496-21.568-56.768-51.488-62.752zM861.888 575.2c-22.24 4.448-40.448 20.32-47.872 41.76-4.128 11.808-8.928 23.264-14.304 34.368-9.952 20.448-8.256 44.576 4.32 63.424l55.552 83.328-61.568 61.568-83.328-55.552c-10.688-7.136-23.072-10.752-35.488-10.752-9.504 0-19.072 2.112-27.872 6.368-11.136 5.376-22.56 10.24-34.432 14.368-21.376 7.424-37.248 25.632-41.696 47.872l-19.68 98.112h-87.040l-19.616-98.112c-4.448-22.24-20.32-40.448-41.728-47.872-11.808-4.128-23.296-8.928-34.4-14.304-8.832-4.32-18.368-6.432-27.904-6.432-12.448 0-24.8 3.616-35.488 10.752l-83.328 55.552-61.568-61.568 55.52-83.328c12.576-18.88 14.208-43.008 4.384-63.36-5.376-11.136-10.208-22.56-14.336-34.432-7.424-21.376-25.664-37.248-47.872-41.696l-98.080-19.68-0.064-87.072 98.112-19.616c22.208-4.448 40.448-20.32 47.872-41.728 4.128-11.808 8.896-23.296 14.304-34.4 9.92-20.416 8.256-44.544-4.352-63.392l-55.488-83.328 61.536-61.568 83.328 55.52c10.688 7.136 23.072 10.752 35.488 10.752 9.504 0 19.040-2.112 27.872-6.368 11.104-5.376 22.56-10.208 34.4-14.336 21.408-7.424 37.28-25.664 41.728-47.872l19.648-98.080 87.040-0.032 19.616 98.112c4.448 22.208 20.32 40.448 41.76 47.872 11.808 4.128 23.264 8.896 34.368 14.304 8.864 4.288 18.368 6.4 27.936 6.4 12.448 0 24.8-3.616 35.488-10.752l83.328-55.52 61.568 61.568-55.552 83.328c-12.576 18.88-14.176 42.976-4.384 63.36 5.376 11.104 10.24 22.56 14.368 34.4 7.424 21.408 25.632 37.28 47.872 41.728l98.048 19.648 0.096 87.040-98.112 19.648zM512 288.032c-123.68 0-224 100.32-224 224 0 123.712 100.32 224 224 224s224-100.32 224-224c0-123.68-100.32-224-224-224zM512 708.064c-108.224 0-196-87.808-196-196 0-108.224 87.776-196 196-196 108.192 0 196 87.776 196 196 0 108.192-87.808 196-196 196zM512 384.032c-70.72 0-128 57.28-128 128 0 70.688 57.28 128 128 128 70.688 0 128-57.312 128-128s-57.312-128-128-128zM512 608.064c-52.992 0-96-43.008-96-96s43.008-96 96-96 96 43.008 96 96c0 52.992-43.008 96-96 96z"></path>
</svg>
