<?xml version="1.0" encoding="utf-8"?>
<!-- Generator: Adobe Illustrator 16.0.0, SVG Export Plug-In . SVG Version: 6.00 Build 0)  -->
<!DOCTYPE svg PUBLIC "-//W3C//DTD SVG 1.1//EN" "http://www.w3.org/Graphics/SVG/1.1/DTD/svg11.dtd">
<svg version="1.1" id="Layer_1" xmlns="http://www.w3.org/2000/svg" xmlns:xlink="http://www.w3.org/1999/xlink" x="0px" y="0px"
	 width="25px" height="25px" viewBox="0 0 25 25" enable-background="new 0 0 25 25" xml:space="preserve">
<g>
	<path fill="none" d="M-3737.919-4801.53h-7.903v182h208.006v-7.3l-199.97-0.381L-3737.919-4801.53z M-3633.817-4793.951
		c0-4.183-3.58-7.579-7.998-7.579h-24.007c-4.418,0-7.998,3.396-7.998,7.579v151.671h40.003V-4793.951z M-3681.818-4748.445
		c0-4.189-3.58-7.585-7.998-7.585h-24c-4.424,0-8.004,3.396-8.004,7.585v106.165h40.003V-4748.445z M-3585.829-4702.951
		c0-4.183-3.58-7.579-7.998-7.579h-23.994c-4.418,0-7.998,3.396-7.998,7.579v60.671h39.99V-4702.951z M-3545.813-4665.03h-24.007
		c-4.418,0-7.998,3.402-7.998,7.592v15.158h40.003v-15.158C-3537.815-4661.628-3541.396-4665.03-3545.813-4665.03z"/>
</g>
<g>
	<g>
		<path fill="#FFFFFF" d="M5.107,5.5H4.5v14h16v-0.562L5.118,18.909L5.107,5.5z M13.115,6.083c0-0.322-0.275-0.583-0.615-0.583
			h-1.847c-0.34,0-0.615,0.261-0.615,0.583V17.75h3.077V6.083z M9.423,9.583C9.423,9.261,9.147,9,8.808,9H6.961
			c-0.34,0-0.616,0.261-0.616,0.583v8.167h3.077V9.583z M16.807,13.083c0-0.322-0.275-0.583-0.615-0.583h-1.846
			c-0.34,0-0.615,0.261-0.615,0.583v4.667h3.076V13.083z M19.885,16h-1.847c-0.34,0-0.615,0.262-0.615,0.584v1.166H20.5v-1.166
			C20.5,16.262,20.225,16,19.885,16z"/>
	</g>
	<g>
		<path fill="none" stroke="#000000" stroke-miterlimit="10" d="M5.107,5.5H4.5v14h16v-0.562L5.118,18.909L5.107,5.5z M13.115,6.083
			c0-0.322-0.275-0.583-0.615-0.583h-1.847c-0.34,0-0.615,0.261-0.615,0.583V17.75h3.077V6.083z M9.423,9.583
			C9.423,9.261,9.147,9,8.808,9H6.961c-0.34,0-0.616,0.261-0.616,0.583v8.167h3.077V9.583z M16.807,13.083
			c0-0.322-0.275-0.583-0.615-0.583h-1.846c-0.34,0-0.615,0.261-0.615,0.583v4.667h3.076V13.083z M19.885,16h-1.847
			c-0.34,0-0.615,0.262-0.615,0.584v1.166H20.5v-1.166C20.5,16.262,20.225,16,19.885,16z"/>
	</g>
</g>
</svg>
