<?xml version="1.0" encoding="utf-8"?>
<!-- Generator: Adobe Illustrator 16.0.0, SVG Export Plug-In . SVG Version: 6.00 Build 0)  -->
<!DOCTYPE svg PUBLIC "-//W3C//DTD SVG 1.1//EN" "http://www.w3.org/Graphics/SVG/1.1/DTD/svg11.dtd">
<svg version="1.1" id="Layer_1" xmlns="http://www.w3.org/2000/svg" xmlns:xlink="http://www.w3.org/1999/xlink" x="0px" y="0px"
	 width="25px" height="25px" viewBox="0 0 25 25" enable-background="new 0 0 25 25" xml:space="preserve">
<path fill="#FFFFFF" stroke="#000000" stroke-miterlimit="10" d="M22.119,10.871c-0.18-0.609-0.609-1.283-1.367-2.061
	c-0.875-0.889-2.097-1.414-3.26-1.596c-0.02-0.003-0.038-0.005-0.057-0.007V6.148c-0.063-0.105-0.15-0.215-0.272-0.34
	c-0.138-0.14-0.256-0.236-0.37-0.301h-5.426l-8.125,8.307c-0.58,0.593-0.596,1.538-0.035,2.111l4.06,4.15
	c0.561,0.574,1.485,0.559,2.064-0.035l8.103-8.284v-0.935c0.635,0.355,1.267,0.784,1.793,1.324c0.771,0.775,1.898,0.955,2.604,0.284
	C22.196,12.064,22.303,11.47,22.119,10.871z M13.684,9.367c-0.602-0.614-0.602-1.61,0-2.224c0.6-0.614,1.574-0.614,2.175,0
	c0.52,0.532,0.589,1.349,0.208,1.957c-0.471-0.226-0.827-0.41-0.947-0.535c0.006-0.006,0.012-0.012,0.018-0.019
	c0.146-0.161,0.404-0.29,0.735-0.369c-0.063-0.309-0.185-0.609-0.364-0.88c-0.39,0.116-0.74,0.304-1.023,0.583
	c-0.169,0.172-0.313,0.397-0.318,0.681c-0.004,0.278,0.134,0.5,0.277,0.647c0.004,0.003,0.008,0.007,0.012,0.01
	c0.211,0.205,0.48,0.37,0.793,0.531C14.715,9.926,14.106,9.799,13.684,9.367z M21.179,11.762c-0.082,0.088-0.264,0.16-0.515,0.129
	c-0.246-0.03-0.537-0.161-0.782-0.413c-0.749-0.765-1.634-1.303-2.446-1.721V8.161c0.971,0.163,1.996,0.629,2.664,1.316
	c0.692,0.706,1.025,1.28,1.135,1.662C21.339,11.531,21.26,11.672,21.179,11.762z"/>
</svg>
