<?xml version="1.0" encoding="utf-8"?>
<!-- Generator: Adobe Illustrator 16.0.0, SVG Export Plug-In . SVG Version: 6.00 Build 0)  -->
<!DOCTYPE svg PUBLIC "-//W3C//DTD SVG 1.1//EN" "http://www.w3.org/Graphics/SVG/1.1/DTD/svg11.dtd">
<svg version="1.1" id="Layer_1" xmlns="http://www.w3.org/2000/svg" xmlns:xlink="http://www.w3.org/1999/xlink" x="0px" y="0px"
	 width="612px" height="792px" viewBox="0 0 612 792" enable-background="new 0 0 612 792" xml:space="preserve">
<g>
	<g>
		<path fill-rule="evenodd" clip-rule="evenodd" d="M192.878,551.778h171.624l36.782-255.876H156.096L192.878,551.778z
			 M340.846,320.277h13.212l-24.521,219.327h-13.212L340.846,320.277z M272.564,320.277h12.174v219.327h-12.174V320.277z
			 M218.265,320.277l24.513,219.327h-13.221l-24.521-219.327H218.265z M413.545,234.979h-43.094c0,0,3.025-6.589-7.661-16.376
			c-7.73-7.056-24.711-20.18-24.711-20.18H223.34c0,0-18.451,11.853-28.118,20.154c-8.284,7.108-8.665,16.403-8.665,16.403h-42.713
			c-6.779,0-24.522,17.639-24.522,24.366v24.374h318.744v-24.374C438.066,252.619,420.324,234.979,413.545,234.979z M210.69,234.979
			c0,0,1.02-4.176,4.289-7.531c2.593-2.655,10.609-4.652,10.609-4.652l108.081-0.008c0,0,6.139,1.53,9.183,4.574
			c3.078,3.043,3.078,7.617,3.078,7.617H210.69z"/>
	</g>
</g>
</svg>
