<?xml version="1.0" encoding="utf-8"?>
<!-- Generator: Adobe Illustrator 16.0.0, SVG Export Plug-In . SVG Version: 6.00 Build 0)  -->
<!DOCTYPE svg PUBLIC "-//W3C//DTD SVG 1.1//EN" "http://www.w3.org/Graphics/SVG/1.1/DTD/svg11.dtd">
<svg version="1.1" id="Layer_1" xmlns="http://www.w3.org/2000/svg" xmlns:xlink="http://www.w3.org/1999/xlink" x="0px" y="0px"
	 width="25px" height="25px" viewBox="0 0 25 25" enable-background="new 0 0 25 25" xml:space="preserve">
<path fill="#FFFFFF" stroke="#000000" stroke-miterlimit="10" d="M17.071,17.523c0,0.756-0.603,1.357-1.405,1.357h-5.403
	c-0.803,0-1.334-0.658-1.334-1.414v-5.372H7.176c0,0-1.131-0.565-0.366-1.61c0.479-0.6,5.635-4.158,5.635-4.158
	s0.385-0.566,1.079,0.04c0.46,0.401,5.516,3.878,5.516,3.878s1.029,1.058-0.102,1.85h-1.866V17.523z M13,3.5
	c-5.247,0-9.5,4.253-9.5,9.5c0,5.246,4.253,9.5,9.5,9.5c5.246,0,9.5-4.254,9.5-9.5C22.5,7.753,18.246,3.5,13,3.5z"/>
</svg>
