<?xml version="1.0" encoding="utf-8"?>
<!-- Generator: Adobe Illustrator 16.0.0, SVG Export Plug-In . SVG Version: 6.00 Build 0)  -->
<!DOCTYPE svg PUBLIC "-//W3C//DTD SVG 1.1//EN" "http://www.w3.org/Graphics/SVG/1.1/DTD/svg11.dtd">
<svg version="1.1" id="Layer_1" xmlns="http://www.w3.org/2000/svg" xmlns:xlink="http://www.w3.org/1999/xlink" x="0px" y="0px"
	 width="25px" height="25px" viewBox="0 0 25 25" enable-background="new 0 0 25 25" xml:space="preserve">
<g>
	<g>
		<path fill-rule="evenodd" clip-rule="evenodd" d="M12.5,6.5c-5,0-8.5,4.488-10,5.984c1.5,1.496,5,6.016,10,6.016
			s8.5-4.535,10-6.016C21,11.004,17.5,6.5,12.5,6.5z M5.5,12.484c0,0,6.5-9.974,14,0C12,22.459,5.5,12.484,5.5,12.484z
			 M12.469,10.053c-1.363,0-2.469,1.103-2.469,2.462s1.105,2.463,2.469,2.463s2.469-1.104,2.469-2.463S13.832,10.053,12.469,10.053z
			"/>
	</g>
</g>
</svg>
