<?xml version="1.0" encoding="utf-8"?>
<!-- Generator: Adobe Illustrator 16.0.0, SVG Export Plug-In . SVG Version: 6.00 Build 0)  -->
<!DOCTYPE svg PUBLIC "-//W3C//DTD SVG 1.1//EN" "http://www.w3.org/Graphics/SVG/1.1/DTD/svg11.dtd">
<svg version="1.1" id="Layer_1" xmlns="http://www.w3.org/2000/svg" xmlns:xlink="http://www.w3.org/1999/xlink" x="0px" y="0px"
	 width="25px" height="25px" viewBox="0 0 25 25" enable-background="new 0 0 25 25" xml:space="preserve">
<path fill="#FFFFFF" stroke="#000000" stroke-miterlimit="10" d="M18.929,16.506c0.721,0.721,0.763,1.847,0.093,2.516
	c-0.668,0.669-1.795,0.627-2.516-0.094l-3.913-3.912l-3.634,3.633c-0.669,0.67-1.795,0.627-2.516-0.093
	c-0.72-0.721-0.762-1.847-0.093-2.516l3.634-3.634L6.071,8.493C5.351,7.772,5.309,6.646,5.978,5.978S7.773,5.35,8.494,6.071
	l3.913,3.913l3.634-3.634c0.668-0.669,1.795-0.627,2.516,0.093c0.72,0.72,0.762,1.847,0.093,2.516l-3.634,3.634L18.929,16.506z"/>
</svg>
