<?xml version="1.0" encoding="utf-8"?>
<!-- Generator: Adobe Illustrator 16.0.0, SVG Export Plug-In . SVG Version: 6.00 Build 0)  -->
<!DOCTYPE svg PUBLIC "-//W3C//DTD SVG 1.1//EN" "http://www.w3.org/Graphics/SVG/1.1/DTD/svg11.dtd">
<svg version="1.1" id="Layer_1" xmlns="http://www.w3.org/2000/svg" xmlns:xlink="http://www.w3.org/1999/xlink" x="0px" y="0px"
	 width="25px" height="25px" viewBox="0 0 25 25" enable-background="new 0 0 25 25" xml:space="preserve">
<path fill="#FFFFFF" stroke="#000000" stroke-miterlimit="10" d="M7.75,16.346h2.625V13.27H7.75V16.346z M10.375,17.885H6.438
	v-1.539V13.27H3.813v7.692h6.563V17.885z M22.188,16.346V4.039H7.75v7.692h2.625h1.313v4.615H22.188z M23.5,2.5v1.539v12.307v1.539
	h-1.313h-10.5V22.5h-1.313H3.813H2.5v-1.538V13.27v-1.539h1.313h2.625V4.039V2.5h15.75H23.5z M13,13.27h1.313v1.538H13V13.27z
	 M15.625,13.27h-1.313v-1.539h1.313V13.27z M16.938,11.731h-1.313v-1.539h1.313V11.731z M18.25,10.192h-1.313V8.654h1.313V10.192z
	 M19.563,8.654H18.25V7.115h-2.625V5.577h3.938h1.313v1.538v4.616h-1.313V8.654z"/>
</svg>
