<?xml version="1.0" encoding="utf-8"?>
<!-- Generator: Adobe Illustrator 16.0.0, SVG Export Plug-In . SVG Version: 6.00 Build 0)  -->
<!DOCTYPE svg PUBLIC "-//W3C//DTD SVG 1.1//EN" "http://www.w3.org/Graphics/SVG/1.1/DTD/svg11.dtd">
<svg version="1.1" id="Layer_1" xmlns="http://www.w3.org/2000/svg" xmlns:xlink="http://www.w3.org/1999/xlink" x="0px" y="0px"
	 width="11px" height="11px" viewBox="0 0 11 11" enable-background="new 0 0 11 11" xml:space="preserve">
<g>
	<path d="M10.82,2.166c0.236-0.237,0.238-0.62,0.004-0.855L9.764,0.248C9.529,0.013,9.146,0.014,8.91,0.251L8.254,0.909l1.911,1.914
		L10.82,2.166z M5.474,7.542l4.5-4.509L8.048,1.104l-4.5,4.509L5.474,7.542z M9.1,3.037L5.477,6.666l-0.21-0.212l3.622-3.629
		L9.1,3.037z M8.677,2.614L5.055,6.243L4.844,6.032l3.623-3.63L8.677,2.614z M8.255,2.191L4.633,5.82l-0.21-0.212L8.044,1.98
		L8.255,2.191z M2.396,8.695l0.927-0.338l-0.589-0.59L2.396,8.695z M5.223,7.689L3.4,5.864l-0.568,1.6l0.793,0.795L5.223,7.689z
		 M10.96,6.055L9.913,4.991L9.934,9.91L1.204,9.915L1.211,1.19l4.885-0.021L5.004,0.077H1.188c-0.603,0-1.091,0.489-1.091,1.092
		v8.738C0.098,10.511,0.585,11,1.188,11H9.91C10.512,11,11,10.511,11,9.907L10.96,6.055z"/>
</g>
<path fill="none" d="M16.396,326.041v-9.673"/>
</svg>
