<?xml version="1.0" encoding="utf-8"?>
<!-- Generator: Adobe Illustrator 16.0.0, SVG Export Plug-In . SVG Version: 6.00 Build 0)  -->
<!DOCTYPE svg PUBLIC "-//W3C//DTD SVG 1.1//EN" "http://www.w3.org/Graphics/SVG/1.1/DTD/svg11.dtd">
<svg version="1.1" id="Layer_1" xmlns="http://www.w3.org/2000/svg" xmlns:xlink="http://www.w3.org/1999/xlink" x="0px" y="0px"
	 width="11px" height="11px" viewBox="0 0 11 11" enable-background="new 0 0 11 11" xml:space="preserve">
<path d="M4.103,8.994v-7.52h4.104v1.681v0.239h1.958v5.601L4.103,8.994L4.103,8.994z M9.42,6.382c0,0-0.033-1.36-1.41-1.36
	c-0.765,0-1.096,0.303-1.096,0.303s-0.02-0.303-1.096-0.303c-0.965,0-1.252,0-1.252,0v0.303v2.87h0.626V6.382
	c0,0-0.07-0.754,0.626-0.754c0.698,0,0.625,0.638,0.625,0.754s0,1.813,0,1.813h0.783c0,0,0-1.498,0-1.813
	c0-0.313,0.379-0.754,0.782-0.754s0.784,0.347,0.784,0.754c0,0.407,0,1.813,0,1.813H9.42V6.382z M8.445,1.474h0.23l1.488,1.408
	v0.273H8.443V1.474H8.445z M7.486,10.438H1.203V2.911H3.62v6.532h3.866V10.438z"/>
</svg>
