<?xml version="1.0" encoding="utf-8"?>
<!-- Generator: Adobe Illustrator 16.0.0, SVG Export Plug-In . SVG Version: 6.00 Build 0)  -->
<!DOCTYPE svg PUBLIC "-//W3C//DTD SVG 1.1//EN" "http://www.w3.org/Graphics/SVG/1.1/DTD/svg11.dtd">
<svg version="1.1" id="Layer_1" xmlns="http://www.w3.org/2000/svg" xmlns:xlink="http://www.w3.org/1999/xlink" x="0px" y="0px"
	 width="11px" height="11px" viewBox="0 0 11 11" enable-background="new 0 0 11 11" xml:space="preserve">
<path d="M5.486,11.027c-3.044,0-5.514-2.469-5.514-5.514C-0.027,2.469,2.442,0,5.486,0C8.532,0,11,2.469,11,5.514
	C11,8.561,8.532,11.027,5.486,11.027z M5.486,0.833c-2.585,0-4.681,2.096-4.681,4.681c0,2.585,2.096,4.681,4.681,4.681
	c2.586,0,4.682-2.096,4.682-4.681C10.168,2.929,8.072,0.833,5.486,0.833z M6.428,3.497v5.917L4.992,9.355L3.476,5.122H1.384V4.495
	h2.615l1.045,2.823V2.925H9.07v0.68L6.428,3.497z"/>
</svg>
