<?xml version="1.0" encoding="utf-8"?>
<!-- Generator: Adobe Illustrator 16.0.0, SVG Export Plug-In . SVG Version: 6.00 Build 0)  -->
<!DOCTYPE svg PUBLIC "-//W3C//DTD SVG 1.1//EN" "http://www.w3.org/Graphics/SVG/1.1/DTD/svg11.dtd">
<svg version="1.1" id="Layer_1" xmlns="http://www.w3.org/2000/svg" xmlns:xlink="http://www.w3.org/1999/xlink" x="0px" y="0px"
	 width="11px" height="11px" viewBox="0 0 11 11" enable-background="new 0 0 11 11" xml:space="preserve">
<path fill="none" d="M16.396,326.041v-9.673"/>
<g>
	<path d="M5.34,3.679c0.92,0,1.665-0.725,1.665-1.619S6.26,0.44,5.34,0.44c-0.919,0-1.665,0.725-1.665,1.619S4.421,3.679,5.34,3.679
		z M4.544,1.708h0.579V1.145h0.579v0.563h0.579V2.27H5.702v0.563H5.123V2.271H4.544V1.708z M9.035,9.802
		C8.803,9.589,8.55,9.205,7.316,9.029C6.084,8.855,6.17,8.25,6.161,8.214C6.163,8.12,6.206,7.727,6.206,7.727
		S6.604,7.41,6.792,6.893c0.298-0.181,0.411-0.205,0.46-0.414c0,0,0.134-0.785-0.186-0.785c0,0-0.366,0.021-0.323-0.163
		C6.786,5.346,6.771,5.282,6.75,5.077c-0.021-0.204,0.107-0.788-0.34-0.87C6.105,4.152,6.202,4.235,6.055,4.215
		C5.904,4.194,5.727,3.823,5.45,3.823L5.008,3.912c-0.277,0-0.035,0.082-0.184,0.103c-0.149,0.02,0.197-0.021-0.251,0.06
		C4.126,4.157,4.034,4.71,4.013,4.914S3.986,5.183,4.001,5.489c0.042,0.184-0.174,0.184-0.174,0.184
		C3.56,5.656,3.514,6.458,3.514,6.458C3.553,6.656,3.5,6.754,3.896,6.907c0.189,0.517,0.67,0.778,0.67,0.778s0.024,0.33,0.031,0.566
		c-0.04-0.02-0.069,0.604-1.303,0.777c-1.232,0.176-1.468,0.56-1.7,0.772C1.361,10.016,1.4,11,1.4,11h7.918
		C9.318,11,9.268,10.016,9.035,9.802z"/>
</g>
</svg>
