<?xml version="1.0" encoding="utf-8"?>
<!-- Generator: Adobe Illustrator 16.0.0, SVG Export Plug-In . SVG Version: 6.00 Build 0)  -->
<!DOCTYPE svg PUBLIC "-//W3C//DTD SVG 1.1//EN" "http://www.w3.org/Graphics/SVG/1.1/DTD/svg11.dtd">
<svg version="1.1" id="Layer_1" xmlns="http://www.w3.org/2000/svg" xmlns:xlink="http://www.w3.org/1999/xlink" x="0px" y="0px"
	 width="11px" height="11px" viewBox="0 0 11 11" enable-background="new 0 0 11 11" xml:space="preserve">
<path d="M8.291,11c-1.496,0-2.709-1.206-2.709-2.695c0-1.488,1.213-2.694,2.709-2.694S11,6.816,11,8.305C11,9.794,9.787,11,8.291,11
	z M8.936,7.834V6.209H7.732v1.625H6.184v1.111h1.549v1.627h1.203V8.945h1.463V7.834H8.936z M4.382,5.365
	C4.47,5.39,4.536,5.408,4.583,5.422c0.56,0.164,0.972,0.354,1.238,0.567C5.248,6.596,4.894,7.408,4.894,8.305
	c0,0.062,0.007,0.119,0.01,0.18C4.725,8.529,4.537,8.566,4.331,8.585v0.483H3.632V8.6C3.157,8.574,2.745,8.48,2.395,8.316
	C1.982,8.124,1.708,7.859,1.57,7.523l1.259-0.58c0.042,0.195,0.155,0.351,0.339,0.463C3.3,7.486,3.455,7.538,3.632,7.561v-1.17
	C3.581,6.374,3.535,6.357,3.496,6.346C2.833,6.122,2.374,5.898,2.119,5.673C1.864,5.448,1.736,5.169,1.736,4.837
	c0-0.492,0.217-0.891,0.65-1.195C2.72,3.408,3.135,3.265,3.632,3.211V2.656h0.699v0.537C4.74,3.217,5.102,3.305,5.413,3.457
	c0.37,0.182,0.64,0.438,0.81,0.77L5.02,4.76C4.954,4.572,4.842,4.43,4.681,4.332C4.58,4.271,4.462,4.231,4.331,4.209V5.35
	C4.348,5.355,4.364,5.36,4.382,5.365z M4.331,7.51c0.056-0.019,0.108-0.039,0.154-0.064c0.153-0.088,0.229-0.207,0.229-0.361
	c0-0.166-0.128-0.314-0.384-0.443L4.331,7.51L4.331,7.51z M3.632,4.255C3.581,4.272,3.533,4.294,3.49,4.319
	C3.341,4.408,3.266,4.524,3.266,4.668c0,0.143,0.123,0.279,0.366,0.411V4.255z M9.193,1.897c0-0.17-0.139-0.309-0.309-0.309H1.418
	c-0.17,0-0.308,0.139-0.308,0.309V9.15c0,0.172,0.138,0.31,0.308,0.31h3.684C5.156,9.607,5.217,9.751,5.29,9.889H1.024
	c-0.19,0-0.345-0.154-0.345-0.343V1.503c0-0.188,0.154-0.342,0.345-0.342h8.342c0.188,0,0.344,0.153,0.344,0.342v3.734
	C9.545,5.162,9.372,5.099,9.193,5.05V1.897z"/>
</svg>
