<?xml version="1.0" encoding="utf-8"?>
<!-- Generator: Adobe Illustrator 16.0.0, SVG Export Plug-In . SVG Version: 6.00 Build 0)  -->
<!DOCTYPE svg PUBLIC "-//W3C//DTD SVG 1.1//EN" "http://www.w3.org/Graphics/SVG/1.1/DTD/svg11.dtd">
<svg version="1.1" id="Layer_1" xmlns="http://www.w3.org/2000/svg" xmlns:xlink="http://www.w3.org/1999/xlink" x="0px" y="0px"
	 width="11px" height="11px" viewBox="0 0 11 11" enable-background="new 0 0 11 11" xml:space="preserve">
<path fill="none" d="M16.396,326.041v-9.673"/>
<path d="M6.534,7.387h3.054c0.102,0,0.184,0.081,0.184,0.182V7.93c0,0.1-0.082,0.18-0.184,0.18H6.534
	c-0.101,0-0.185-0.08-0.185-0.18V7.566C6.352,7.468,6.434,7.387,6.534,7.387z M6.534,6.184h3.054c0.102,0,0.184,0.08,0.184,0.181
	v0.36c0,0.101-0.082,0.182-0.184,0.182H6.534c-0.101,0-0.185-0.081-0.185-0.182V6.363C6.352,6.264,6.434,6.184,6.534,6.184z
	 M6.534,4.979h3.054c0.102,0,0.184,0.081,0.184,0.181v0.361c0,0.1-0.082,0.181-0.184,0.181H6.534c-0.101,0-0.185-0.081-0.185-0.181
	V5.159C6.352,5.06,6.434,4.979,6.534,4.979z M1.207,8.6c0-1.119,0.657-1.949,2.091-1.949c1.436,0,2.084,0.791,2.084,1.852
	c0,0.042,0.002,0.289,0,0.331H1.207V8.6z M2.153,5.25c0-0.57,0.541-1.039,1.13-1.039c0.588,0,1.16,0.529,1.16,1.099
	s-0.55,1.144-1.16,1.144C2.694,6.453,2.153,5.819,2.153,5.25z M1.537,2.811C0.688,2.811,0,3.489,0,4.325v5.159
	C0,10.32,0.688,11,1.537,11h1.394v-0.723H2.443V9.795h0.714h0.039H3.91v0.482H3.42V11h4.152v-0.723H7.084V9.795h0.713h0.039h0.713
	v0.482H8.061V11h1.396c0.848,0,1.536-0.68,1.536-1.516V4.325c0-0.836-0.688-1.514-1.536-1.514H1.537z"/>
</svg>
