<?xml version="1.0" encoding="utf-8"?>
<!-- Generator: Adobe Illustrator 16.0.0, SVG Export Plug-In . SVG Version: 6.00 Build 0)  -->
<!DOCTYPE svg PUBLIC "-//W3C//DTD SVG 1.1//EN" "http://www.w3.org/Graphics/SVG/1.1/DTD/svg11.dtd">
<svg version="1.1" id="Layer_1" xmlns="http://www.w3.org/2000/svg" xmlns:xlink="http://www.w3.org/1999/xlink" x="0px" y="0px"
	 width="11px" height="11px" viewBox="0 0 11 11" enable-background="new 0 0 11 11" xml:space="preserve">
<path fill="none" d="M16.396,326.041v-9.673"/>
<g>
	<path d="M5.458,3.378H3.395c0,0-3.395,2.439-3.395,4.83c0,2.534,3.558,2.735,3.558,2.735s1.062,0.127,1.722,0
		c0,0,3.606-0.31,3.606-2.723C8.886,5.805,5.458,3.378,5.458,3.378z M5.611,8.511c-0.084,0.124-0.197,0.228-0.34,0.31
		C5.128,8.904,4.961,8.966,4.77,9.008C4.747,9.012,4.719,9.01,4.694,9.016v0.424h-0.52V9.066c-0.007,0-0.013,0.002-0.02,0.002
		c-0.147,0-0.284-0.008-0.411-0.024C3.618,9.025,3.507,9.005,3.409,8.98C3.312,8.955,3.231,8.93,3.167,8.902
		C3.102,8.876,3.055,8.852,3.026,8.831c-0.029-0.021-0.048-0.052-0.061-0.09C2.953,8.701,2.947,8.645,2.947,8.57
		c0-0.049,0.002-0.092,0.007-0.125c0.004-0.033,0.011-0.062,0.021-0.081c0.01-0.021,0.022-0.036,0.039-0.046
		C3.032,8.311,3.05,8.307,3.073,8.307c0.03,0,0.073,0.014,0.13,0.039c0.056,0.026,0.128,0.057,0.216,0.088
		c0.089,0.032,0.193,0.062,0.315,0.088c0.122,0.025,0.264,0.039,0.425,0.039c0.104,0,0.2-0.009,0.283-0.026
		c0.084-0.019,0.155-0.045,0.213-0.079C4.714,8.42,4.758,8.379,4.789,8.329c0.031-0.05,0.046-0.104,0.046-0.167
		c0-0.07-0.025-0.131-0.078-0.182C4.703,7.932,4.635,7.886,4.55,7.848C4.466,7.809,4.369,7.771,4.262,7.736
		c-0.108-0.034-0.22-0.071-0.333-0.108c-0.116-0.04-0.227-0.084-0.334-0.133c-0.109-0.05-0.204-0.106-0.289-0.177
		C3.222,7.252,3.152,7.171,3.1,7.078C3.047,6.984,3.021,6.873,3.021,6.744c0-0.15,0.038-0.281,0.114-0.395
		C3.21,6.236,3.312,6.143,3.441,6.068c0.129-0.075,0.28-0.13,0.456-0.167c0.087-0.019,0.185-0.019,0.277-0.027V5.461h0.52V5.86
		c0.021,0.002,0.042,0.001,0.062,0.003c0.101,0.01,0.195,0.026,0.284,0.045c0.088,0.02,0.165,0.041,0.233,0.064
		c0.07,0.025,0.115,0.045,0.137,0.061c0.022,0.015,0.037,0.027,0.045,0.04C5.463,6.084,5.469,6.1,5.475,6.118
		c0.006,0.018,0.01,0.042,0.012,0.069C5.488,6.216,5.489,6.25,5.489,6.293c0,0.046-0.002,0.086-0.005,0.117
		C5.481,6.443,5.476,6.471,5.469,6.49C5.46,6.512,5.449,6.527,5.435,6.537S5.402,6.551,5.378,6.551S5.315,6.539,5.262,6.518
		C5.209,6.494,5.144,6.471,5.066,6.443C4.988,6.417,4.9,6.395,4.8,6.373C4.698,6.352,4.587,6.34,4.466,6.34
		c-0.094,0-0.177,0.01-0.247,0.025c-0.07,0.018-0.13,0.041-0.177,0.07C3.995,6.464,3.96,6.5,3.937,6.542
		C3.913,6.583,3.901,6.627,3.901,6.674c0,0.069,0.026,0.129,0.077,0.18C4.031,6.904,4.1,6.949,4.186,6.988
		c0.087,0.039,0.187,0.076,0.296,0.109c0.11,0.035,0.223,0.072,0.337,0.11C4.935,7.246,5.046,7.29,5.156,7.339
		c0.11,0.05,0.208,0.106,0.294,0.177c0.086,0.066,0.154,0.147,0.208,0.239C5.711,7.848,5.737,7.956,5.737,8.08
		C5.737,8.244,5.695,8.389,5.611,8.511z M3.395,3.188h2.079V2.62H3.395V3.188z M5.441,2.431l1.056-1.894
		c0,0-0.666,0.402-1.056,0.402S4.435,0.548,4.435,0.548S3.769,0.939,3.379,0.939c-0.39,0-1.024-0.379-1.024-0.379l1.072,1.871H5.441
		z"/>
</g>
</svg>
