<?xml version="1.0" encoding="utf-8"?>
<!-- Generator: Adobe Illustrator 16.0.0, SVG Export Plug-In . SVG Version: 6.00 Build 0)  -->
<!DOCTYPE svg PUBLIC "-//W3C//DTD SVG 1.1//EN" "http://www.w3.org/Graphics/SVG/1.1/DTD/svg11.dtd">
<svg version="1.1" id="Layer_1" xmlns="http://www.w3.org/2000/svg" xmlns:xlink="http://www.w3.org/1999/xlink" x="0px" y="0px"
	 width="11px" height="11px" viewBox="0 0 11 11" enable-background="new 0 0 11 11" xml:space="preserve">
<g>
	<path d="M5.369,3.472c-2.028,0-3.671,1.644-3.671,3.67c0,2.028,1.643,3.672,3.671,3.672c2.027,0,3.671-1.644,3.671-3.672
		C9.04,5.115,7.396,3.472,5.369,3.472z M5.369,10.382c-1.789,0-3.239-1.45-3.239-3.239c0-1.789,1.45-3.238,3.239-3.238
		s3.238,1.45,3.238,3.238C8.607,8.932,7.158,10.382,5.369,10.382z M0.728,10.048V2.879h1.227c0.448,0,0.811-0.372,0.811-0.834V0.786
		h4.188L6.881,2.607l0.816,0.569V0.528c0-0.281-0.223-0.509-0.493-0.509h-4.68l-2.543,2.617v0.236L-0.028,2.88h0.009v7.427
		c0,0.283,0.222,0.51,0.496,0.51h2.548l-0.682-0.769H0.728z M5.747,8.977c0-0.209-0.013-1.809,0-2.342
		c0.012-0.533,0-0.972-0.756-1.003C4.235,5.6,3.81,7.052,3.858,6.969c0.047-0.084,0.4-0.638,0.755-0.334
		C4.906,6.887,4.652,9.23,4.852,9.422c0.325,0.311,1.619-0.197,2.029-0.781C6.562,8.965,5.747,9.184,5.747,8.977z M5.153,5.199
		c0.238,0,0.432-0.193,0.432-0.432c0-0.237-0.194-0.431-0.432-0.431c-0.239,0-0.433,0.193-0.433,0.431
		C4.72,5.006,4.914,5.199,5.153,5.199z"/>
</g>
</svg>
