<?xml version="1.0" encoding="utf-8"?>
<!-- Generator: Adobe Illustrator 16.0.0, SVG Export Plug-In . SVG Version: 6.00 Build 0)  -->
<!DOCTYPE svg PUBLIC "-//W3C//DTD SVG 1.1//EN" "http://www.w3.org/Graphics/SVG/1.1/DTD/svg11.dtd">
<svg version="1.1" id="Layer_1" xmlns="http://www.w3.org/2000/svg" xmlns:xlink="http://www.w3.org/1999/xlink" x="0px" y="0px"
	 width="11px" height="11px" viewBox="0 0 11 11" enable-background="new 0 0 11 11" xml:space="preserve">
<path fill="none" d="M16.396,326.041v-9.673"/>
<path d="M9.77,8.707L9.301,8.732C9.193,9.083,9.006,9.398,8.761,9.66l0.273,0.531c0.063,0.11,0.062,0.252-0.05,0.315l-0.803,0.461
	c-0.111,0.064-0.217,0.026-0.279-0.084l-0.344-0.53c-0.174,0.039-0.354,0.062-0.539,0.062c-0.185,0-0.365-0.023-0.537-0.062
	l-0.351,0.53c-0.063,0.11-0.163,0.148-0.273,0.084l-0.802-0.461C4.947,10.443,4.936,10.302,5,10.191L5.28,9.66
	C5.169,9.541,5.071,9.41,4.985,9.27c0.473-0.074,0.912-0.224,1.304-0.427C6.486,9.031,6.754,9.146,7.05,9.146
	c0.613,0,1.11-0.494,1.11-1.106c0-0.31-0.126-0.587-0.329-0.787c0.125-0.301,0.194-0.622,0.194-0.956
	c0-0.342-0.073-0.671-0.205-0.978l0.082-0.125C7.965,5.084,8.07,5.046,8.182,5.11l0.803,0.461c0.109,0.064,0.113,0.206,0.05,0.315
	L8.761,6.418c0.245,0.262,0.433,0.578,0.54,0.93L9.77,7.391c0.127,0,0.23,0.062,0.23,0.188v0.923C10,8.629,9.896,8.707,9.77,8.707z
	 M7.05,8.686c-0.124,0-0.237-0.037-0.337-0.097c0.36-0.25,0.661-0.552,0.885-0.894C7.659,7.796,7.698,7.913,7.698,8.04
	C7.697,8.396,7.407,8.686,7.05,8.686z M4.633,4.278c0.112,0.03,0.198,0.054,0.256,0.072c0.787,0.23,1.345,0.498,1.677,0.804
	C6.898,5.46,7.064,5.85,7.064,6.322c0,0.635-0.275,1.139-0.828,1.513C5.802,8.129,5.244,8.307,4.568,8.368v0.614h-0.89V8.381
	C3.075,8.35,2.547,8.234,2.102,8.025c-0.525-0.244-0.875-0.58-1.051-1.004l1.604-0.736c0.054,0.247,0.197,0.441,0.432,0.587
	c0.168,0.103,0.365,0.166,0.591,0.194V5.579c-0.064-0.021-0.123-0.04-0.173-0.058C2.66,5.24,2.075,4.955,1.75,4.668
	c-0.324-0.286-0.487-0.64-0.487-1.062c0-0.625,0.276-1.131,0.828-1.518c0.424-0.297,0.954-0.479,1.587-0.547V0.836h0.891v0.687
	c0.52,0.031,0.982,0.138,1.379,0.332c0.472,0.23,0.815,0.556,1.03,0.977L5.445,3.509C5.363,3.27,5.219,3.089,5.014,2.965
	C4.886,2.888,4.736,2.838,4.568,2.809v1.449C4.591,4.264,4.61,4.271,4.633,4.278z M4.765,6.919C4.96,6.809,5.058,6.656,5.058,6.46
	c0-0.21-0.166-0.397-0.489-0.562v1.104C4.64,6.979,4.706,6.952,4.765,6.919z M3.678,2.867C3.613,2.89,3.552,2.916,3.498,2.949
	c-0.191,0.113-0.286,0.26-0.286,0.443c0,0.18,0.158,0.354,0.466,0.52V2.867z"/>
</svg>
