<?xml version="1.0" encoding="utf-8"?>
<!-- Generator: Adobe Illustrator 16.0.0, SVG Export Plug-In . SVG Version: 6.00 Build 0)  -->
<!DOCTYPE svg PUBLIC "-//W3C//DTD SVG 1.1//EN" "http://www.w3.org/Graphics/SVG/1.1/DTD/svg11.dtd">
<svg version="1.1" id="Layer_1" xmlns="http://www.w3.org/2000/svg" xmlns:xlink="http://www.w3.org/1999/xlink" x="0px" y="0px"
	 width="11px" height="11px" viewBox="0 0 11 11" enable-background="new 0 0 11 11" xml:space="preserve">
<path d="M9.734,9.8L7.352,7.195C7.346,7.188,7.336,7.184,7.328,7.177c0.367-0.646,0.479-1.436,0.238-2.203
	C7.109,3.513,5.557,2.7,4.097,3.158c-1.459,0.458-2.27,2.016-1.813,3.477C2.742,8.098,4.296,8.91,5.755,8.451
	C5.987,8.378,6.201,8.273,6.398,8.15l2.345,2.562c0.069,0.075,0.224,0.046,0.347-0.065l0.551-0.508
	C9.764,10.027,9.807,9.875,9.734,9.8z M2.999,6.41C2.665,5.345,3.258,4.207,4.321,3.874C5.384,3.54,6.52,4.134,6.854,5.199
	C7.188,6.264,6.594,7.4,5.53,7.736C4.467,8.07,3.331,7.477,2.999,6.41z M3.96,4.988c1.083-0.341,2.238,0.264,2.577,1.349
	l0.025,0.091c0.137-0.354,0.16-0.753,0.037-1.14C6.314,4.374,5.344,3.866,4.433,4.152c-0.583,0.183-1,0.649-1.149,1.199
	C3.479,5.193,3.706,5.067,3.96,4.988z M7.354,10.044H1.766V2.962h1.247c0.454,0,0.823-0.369,0.823-0.825V0.894h4.251v6.252
	L8.1,7.135l0.744,0.813v-7.31c0-0.278-0.225-0.503-0.503-0.503h-4.75L1.009,2.72v0.233L1,2.962h0.009v7.337
	c0,0.278,0.225,0.504,0.502,0.504h6.535L7.354,10.044z"/>
</svg>
