<?xml version="1.0" encoding="utf-8"?>
<!-- Generator: Adobe Illustrator 16.0.0, SVG Export Plug-In . SVG Version: 6.00 Build 0)  -->
<!DOCTYPE svg PUBLIC "-//W3C//DTD SVG 1.1//EN" "http://www.w3.org/Graphics/SVG/1.1/DTD/svg11.dtd">
<svg version="1.1" id="Layer_1" xmlns="http://www.w3.org/2000/svg" xmlns:xlink="http://www.w3.org/1999/xlink" x="0px" y="0px"
	 width="11px" height="11px" viewBox="0 0 11 11" enable-background="new 0 0 11 11" xml:space="preserve">
<g>
	<path d="M2.876,5.243h0.44V4.8h-0.44V5.243z M2.876,3.914h0.44V3.472h-0.44V3.914z M2.876,6.572h0.44V6.129h-0.44V6.572z
		 M2.876,9.229h0.44V8.787h-0.44V9.229z M2.876,7.9h0.44V7.457h-0.44V7.9z M7.251,0.371H1.115V11h7.924V2.143L7.251,0.371z
		 M8.158,10.088H1.995V1.257h4.401v1.301h1.762V10.088z M3.756,3.914h3.521V3.472H3.756V3.914z M3.756,5.243h3.521V4.8H3.756V5.243z
		 M3.756,6.572h3.521V6.129H3.756V6.572z M3.756,7.9h3.521V7.457H3.756V7.9z M3.756,9.229h3.521V8.787H3.756V9.229z"/>
</g>
</svg>
