<?xml version="1.0" encoding="utf-8"?>
<!-- Generator: Adobe Illustrator 16.0.0, SVG Export Plug-In . SVG Version: 6.00 Build 0)  -->
<!DOCTYPE svg PUBLIC "-//W3C//DTD SVG 1.1//EN" "http://www.w3.org/Graphics/SVG/1.1/DTD/svg11.dtd">
<svg version="1.1" id="Layer_1" xmlns="http://www.w3.org/2000/svg" xmlns:xlink="http://www.w3.org/1999/xlink" x="0px" y="0px"
	 width="11px" height="11px" viewBox="0 0 11 11" enable-background="new 0 0 11 11" xml:space="preserve">
<g>
	<path d="M3.887,4.434L1.943,7.499h7.663L7.627,4.434H3.887z M3.96,9.249H7.48V8.812H3.96V9.249z M8.186,3.56h-4.84L0.44,7.938
		v2.188C0.44,10.607,0.834,11,1.32,11h8.8c0.485,0,0.88-0.393,0.88-0.875V7.938L8.186,3.56z M8.564,7.945L7.662,9.698L3.884,9.689
		L2.915,7.941l-1.798-0.01l2.492-3.929H7.92l2.464,3.929L8.564,7.945z M3.521,8.374H7.92V7.938H3.521V8.374z"/>
</g>
</svg>
