<?xml version="1.0" encoding="utf-8"?>
<!-- Generator: Adobe Illustrator 16.0.0, SVG Export Plug-In . SVG Version: 6.00 Build 0)  -->
<!DOCTYPE svg PUBLIC "-//W3C//DTD SVG 1.1//EN" "http://www.w3.org/Graphics/SVG/1.1/DTD/svg11.dtd">
<svg version="1.1" id="Layer_1" xmlns="http://www.w3.org/2000/svg" xmlns:xlink="http://www.w3.org/1999/xlink" x="0px" y="0px"
	 width="11px" height="11px" viewBox="0 0 11 11" enable-background="new 0 0 11 11" xml:space="preserve">
<path d="M5.473,11C2.451,11,0,8.544,0,5.515c0-3.029,2.451-5.484,5.473-5.484c3.024,0,5.475,2.456,5.475,5.484
	C10.948,8.543,8.497,11,5.473,11z M8.527,3.593L7.984,3.047c-0.102-0.101-0.264-0.101-0.362,0L4.356,6.318L2.803,4.751
	c-0.101-0.1-0.263-0.1-0.364,0L1.895,5.297c-0.1,0.1-0.1,0.263,0,0.364l1.728,1.743c0.002,0.002,0.002,0.006,0.005,0.01l0.374,0.373
	l0.09,0.091V7.877l0.081,0.082c0.1,0.102,0.262,0.102,0.363,0l3.993-4.002C8.63,3.856,8.63,3.694,8.527,3.593z"/>
<path fill="none" d="M16.396,326.041v-9.673"/>
</svg>
