<?xml version="1.0" encoding="utf-8"?>
<!-- Generator: Adobe Illustrator 16.0.0, SVG Export Plug-In . SVG Version: 6.00 Build 0)  -->
<!DOCTYPE svg PUBLIC "-//W3C//DTD SVG 1.1//EN" "http://www.w3.org/Graphics/SVG/1.1/DTD/svg11.dtd">
<svg version="1.1" id="Layer_1" xmlns="http://www.w3.org/2000/svg" xmlns:xlink="http://www.w3.org/1999/xlink" x="0px" y="0px"
	 width="11px" height="11px" viewBox="0 0 11 11" enable-background="new 0 0 11 11" xml:space="preserve">
<g>
	<path d="M5.508,0C2.466,0,0,2.466,0,5.508c0,3.041,2.466,5.508,5.508,5.508s5.508-2.467,5.508-5.508C11.018,2.466,8.551,0,5.508,0z
		 M5.279,10.327c-2.535,0-4.611-2.285-4.611-4.819c0-2.535,2.306-4.841,4.841-4.841c2.535,0,4.82,2.306,4.82,4.841
		C10.328,8.042,7.812,10.327,5.279,10.327z M6.195,2.753H4.819V4.13h1.376V2.753z M6.195,4.819H4.131v0.689h0.688v2.064H4.131v0.688
		h2.754V7.572H6.195V4.819z"/>
</g>
</svg>
