<?xml version="1.0" encoding="utf-8"?>
<!-- Generator: Adobe Illustrator 16.0.0, SVG Export Plug-In . SVG Version: 6.00 Build 0)  -->
<!DOCTYPE svg PUBLIC "-//W3C//DTD SVG 1.1//EN" "http://www.w3.org/Graphics/SVG/1.1/DTD/svg11.dtd">
<svg version="1.1" id="Layer_1" xmlns="http://www.w3.org/2000/svg" xmlns:xlink="http://www.w3.org/1999/xlink" x="0px" y="0px"
	 width="11px" height="11px" viewBox="0 0 11 11" enable-background="new 0 0 11 11" xml:space="preserve">
<path d="M7.438,11c-1.706,0-3.088-1.385-3.088-3.091c0-1.709,1.383-3.092,3.088-3.092c1.705,0,3.09,1.383,3.09,3.092
	C10.525,9.615,9.143,11,7.438,11z M7.438,5.504c-1.326,0-2.402,1.076-2.402,2.405c0,1.327,1.076,2.403,2.402,2.403
	S9.84,9.236,9.84,7.909C9.84,6.58,8.764,5.504,7.438,5.504z M8.938,8.124H8.695c-0.043,0.17-0.133,0.341-0.254,0.495l0.175,0.175
	l0.147,0.147L8.469,9.236L8.322,9.089L8.146,8.914C7.993,9.035,7.82,9.125,7.65,9.169v0.026v0.431H7.223V9.195V9.169
	C7.052,9.125,6.881,9.034,6.729,8.913L6.699,8.941L6.404,9.236L6.109,8.941l0.295-0.295l0.029-0.028
	C6.312,8.464,6.223,8.294,6.178,8.124H5.72V7.693h0.458c0.045-0.17,0.135-0.342,0.256-0.494L6.109,6.875L6.404,6.58l0.324,0.322
	C6.88,6.783,7.051,6.691,7.223,6.646V6.62V6.191H7.65V6.62v0.026c0.17,0.045,0.342,0.137,0.494,0.256l0.028-0.027L8.469,6.58
	l0.295,0.295L8.469,7.17L8.441,7.199c0.119,0.152,0.211,0.324,0.254,0.494h0.242h0.215v0.431H8.938z M7.866,7.747L7.598,7.479H7.275
	L7.008,7.747v0.321l0.27,0.27h0.32l0.27-0.27L7.866,7.747L7.866,7.747z M1.173,5.818h1.173v1.174H1.173V5.818z M2.346,8.753H1.173
	V7.579h1.173V8.753z M2.932,5.818h1.173v1.073C4.093,6.925,4.078,6.958,4.068,6.992H2.932V5.818z M2.932,8.753V7.579h1.004
	c-0.027,0.183-0.045,0.368-0.045,0.56c0,0.07,0.006,0.143,0.01,0.213c-0.007,0.08-0.01,0.162-0.01,0.244
	c0,0.055,0.005,0.104,0.007,0.157H2.932z M0.586,5.231v4.05c0,0.031,0.022,0.059,0.049,0.059h3.349
	c0.033,0.131,0.072,0.258,0.121,0.381v0.205h-3.47C0.285,9.926,0,9.637,0,9.281V4.117C0,3.76,0.285,3.472,0.635,3.472h0.244v0.294
	c0,0.322,0.263,0.586,0.586,0.586c0.323,0,0.586-0.264,0.586-0.586V3.472H5.57v0.294c0,0.322,0.262,0.586,0.586,0.586
	c0.322,0,0.586-0.264,0.586-0.586V3.472h0.244c0.353,0,0.636,0.288,0.636,0.646V4.36c-0.899,0.011-1.727,0.335-2.37,0.871H0.586z
	 M6.157,4.059c-0.162,0-0.294-0.131-0.294-0.293V2.591c0-0.162,0.132-0.293,0.294-0.293c0.161,0,0.293,0.131,0.293,0.293v1.175
	C6.45,3.928,6.318,4.059,6.157,4.059z M1.466,4.059c-0.162,0-0.293-0.131-0.293-0.293V2.591c0-0.162,0.131-0.293,0.293-0.293
	c0.162,0,0.293,0.131,0.293,0.293v1.175C1.759,3.928,1.628,4.059,1.466,4.059z"/>
</svg>
