<?xml version="1.0" encoding="utf-8"?>
<!-- Generator: Adobe Illustrator 16.0.0, SVG Export Plug-In . SVG Version: 6.00 Build 0)  -->
<!DOCTYPE svg PUBLIC "-//W3C//DTD SVG 1.1//EN" "http://www.w3.org/Graphics/SVG/1.1/DTD/svg11.dtd">
<svg version="1.1" id="Layer_1" xmlns="http://www.w3.org/2000/svg" xmlns:xlink="http://www.w3.org/1999/xlink" x="0px" y="0px"
	 width="11px" height="11px" viewBox="0 0 11 11" enable-background="new 0 0 11 11" xml:space="preserve">
<path d="M7.77,11c-1.786,0-3.232-1.448-3.232-3.234c0-1.787,1.447-3.233,3.232-3.233c1.783,0,3.23,1.447,3.23,3.233
	C11,9.552,9.553,11,7.77,11z M7.77,5.25c-1.39,0-2.515,1.126-2.515,2.516c0,1.391,1.125,2.517,2.515,2.517
	c1.389,0,2.513-1.126,2.513-2.517C10.282,6.376,9.157,5.25,7.77,5.25z M8.781,7.048L7.842,7.975l0.012,0.014
	C7.949,8.081,7.941,8.239,7.841,8.34L6.927,9.243C6.824,9.344,6.663,9.35,6.568,9.255L6.359,9.05
	C6.266,8.956,6.27,8.798,6.372,8.697l0.915-0.903C7.391,7.693,7.55,7.688,7.646,7.782l0.011,0.011l0.938-0.927l-0.043-0.14
	L9.141,6.33l0.185,0.182L8.923,7.09L8.781,7.048z M7.641,7.443L7.604,7.406c-0.095,0.094-0.246,0.094-0.34,0L6.742,7.921
	C6.566,7.896,6.396,7.816,6.256,7.688C5.973,7.421,5.899,7.02,6.05,6.693l0.505,0.49c0.06,0.057,0.151,0.058,0.207,0.002
	l0.202-0.199C7.02,6.932,7.02,6.84,6.961,6.782L6.464,6.283c0.331-0.148,0.737-0.075,1.007,0.203
	c0.223,0.231,0.295,0.549,0.219,0.83L7.73,7.357L7.641,7.443z M8.232,8.029L8.193,7.991l0.082-0.08l0.75,0.76
	c0.115,0.116,0.108,0.306-0.012,0.425L8.896,9.209C8.777,9.33,8.584,9.336,8.469,9.225L7.908,8.686l0.324-0.321
	C8.139,8.271,8.139,8.122,8.232,8.029z M1.216,5.579h1.227v1.228H1.216V5.579z M2.442,8.648H1.216V7.421h1.227L2.442,8.648
	L2.442,8.648z M3.055,5.579h1.227v1.122C4.27,6.736,4.254,6.771,4.243,6.807H3.055V5.579z M3.055,8.648V7.421h1.051
	c-0.029,0.19-0.048,0.386-0.048,0.584c0,0.076,0.007,0.149,0.011,0.224c-0.007,0.084-0.011,0.17-0.011,0.256
	c0,0.057,0.006,0.108,0.008,0.166H3.055V8.648z M0.602,4.965v4.236c0,0.033,0.023,0.062,0.051,0.062h3.503
	C4.189,9.4,4.232,9.532,4.282,9.662v0.215H0.653c-0.367,0-0.665-0.303-0.665-0.676V3.798c0-0.373,0.298-0.674,0.665-0.674h0.256
	v0.307c0,0.338,0.275,0.614,0.613,0.614c0.339,0,0.613-0.276,0.613-0.614V3.124h3.682v0.307c0,0.338,0.274,0.614,0.613,0.614
	c0.34,0,0.613-0.276,0.613-0.614V3.124h0.256c0.367,0,0.664,0.302,0.664,0.674v0.256c-0.941,0.011-1.806,0.351-2.48,0.911H0.602z
	 M6.43,3.738c-0.17,0-0.308-0.138-0.308-0.307V2.203c0-0.169,0.138-0.307,0.308-0.307s0.307,0.138,0.307,0.307v1.228
	C6.734,3.6,6.6,3.738,6.43,3.738z M1.522,3.738c-0.169,0-0.306-0.138-0.306-0.307V2.203c0-0.169,0.137-0.307,0.306-0.307
	s0.307,0.138,0.307,0.307v1.228C1.829,3.6,1.691,3.738,1.522,3.738z"/>
</svg>
