<?xml version="1.0" encoding="utf-8"?>
<!-- Generator: Adobe Illustrator 16.0.0, SVG Export Plug-In . SVG Version: 6.00 Build 0)  -->
<!DOCTYPE svg PUBLIC "-//W3C//DTD SVG 1.1//EN" "http://www.w3.org/Graphics/SVG/1.1/DTD/svg11.dtd">
<svg version="1.1" id="Layer_1" xmlns="http://www.w3.org/2000/svg" xmlns:xlink="http://www.w3.org/1999/xlink" x="0px" y="0px"
	 width="11px" height="11px" viewBox="0 0 11 11" enable-background="new 0 0 11 11" xml:space="preserve">
<g>
	<path d="M3.714,4.285l1.551,0.431l0.104-0.402L3.817,3.883L3.714,4.285z M3.554,8.119c-0.321-0.09-0.651,0.107-0.738,0.441
		C2.729,8.893,2.921,9.236,3.242,9.326C3.563,9.414,3.894,9.217,3.98,8.884S3.875,8.208,3.554,8.119z M5.785,2.707L4.233,2.275
		L4.129,2.677l1.552,0.431L5.785,2.707z M7.264,7.702c-0.912,0-1.649,0.737-1.649,1.647C5.613,10.262,6.352,11,7.264,11
		c0.909,0,1.646-0.738,1.646-1.648C8.91,8.439,8.173,7.702,7.264,7.702z M7.249,10.688c-0.735,0-1.332-0.598-1.332-1.332
		s0.597-1.332,1.332-1.332s1.33,0.598,1.33,1.332S7.984,10.688,7.249,10.688z M6.693,0.803L4.365,0.157
		C4.151,0.097,3.93,0.229,3.873,0.451L1.482,9.698c-0.057,0.222,0.07,0.45,0.284,0.51l2.327,0.646
		c0.214,0.061,0.435-0.071,0.492-0.293l2.392-9.249C7.033,1.091,6.907,0.863,6.693,0.803z M4.568,9.021
		c-0.172,0.666-0.832,1.061-1.475,0.883C2.45,9.725,2.068,9.04,2.241,8.374C2.413,7.707,3.074,7.312,3.717,7.49
		C4.359,7.67,4.74,8.354,4.568,9.021z M5.029,7.236L2.702,6.59L3.95,1.765l2.327,0.646L5.029,7.236z M5.474,3.912L5.577,3.51
		L4.025,3.08L3.921,3.481L5.474,3.912z M7.634,9.432H7.256V8.794c0-0.069-0.057-0.126-0.125-0.126c-0.07,0-0.127,0.057-0.127,0.126
		v0.765c0,0.067,0.057,0.125,0.127,0.125h0.503c0.068,0,0.125-0.058,0.125-0.125C7.759,9.488,7.702,9.432,7.634,9.432z"/>
</g>
</svg>
