<?xml version="1.0" encoding="utf-8"?>
<!-- Generator: Adobe Illustrator 16.0.0, SVG Export Plug-In . SVG Version: 6.00 Build 0)  -->
<!DOCTYPE svg PUBLIC "-//W3C//DTD SVG 1.1//EN" "http://www.w3.org/Graphics/SVG/1.1/DTD/svg11.dtd">
<svg version="1.1" id="Layer_1" xmlns="http://www.w3.org/2000/svg" xmlns:xlink="http://www.w3.org/1999/xlink" x="0px" y="0px"
	 width="11px" height="11px" viewBox="0 0 11 11" enable-background="new 0 0 11 11" xml:space="preserve">
<path d="M10.152,9.956l-2.45-2.685C7.695,7.268,7.688,7.261,7.68,7.255c0.379-0.666,0.492-1.48,0.245-2.269
	C7.454,3.479,5.858,2.642,4.359,3.114C2.86,3.586,2.025,5.19,2.495,6.695C2.966,8.202,4.562,9.04,6.062,8.568
	C6.3,8.492,6.521,8.384,6.723,8.258l2.409,2.639c0.071,0.076,0.229,0.047,0.357-0.067l0.565-0.522
	C10.182,10.191,10.225,10.036,10.152,9.956z M3.229,6.466c-0.343-1.098,0.267-2.271,1.36-2.615C5.681,3.507,6.85,4.119,7.191,5.217
	S6.923,7.488,5.832,7.83C4.739,8.175,3.572,7.562,3.229,6.466z M4.218,5c1.114-0.351,2.3,0.271,2.649,1.391l0.025,0.092
	c0.14-0.362,0.162-0.774,0.039-1.174C6.637,4.367,5.64,3.844,4.704,4.139c-0.6,0.189-1.028,0.668-1.182,1.235
	C3.723,5.211,3.956,5.082,4.218,5z M7.705,10.209H1.962V2.912h1.281c0.467,0,0.846-0.38,0.846-0.849V0.781h4.37v6.441L8.473,7.21
	l0.764,0.84V0.519C9.234,0.232,9.005,0,8.721,0H3.838L1.185,2.663v0.239l-0.01,0.01h0.01v7.559c0,0.286,0.231,0.521,0.516,0.521
	h6.715L7.705,10.209z"/>
</svg>
