<?xml version="1.0" encoding="utf-8"?>
<!-- Generator: Adobe Illustrator 16.0.0, SVG Export Plug-In . SVG Version: 6.00 Build 0)  -->
<!DOCTYPE svg PUBLIC "-//W3C//DTD SVG 1.1//EN" "http://www.w3.org/Graphics/SVG/1.1/DTD/svg11.dtd">
<svg version="1.1" id="Layer_1" xmlns="http://www.w3.org/2000/svg" xmlns:xlink="http://www.w3.org/1999/xlink" x="0px" y="0px"
	 width="11px" height="11px" viewBox="0 0 11 11" enable-background="new 0 0 11 11" xml:space="preserve">
<path d="M10.311,2.013L9.279,6.004l0.373-2.958L7.464,2.438l-0.31,1.07h1.244L7.633,3.295L7.73,2.917l1.459,0.405L9.143,3.508h0.017
	v2.965L9.031,6.964H6.296L6.291,6.977l2.74-0.012L8.062,10.71C8.007,10.919,7.8,11.042,7.6,10.986L5.41,10.378
	c-0.202-0.056-0.321-0.271-0.268-0.479l0.113-0.4C5.211,9.532,5.158,9.557,5.098,9.557h-1.61c-0.148,0-0.269-0.121-0.269-0.271
	v-2.97H0.268C0.12,6.316,0,6.195,0,6.046v-1.62c0-0.149,0.12-0.27,0.269-0.27H3.22v-2.97c0-0.149,0.12-0.27,0.269-0.27h1.61
	c0.148,0,0.268,0.121,0.268,0.27v2.97h2.951c0.147,0,0.27,0.121,0.27,0.27v1.62c0,0.149-0.121,0.271-0.27,0.271H5.366v2.793
	l0.69-2.452l2.814,0.02v-2.88H6.868l0.524-2.594c0.053-0.209,0.26-0.333,0.463-0.277l2.188,0.608
	C10.246,1.589,10.365,1.804,10.311,2.013z M5.856,8.652c-0.162,0.627,0.197,1.271,0.802,1.439c0.604,0.167,1.226-0.203,1.388-0.831
	C8.208,8.635,7.85,7.99,7.244,7.822C6.641,7.654,6.02,8.027,5.856,8.652z M7.492,9.133C7.412,9.445,7.1,9.632,6.799,9.548
	c-0.303-0.084-0.482-0.405-0.4-0.719C6.479,8.516,6.79,8.33,7.092,8.414C7.395,8.498,7.573,8.818,7.492,9.133z"/>
</svg>
