<?xml version="1.0" encoding="utf-8"?>
<!-- Generator: Adobe Illustrator 16.0.0, SVG Export Plug-In . SVG Version: 6.00 Build 0)  -->
<!DOCTYPE svg PUBLIC "-//W3C//DTD SVG 1.1//EN" "http://www.w3.org/Graphics/SVG/1.1/DTD/svg11.dtd">
<svg version="1.1" id="Layer_1" xmlns="http://www.w3.org/2000/svg" xmlns:xlink="http://www.w3.org/1999/xlink" x="0px" y="0px"
	 width="11px" height="11px" viewBox="0 0 11 11" enable-background="new 0 0 11 11" xml:space="preserve">
<path d="M8.053,11c-1.629,0-2.95-1.32-2.95-2.951c0-1.63,1.321-2.951,2.95-2.951C9.68,5.098,11,6.419,11,8.049
	C11,9.68,9.68,11,8.053,11z M8.053,5.754c-1.268,0-2.294,1.027-2.294,2.295s1.027,2.297,2.294,2.297
	c1.266,0,2.293-1.029,2.293-2.297S9.318,5.754,8.053,5.754z M9.385,8.163c0.076,0.079,0.113,0.175,0.113,0.288
	c0,0.171-0.062,0.308-0.189,0.406c-0.125,0.101-0.297,0.15-0.52,0.15c-0.189,0-0.344-0.031-0.461-0.093V8.562
	c0.123,0.09,0.266,0.136,0.43,0.136c0.104,0,0.184-0.021,0.242-0.066c0.057-0.044,0.086-0.106,0.086-0.187
	c0-0.081-0.035-0.146-0.107-0.188c-0.07-0.045-0.17-0.067-0.293-0.067H8.52V7.88h0.152c0.238,0,0.359-0.079,0.359-0.237
	c0-0.149-0.094-0.225-0.275-0.225c-0.123,0-0.242,0.039-0.359,0.118v-0.33c0.129-0.063,0.279-0.097,0.451-0.097
	c0.188,0,0.334,0.041,0.438,0.125C9.391,7.32,9.443,7.43,9.443,7.564c0,0.24-0.123,0.391-0.365,0.451v0.006
	C9.207,8.038,9.311,8.085,9.385,8.163z M7.234,8.633v0.008H7.98v0.336H6.771V8.661l0.524-0.504c0.106-0.103,0.183-0.187,0.226-0.255
	S7.585,7.76,7.585,7.684c0-0.168-0.092-0.252-0.272-0.252c-0.158,0-0.31,0.062-0.453,0.188V7.264C7.02,7.16,7.199,7.109,7.4,7.109
	c0.188,0,0.334,0.047,0.438,0.141c0.104,0.096,0.158,0.223,0.158,0.383c0,0.215-0.129,0.436-0.388,0.664L7.234,8.633z M2.073,6.055
	h1.119v1.12H2.073V6.055z M3.192,8.854H2.073V7.734h1.119V8.854z M3.751,6.055h1.12v1.023C4.86,7.109,4.846,7.143,4.836,7.175H3.751
	V6.055z M3.751,8.854V7.734H4.71C4.684,7.909,4.666,8.086,4.666,8.268c0,0.068,0.007,0.137,0.01,0.205
	c-0.006,0.075-0.01,0.153-0.01,0.231c0,0.051,0.005,0.101,0.008,0.149H3.751z M1.513,5.494v3.865c0,0.029,0.021,0.056,0.047,0.056
	h3.196C4.787,9.54,4.825,9.662,4.871,9.779v0.195H1.56c-0.335,0-0.606-0.276-0.606-0.615V4.43c0-0.34,0.271-0.616,0.606-0.616h0.233
	v0.28c0,0.309,0.25,0.561,0.559,0.561s0.56-0.252,0.56-0.561v-0.28H6.27v0.28c0,0.309,0.252,0.561,0.562,0.561
	s0.562-0.252,0.562-0.561v-0.28h0.231c0.336,0,0.604,0.276,0.604,0.616v0.233C7.37,4.673,6.583,4.982,5.968,5.494H1.513z
	 M6.83,4.374c-0.154,0-0.279-0.125-0.279-0.28v-1.12c0-0.155,0.125-0.28,0.279-0.28s0.279,0.125,0.279,0.28v1.12
	C7.109,4.249,6.984,4.374,6.83,4.374z M2.352,4.374c-0.154,0-0.279-0.125-0.279-0.28v-1.12c0-0.155,0.125-0.28,0.279-0.28
	c0.155,0,0.28,0.125,0.28,0.28v1.12C2.632,4.249,2.507,4.374,2.352,4.374z"/>
</svg>
