<?xml version="1.0" encoding="utf-8"?>
<!-- Generator: Adobe Illustrator 16.0.0, SVG Export Plug-In . SVG Version: 6.00 Build 0)  -->
<!DOCTYPE svg PUBLIC "-//W3C//DTD SVG 1.1//EN" "http://www.w3.org/Graphics/SVG/1.1/DTD/svg11.dtd">
<svg version="1.1" id="Layer_1" xmlns="http://www.w3.org/2000/svg" xmlns:xlink="http://www.w3.org/1999/xlink" x="0px" y="0px"
	 width="11px" height="11px" viewBox="0 0 11 11" enable-background="new 0 0 11 11" xml:space="preserve">
<path d="M7.739,11c-1.8,0-3.26-1.494-3.26-3.338c0-1.844,1.46-3.338,3.26-3.338C9.54,4.324,11,5.818,11,7.662
	C11,9.506,9.54,11,7.739,11z M7.739,5.094c-1.386,0-2.508,1.15-2.508,2.568s1.123,2.566,2.508,2.566s2.509-1.148,2.509-2.566
	S9.125,5.094,7.739,5.094z M8.74,7.919H7.986v0.771c0,0.143-0.111,0.256-0.25,0.256s-0.25-0.113-0.25-0.256V7.919H6.732
	c-0.139,0-0.25-0.114-0.25-0.257s0.111-0.258,0.25-0.258h0.754v-0.77c0-0.142,0.111-0.257,0.25-0.257s0.25,0.115,0.25,0.257v0.771
	H8.74c0.138,0,0.25,0.115,0.25,0.257S8.878,7.919,8.74,7.919z M7.736,2.004h0.746v0.511H7.736V2.004z M7.736,1.246h0.746v0.51H7.736
	V1.246z M7.736,0.483h0.746v0.511H7.736V0.483z M3.473,7.275c0,0.711,0.197,1.369,0.533,1.934H0.463V8.688h0.501v-0.52H0.463V7.661
	h0.501V7.148H0.463V6.634h0.501V6.122H0.463V5.607h0.501V5.096H0.463V4.58h0.501V4.077H0.463V3.554h0.501V3.042H0.463V2.526h0.501
	V2.023H0.463V1.5h0.501V0.987H0.463V0.48h7.023v3.094c-0.125-0.013-0.25-0.02-0.377-0.02C5.101,3.554,3.473,5.221,3.473,7.275z
	 M-0.038,8.688v-0.52h0.501v0.521h-0.501V8.688z M-0.038,7.661V7.148h0.501v0.513H-0.038z M-0.038,6.634V6.122h0.501v0.512H-0.038z
	 M-0.038,5.607V5.096h0.501v0.512L-0.038,5.607L-0.038,5.607z M-0.038,4.58V4.077h0.501V4.58H-0.038z M-0.038,3.554V3.042h0.501
	v0.512H-0.038z M-0.038,2.526V2.023h0.501v0.503H-0.038z M-0.038,1.5V0.987h0.501V1.5H-0.038z"/>
</svg>
