<?xml version="1.0" encoding="utf-8"?>
<!-- Generator: Adobe Illustrator 16.0.0, SVG Export Plug-In . SVG Version: 6.00 Build 0)  -->
<!DOCTYPE svg PUBLIC "-//W3C//DTD SVG 1.1//EN" "http://www.w3.org/Graphics/SVG/1.1/DTD/svg11.dtd">
<svg version="1.1" id="Layer_1" xmlns="http://www.w3.org/2000/svg" xmlns:xlink="http://www.w3.org/1999/xlink" x="0px" y="0px"
	 width="11px" height="11px" viewBox="0 0 11 11" enable-background="new 0 0 11 11" xml:space="preserve">
<path d="M9.564,11c-0.754,0-1.365-0.624-1.365-1.393c0-0.232,0.062-0.451,0.162-0.646L5.683,5.778
	C5.442,5.994,5.13,6.129,4.785,6.129c-0.252,0-0.486-0.074-0.689-0.197L2.543,7.514c0.12,0.207,0.193,0.445,0.193,0.703
	c0,0.768-0.611,1.393-1.366,1.393c-0.754,0-1.366-0.625-1.366-1.393c0-0.77,0.612-1.393,1.366-1.393c0.252,0,0.487,0.074,0.69,0.197
	L3.612,5.44C3.493,5.233,3.419,4.995,3.419,4.737c0-0.769,0.611-1.392,1.365-1.392c0.754,0,1.366,0.623,1.366,1.392
	c0,0.154-0.03,0.3-0.076,0.438l2.748,3.267C9.035,8.301,9.29,8.217,9.564,8.217c0.754,0,1.365,0.623,1.365,1.393
	C10.93,10.376,10.318,11,9.564,11z"/>
</svg>
