<?xml version="1.0" encoding="utf-8"?>
<!-- Generator: Adobe Illustrator 16.0.0, SVG Export Plug-In . SVG Version: 6.00 Build 0)  -->
<!DOCTYPE svg PUBLIC "-//W3C//DTD SVG 1.1//EN" "http://www.w3.org/Graphics/SVG/1.1/DTD/svg11.dtd">
<svg version="1.1" id="Layer_1" xmlns="http://www.w3.org/2000/svg" xmlns:xlink="http://www.w3.org/1999/xlink" x="0px" y="0px"
	 width="11px" height="11px" viewBox="0 0 11 11" enable-background="new 0 0 11 11" xml:space="preserve">
<path d="M10.477,3.351L7.934,3.819l-1.291,4.31C6.498,8.044,6.342,7.982,6.178,7.95l1.305-4.359h0.002l0.082-0.295l2.818-0.521
	c0.145-0.027,0.28,0.079,0.305,0.238C10.715,3.172,10.619,3.323,10.477,3.351z M4.7,8.501L0.183,6.83l1.702-5.638L3.94,1.95
	L3.464,3.557l0.857,0.324l0.488-1.609l2.167,0.8l-1.49,4.905C5.179,8.062,4.907,8.249,4.7,8.501z M3.221,5.128l0.153-0.496
	L1.93,5.157l0.853,1.39l0.153-0.495l1.267,0.478l0.285-0.923L3.221,5.128z M0.347,7.674l4.021,1.444
	C4.312,9.299,4.281,9.493,4.281,9.693c-0.016-0.002-0.033-0.006-0.049-0.01L0.181,8.229C0.042,8.177-0.032,8.012,0.013,7.859
	C0.06,7.706,0.208,7.624,0.347,7.674z M5.888,8.391c0.652,0,1.182,0.584,1.182,1.305C7.068,10.415,6.54,11,5.888,11
	c-0.652,0-1.181-0.585-1.181-1.305C4.707,8.975,5.235,8.391,5.888,8.391z M5.888,10.18c0.243,0,0.438-0.217,0.438-0.486
	c0-0.268-0.195-0.482-0.438-0.482c-0.243,0-0.439,0.216-0.439,0.482C5.448,9.963,5.645,10.18,5.888,10.18z"/>
</svg>
