<?xml version="1.0" encoding="utf-8"?>
<!-- Generator: Adobe Illustrator 16.0.0, SVG Export Plug-In . SVG Version: 6.00 Build 0)  -->
<!DOCTYPE svg PUBLIC "-//W3C//DTD SVG 1.1//EN" "http://www.w3.org/Graphics/SVG/1.1/DTD/svg11.dtd">
<svg version="1.1" id="Layer_1" xmlns="http://www.w3.org/2000/svg" xmlns:xlink="http://www.w3.org/1999/xlink" x="0px" y="0px"
	 width="11px" height="11px" viewBox="0 0 11 11" enable-background="new 0 0 11 11" xml:space="preserve">
<path d="M7.766,11c-1.787,0-3.234-1.441-3.234-3.217c0-1.777,1.448-3.218,3.234-3.218C9.552,4.565,11,6.006,11,7.783
	C11,9.559,9.552,11,7.766,11z M7.766,5.28C6.376,5.28,5.25,6.4,5.25,7.783c0,1.382,1.126,2.502,2.516,2.502
	c1.389,0,2.517-1.12,2.517-2.502C10.281,6.4,9.154,5.28,7.766,5.28z M9.229,7.908c0.082,0.085,0.123,0.189,0.123,0.312
	c0,0.188-0.067,0.336-0.205,0.444c-0.14,0.108-0.328,0.163-0.57,0.163c-0.208,0-0.377-0.032-0.508-0.1V8.344
	C8.203,8.441,8.359,8.49,8.539,8.49c0.113,0,0.202-0.023,0.266-0.072C8.868,8.37,8.9,8.303,8.9,8.216
	c0-0.09-0.041-0.157-0.118-0.207C8.704,7.96,8.598,7.938,8.46,7.938H8.277V7.6h0.168c0.263,0,0.394-0.088,0.394-0.261
	c0-0.163-0.101-0.243-0.302-0.243c-0.135,0-0.266,0.043-0.395,0.129V6.865C8.285,6.793,8.45,6.758,8.639,6.758
	c0.205,0,0.365,0.047,0.48,0.139C9.234,6.99,9.291,7.107,9.291,7.255c0,0.263-0.133,0.427-0.398,0.491v0.007
	C9.033,7.771,9.146,7.822,9.229,7.908z M6.869,8.419v0.009h0.816v0.366H6.361V8.45l0.576-0.548c0.117-0.111,0.198-0.205,0.244-0.279
	C7.23,7.548,7.254,7.471,7.254,7.386c0-0.184-0.1-0.276-0.299-0.276c-0.173,0-0.34,0.068-0.497,0.205V6.927
	C6.633,6.814,6.83,6.758,7.051,6.758c0.206,0,0.366,0.053,0.482,0.154c0.115,0.104,0.173,0.24,0.173,0.417
	c0,0.233-0.142,0.476-0.423,0.726L6.869,8.419z M1.206,5.608h1.228v1.221H1.206V5.608z M2.434,8.661H1.206V7.439h1.228V8.661z
	 M3.048,5.608h1.228v1.117C4.264,6.76,4.249,6.794,4.238,6.829h-1.19V5.608z M3.048,8.661V7.439H4.1
	C4.071,7.63,4.051,7.823,4.051,8.021c0,0.074,0.007,0.146,0.011,0.222C4.056,8.327,4.051,8.411,4.051,8.498
	c0,0.055,0.006,0.107,0.008,0.163H3.048z M0.592,4.998v4.214c0,0.031,0.023,0.062,0.051,0.062H4.15
	C4.184,9.408,4.226,9.541,4.276,9.67v0.213H0.643c-0.368,0-0.665-0.302-0.665-0.671V3.837c0-0.371,0.297-0.671,0.665-0.671h0.256
	v0.305c0,0.336,0.275,0.611,0.614,0.611c0.339,0,0.614-0.274,0.614-0.611V3.166h3.684v0.305c0,0.336,0.276,0.611,0.614,0.611
	c0.339,0,0.614-0.274,0.614-0.611V3.166h0.256c0.368,0,0.665,0.3,0.665,0.671v0.254C7.018,4.102,6.152,4.44,5.479,4.998H0.592z
	 M6.425,3.776c-0.169,0-0.307-0.136-0.307-0.305V2.25c0-0.168,0.138-0.305,0.307-0.305c0.171,0,0.308,0.137,0.308,0.305v1.221
	C6.732,3.64,6.596,3.776,6.425,3.776z M1.513,3.776c-0.17,0-0.307-0.136-0.307-0.305V2.25c0-0.168,0.137-0.305,0.307-0.305
	c0.169,0,0.307,0.137,0.307,0.305v1.221C1.82,3.64,1.683,3.776,1.513,3.776z"/>
</svg>
