<?xml version="1.0" encoding="utf-8"?>
<!-- Generator: Adobe Illustrator 16.0.0, SVG Export Plug-In . SVG Version: 6.00 Build 0)  -->
<!DOCTYPE svg PUBLIC "-//W3C//DTD SVG 1.1//EN" "http://www.w3.org/Graphics/SVG/1.1/DTD/svg11.dtd">
<svg version="1.1" id="Layer_1" xmlns="http://www.w3.org/2000/svg" xmlns:xlink="http://www.w3.org/1999/xlink" x="0px" y="0px"
	 width="11px" height="11px" viewBox="0 0 11 11" enable-background="new 0 0 11 11" xml:space="preserve">
<path d="M6.18,5.361V5.03H3.114v0.331H6.18z M8.021,4.491V4.16H3.114v0.331H8.021z M8.018,3.621V3.29H3.11v0.332L8.018,3.621
	L8.018,3.621z M6.661,1.158C6.666,1.119,6.668,1.08,6.668,1.04c0-0.569-0.494-1.029-1.104-1.029S4.459,0.471,4.459,1.04
	c0,0.04,0.003,0.08,0.008,0.118H3.762v0.711c0,0.244,0.212,0.441,0.475,0.441h2.656c0.262,0,0.475-0.197,0.475-0.441V1.158H6.661z
	 M5.563,0.388c0.224,0,0.405,0.168,0.405,0.378c0,0.208-0.182,0.377-0.405,0.377s-0.405-0.17-0.405-0.377
	C5.159,0.556,5.34,0.388,5.563,0.388z M8.926,1.314H8.646v8.092H2.482V1.314h-0.28c-0.387,0-0.7,0.292-0.7,0.653v8.354
	c0,0.359,0.313,0.652,0.7,0.652h6.724c0.389,0,0.701-0.293,0.701-0.652V1.967C9.627,1.606,9.312,1.314,8.926,1.314z"/>
<path fill="none" d="M16.396,326.041v-9.673"/>
</svg>
