<?xml version="1.0" encoding="utf-8"?>
<!-- Generator: Adobe Illustrator 16.0.0, SVG Export Plug-In . SVG Version: 6.00 Build 0)  -->
<!DOCTYPE svg PUBLIC "-//W3C//DTD SVG 1.1//EN" "http://www.w3.org/Graphics/SVG/1.1/DTD/svg11.dtd">
<svg version="1.1" id="Layer_1" xmlns="http://www.w3.org/2000/svg" xmlns:xlink="http://www.w3.org/1999/xlink" x="0px" y="0px"
	 width="11px" height="11px" viewBox="0 0 11 11" enable-background="new 0 0 11 11" xml:space="preserve">
<g>
	<path d="M6.202,6.658l0.01-0.096c0,0,0.515-0.422,0.759-1.112C7.354,5.21,7.5,5.176,7.562,4.899c0,0,0.174-1.048-0.239-1.048
		c0,0-0.474,0.027-0.416-0.218c0.054-0.246,0.034-0.332,0.009-0.604C6.889,2.757,7.055,1.976,6.477,1.867
		c-0.395-0.073-0.269,0.038-0.461,0.01C5.822,1.849,5.593,1.354,5.235,1.354L4.664,1.472c-0.358,0-0.045,0.109-0.238,0.137
		C4.234,1.636,4.68,1.582,4.102,1.691S3.406,2.537,3.378,2.81C3.351,3.083,3.344,3.169,3.363,3.578
		c0.055,0.246-0.224,0.246-0.224,0.246C2.792,3.801,2.734,4.872,2.734,4.872c0.049,0.264-0.018,0.395,0.495,0.599
		C3.473,6.162,4.094,6.51,4.094,6.51s0.031,0.442,0.04,0.758c-0.052-0.025-0.09,0.807-1.683,1.039
		C0.858,8.538,0.553,9.051,0.253,9.335c-0.301,0.285-0.25,1.644-0.25,1.644l6.577-0.024c-0.666-0.563-1.089-1.403-1.089-2.34
		C5.491,7.87,5.757,7.188,6.202,6.658z M8.584,6.229c-1.328,0-2.406,1.066-2.406,2.387C6.178,9.932,7.256,11,8.584,11
		s2.405-1.068,2.405-2.386C10.989,7.295,9.912,6.229,8.584,6.229z M8.928,8.955v1.361H8.241V8.955H6.866V8.273h1.375V6.909h0.687
		v1.364h1.375v0.682H8.928z"/>
</g>
</svg>
