<?xml version="1.0" encoding="utf-8"?>
<!-- Generator: Adobe Illustrator 16.0.0, SVG Export Plug-In . SVG Version: 6.00 Build 0)  -->
<!DOCTYPE svg PUBLIC "-//W3C//DTD SVG 1.1//EN" "http://www.w3.org/Graphics/SVG/1.1/DTD/svg11.dtd">
<svg version="1.1" id="Layer_1" xmlns="http://www.w3.org/2000/svg" xmlns:xlink="http://www.w3.org/1999/xlink" x="0px" y="0px"
	 width="11px" height="11px" viewBox="0 0 11 11" enable-background="new 0 0 11 11" xml:space="preserve">
<g>
	<path d="M3.198,4.179c-1.722,0-3.118,0.509-3.118,1.137s1.396,1.137,3.118,1.137c1.722,0,3.118-0.509,3.118-1.137
		S4.92,4.179,3.198,4.179z M9.044,7.969c1.075,0,1.948-0.51,1.948-1.137c0-0.628-0.873-1.137-1.948-1.137S7.096,6.204,7.096,6.832
		C7.096,7.459,7.969,7.969,9.044,7.969z M3.198,10.242c-1.357,0-2.512-0.316-2.939-0.758C0.144,9.604,0.08,9.73,0.08,9.863
		C0.08,10.49,1.476,11,3.198,11c1.722,0,3.118-0.51,3.118-1.137c0-0.133-0.062-0.262-0.178-0.379
		C5.71,9.926,4.555,10.242,3.198,10.242z M9.044,10.242c-0.851,0-1.569-0.316-1.837-0.758C7.135,9.604,7.096,9.73,7.096,9.863
		C7.096,10.49,7.969,11,9.044,11s1.948-0.51,1.948-1.137c0-0.133-0.04-0.262-0.111-0.379C10.613,9.926,9.895,10.242,9.044,10.242z
		 M3.198,8.727c-1.357,0-2.512-0.315-2.939-0.758C0.144,8.086,0.08,8.215,0.08,8.348c0,0.627,1.396,1.137,3.118,1.137
		c1.722,0,3.118-0.51,3.118-1.137c0-0.133-0.062-0.262-0.178-0.379C5.71,8.41,4.555,8.727,3.198,8.727z M9.044,8.727
		c-0.851,0-1.569-0.315-1.837-0.758C7.135,8.086,7.096,8.215,7.096,8.348c0,0.627,0.873,1.137,1.948,1.137s1.948-0.51,1.948-1.137
		c0-0.133-0.04-0.262-0.111-0.379C10.613,8.41,9.895,8.727,9.044,8.727z M3.198,7.211c-1.357,0-2.512-0.316-2.939-0.758
		C0.144,6.57,0.08,6.699,0.08,6.832c0,0.627,1.396,1.137,3.118,1.137c1.722,0,3.118-0.51,3.118-1.137
		c0-0.133-0.062-0.262-0.178-0.379C5.71,6.895,4.555,7.211,3.198,7.211z"/>
</g>
<path fill="none" d="M16.396,326.041v-9.673"/>
</svg>
