<?xml version="1.0" encoding="utf-8"?>
<!-- Generator: Adobe Illustrator 16.0.0, SVG Export Plug-In . SVG Version: 6.00 Build 0)  -->
<!DOCTYPE svg PUBLIC "-//W3C//DTD SVG 1.1//EN" "http://www.w3.org/Graphics/SVG/1.1/DTD/svg11.dtd">
<svg version="1.1" id="Layer_1" xmlns="http://www.w3.org/2000/svg" xmlns:xlink="http://www.w3.org/1999/xlink" x="0px" y="0px"
	 width="11px" height="11px" viewBox="0 0 11 11" enable-background="new 0 0 11 11" xml:space="preserve">
<g>
	<path d="M8.33,1.332H8.062v8.102H2.147V1.332H1.879c-0.372,0-0.672,0.292-0.672,0.653v8.361C1.207,10.709,1.508,11,1.879,11H8.33
		c0.373,0,0.674-0.291,0.674-0.652V1.985C9.004,1.625,8.703,1.332,8.33,1.332z M6.158,1.176c0.004-0.04,0.008-0.079,0.008-0.12
		c0-0.568-0.476-1.03-1.061-1.03c-0.586,0-1.061,0.461-1.061,1.03c0,0.041,0.003,0.08,0.008,0.12H6.158z M5.105,0.404
		c0.214,0,0.389,0.169,0.389,0.377c0,0.209-0.174,0.378-0.389,0.378S4.716,0.99,4.716,0.781C4.716,0.573,4.89,0.404,5.105,0.404z
		 M5.106,4.904c1.175,0,2.128-0.355,2.128-0.793S6.281,3.319,5.106,3.319c-1.175,0-2.127,0.354-2.127,0.792S3.932,4.904,5.106,4.904
		z M5.106,8.074c1.175,0,2.128-0.355,2.128-0.792c0-0.095-0.043-0.183-0.123-0.267C6.82,7.324,6.033,7.545,5.106,7.545
		c-0.926,0-1.713-0.221-2.005-0.527C3.022,7.1,2.979,7.188,2.979,7.282C2.979,7.719,3.932,8.074,5.106,8.074z M5.106,7.018
		c1.175,0,2.128-0.355,2.128-0.793c0-0.093-0.043-0.182-0.123-0.263C6.82,6.27,6.033,6.489,5.106,6.489
		c-0.926,0-1.713-0.22-2.005-0.528c-0.079,0.082-0.122,0.17-0.122,0.264C2.979,6.661,3.932,7.018,5.106,7.018z M5.106,5.961
		c1.175,0,2.128-0.356,2.128-0.793c0-0.093-0.043-0.182-0.123-0.264C6.82,5.211,6.033,5.433,5.106,5.433
		c-0.926,0-1.713-0.221-2.005-0.529C3.022,4.986,2.979,5.075,2.979,5.168C2.979,5.605,3.932,5.961,5.106,5.961z"/>
</g>
<path fill="none" d="M16.396,326.041v-9.673"/>
</svg>
