<?xml version="1.0" encoding="utf-8"?>
<!-- Generator: Adobe Illustrator 16.0.0, SVG Export Plug-In . SVG Version: 6.00 Build 0)  -->
<!DOCTYPE svg PUBLIC "-//W3C//DTD SVG 1.1//EN" "http://www.w3.org/Graphics/SVG/1.1/DTD/svg11.dtd">
<svg version="1.1" id="Layer_1" xmlns="http://www.w3.org/2000/svg" xmlns:xlink="http://www.w3.org/1999/xlink" x="0px" y="0px"
	 width="11px" height="11px" viewBox="0 0 11 11" enable-background="new 0 0 11 11" xml:space="preserve">
<path d="M8.414,5.326c0,0,0.41-0.32,0.1-0.637C8.204,4.372,7.9,4.782,7.9,4.782L5.479,7.266c0,0-0.73,0.967-1.286,0.383
	C3.64,7.062,4.565,6.33,4.565,6.33l3.394-3.478c0,0,0.953-1.079,1.85-0.16c0.897,0.919-0.156,1.899-0.156,1.899l-4.594,4.71
	c0,0-1.47,1.741-2.832,0.346C0.865,8.252,2.58,6.761,2.58,6.761l3.486-3.573c0,0,0.394-0.335,0.101-0.637
	c-0.295-0.3-0.619,0.101-0.619,0.101L1.544,6.754c0,0-1.511,1.699,0.177,3.428c1.688,1.729,3.344,0.183,3.344,0.183l5.503-5.64
	c0,0,1.102-1.245-0.211-2.589c-1.315-1.347-2.53-0.219-2.53-0.219L3.792,6.055c0,0-1.214,1.01-0.113,2.137
	c1.1,1.129,2.067-0.131,2.067-0.131L8.414,5.326z"/>
<path fill="none" d="M16.396,326.041v-9.673"/>
</svg>
