<?xml version="1.0" encoding="utf-8"?>
<!-- Generator: Adobe Illustrator 16.0.0, SVG Export Plug-In . SVG Version: 6.00 Build 0)  -->
<!DOCTYPE svg PUBLIC "-//W3C//DTD SVG 1.1//EN" "http://www.w3.org/Graphics/SVG/1.1/DTD/svg11.dtd">
<svg version="1.1" id="Layer_1" xmlns="http://www.w3.org/2000/svg" xmlns:xlink="http://www.w3.org/1999/xlink" x="0px" y="0px"
	 width="11px" height="11px" viewBox="0 0 11 11" enable-background="new 0 0 11 11" xml:space="preserve">
<path fill="none" d="M16.396,326.041v-9.673"/>
<path d="M9.928,9.984L7.514,7.348C7.507,7.341,7.498,7.335,7.49,7.329C7.861,6.675,7.977,5.875,7.732,5.1
	C7.27,3.619,5.696,2.796,4.219,3.26C2.742,3.725,1.92,5.301,2.383,6.779C2.847,8.26,4.42,9.084,5.898,8.62
	C6.133,8.546,6.35,8.439,6.549,8.314l2.374,2.594c0.07,0.076,0.228,0.047,0.351-0.066l0.56-0.514
	C9.955,10.215,9.998,10.062,9.928,9.984z M3.106,6.555c-0.338-1.08,0.263-2.231,1.34-2.57C5.521,3.646,6.672,4.248,7.01,5.327
	c0.338,1.077-0.264,2.229-1.34,2.567S3.443,7.632,3.106,6.555z M4.08,5.113C5.178,4.769,6.346,5.38,6.689,6.479L6.716,6.57
	c0.138-0.357,0.161-0.76,0.038-1.154c-0.29-0.925-1.272-1.438-2.195-1.149C3.968,4.452,3.547,4.924,3.396,5.48
	C3.593,5.32,3.823,5.194,4.08,5.113z M7.516,10.232H1.858v-7.17H3.12c0.46,0,0.833-0.374,0.833-0.835V0.968h4.305v6.331l0.014-0.013
	l0.752,0.823v-7.4c0-0.281-0.228-0.509-0.508-0.509H3.705L1.092,2.816v0.235l-0.009,0.01h0.009v7.429c0,0.281,0.229,0.51,0.509,0.51
	h6.616L7.516,10.232z"/>
</svg>
