<?xml version="1.0" encoding="utf-8"?>
<!-- Generator: Adobe Illustrator 16.0.0, SVG Export Plug-In . SVG Version: 6.00 Build 0)  -->
<!DOCTYPE svg PUBLIC "-//W3C//DTD SVG 1.1//EN" "http://www.w3.org/Graphics/SVG/1.1/DTD/svg11.dtd">
<svg version="1.1" id="Layer_1" xmlns="http://www.w3.org/2000/svg" xmlns:xlink="http://www.w3.org/1999/xlink" x="0px" y="0px"
	 width="11px" height="11px" viewBox="0 0 11 11" enable-background="new 0 0 11 11" xml:space="preserve">
<path fill="none" d="M16.396,326.041v-9.673"/>
<path d="M8.291,11c-1.496,0-2.709-1.206-2.709-2.693c0-1.488,1.213-2.697,2.709-2.697S11,6.816,11,8.307C11,9.795,9.787,11,8.291,11
	z M8.938,7.835V6.209H7.732v1.626H6.186v1.112h1.547v1.625h1.205V8.947h1.461V7.835H8.938z M4.382,5.365
	C4.47,5.39,4.537,5.408,4.583,5.422C5.144,5.587,5.555,5.776,5.821,5.99C5.248,6.596,4.895,7.408,4.895,8.307
	c0,0.06,0.006,0.117,0.009,0.178C4.726,8.529,4.537,8.566,4.331,8.586v0.482H3.632V8.6C3.158,8.575,2.745,8.48,2.396,8.316
	C1.983,8.124,1.708,7.859,1.57,7.523l1.259-0.578c0.042,0.193,0.155,0.349,0.34,0.461C3.3,7.486,3.455,7.538,3.632,7.561v-1.17
	c-0.05-0.017-0.097-0.031-0.136-0.045C2.833,6.123,2.374,5.898,2.119,5.673C1.864,5.448,1.736,5.169,1.736,4.837
	c0-0.492,0.217-0.891,0.65-1.194C2.72,3.408,3.135,3.266,3.632,3.211V2.656h0.699v0.537C4.74,3.217,5.102,3.305,5.414,3.458
	c0.369,0.181,0.639,0.438,0.809,0.769L5.02,4.761C4.954,4.572,4.842,4.43,4.681,4.332C4.58,4.271,4.462,4.231,4.331,4.209v1.142
	C4.348,5.355,4.364,5.36,4.382,5.365z M4.331,7.51c0.056-0.018,0.108-0.039,0.154-0.064c0.153-0.086,0.229-0.207,0.229-0.36
	c0-0.167-0.128-0.313-0.384-0.444L4.331,7.51L4.331,7.51z M3.632,4.255C3.581,4.273,3.533,4.294,3.49,4.319
	C3.341,4.408,3.267,4.524,3.267,4.668c0,0.143,0.122,0.28,0.365,0.411V4.255z M9.193,1.897c0-0.17-0.137-0.309-0.308-0.309H1.418
	c-0.17,0-0.308,0.139-0.308,0.309V9.15c0,0.172,0.138,0.31,0.308,0.31h3.685c0.054,0.147,0.115,0.291,0.188,0.429H1.024
	c-0.19,0-0.344-0.154-0.344-0.343V1.504c0-0.189,0.153-0.343,0.344-0.343h8.342c0.19,0,0.344,0.153,0.344,0.343v3.734
	C9.545,5.162,9.373,5.1,9.193,5.051V1.897z"/>
</svg>
