<?xml version="1.0" encoding="utf-8"?>
<!-- Generator: Adobe Illustrator 16.0.0, SVG Export Plug-In . SVG Version: 6.00 Build 0)  -->
<!DOCTYPE svg PUBLIC "-//W3C//DTD SVG 1.1//EN" "http://www.w3.org/Graphics/SVG/1.1/DTD/svg11.dtd">
<svg version="1.1" id="Layer_1" xmlns="http://www.w3.org/2000/svg" xmlns:xlink="http://www.w3.org/1999/xlink" x="0px" y="0px"
	 width="11px" height="11px" viewBox="0 0 11 11" enable-background="new 0 0 11 11" xml:space="preserve">
<g>
	<path d="M5.511-0.022C2.468-0.022,0,2.445,0,5.489C0,8.532,2.468,11,5.511,11c3.044,0,5.511-2.468,5.511-5.511
		C11.021,2.445,8.555-0.022,5.511-0.022z M5.467,9.952c-2.458,0-4.451-1.993-4.451-4.452s1.993-4.451,4.451-4.451
		s4.45,1.993,4.45,4.451S7.925,9.952,5.467,9.952z M6.753,5.756H5.489V3.624c0-0.232-0.188-0.42-0.419-0.42s-0.419,0.188-0.419,0.42
		v2.552c0,0.231,0.187,0.42,0.419,0.42h1.683c0.231,0,0.419-0.188,0.419-0.42C7.172,5.944,6.984,5.756,6.753,5.756z"/>
</g>
</svg>
