<?xml version="1.0" encoding="utf-8"?>
<!-- Generator: Adobe Illustrator 16.0.0, SVG Export Plug-In . SVG Version: 6.00 Build 0)  -->
<!DOCTYPE svg PUBLIC "-//W3C//DTD SVG 1.1//EN" "http://www.w3.org/Graphics/SVG/1.1/DTD/svg11.dtd">
<svg version="1.1" id="Layer_1" xmlns="http://www.w3.org/2000/svg" xmlns:xlink="http://www.w3.org/1999/xlink" x="0px" y="0px"
	 width="11px" height="11px" viewBox="0 0 11 11" enable-background="new 0 0 11 11" xml:space="preserve">
<path d="M9.166,11v-0.916h0.918V9.167H11V11H9.166z M10.084,6.417H11V8.25h-0.916V6.417z M10.084,2.75H11v1.833h-0.916V2.75z
	 M10.084,0.917H9.166V0H11v1.833h-0.916V0.917z M6.417,8.25H4.583V6.417H2.75V4.584h1.833V2.75h1.833v1.833H8.25v1.833H6.417V8.25z
	 M3.667,0h3.667v0.917H3.667V0z M0,9.167h0.917v0.917h0.917V11H0V9.167z M0.917,1.834H0V0h1.833v0.917H0.917V1.834z M0.917,4.584H0
	V2.75h0.917V4.584z M0.917,8.25H0V6.417h0.917V8.25z M7.334,11H3.667v-0.916h3.667V11z"/>
<path d="M16.396,326.041v-9.673"/>
</svg>
