<?xml version="1.0" encoding="utf-8"?>
<!-- Generator: Adobe Illustrator 16.0.0, SVG Export Plug-In . SVG Version: 6.00 Build 0)  -->
<!DOCTYPE svg PUBLIC "-//W3C//DTD SVG 1.1//EN" "http://www.w3.org/Graphics/SVG/1.1/DTD/svg11.dtd">
<svg version="1.1" id="Layer_1" xmlns="http://www.w3.org/2000/svg" xmlns:xlink="http://www.w3.org/1999/xlink" x="0px" y="0px"
	 width="11px" height="11px" viewBox="0 0 11 11" enable-background="new 0 0 11 11" xml:space="preserve">
<path d="M10.372,9.395c-0.372,0-0.673-0.301-0.673-0.67s0.301-0.67,0.673-0.67c0.373,0,0.673,0.301,0.673,0.67
	S10.745,9.395,10.372,9.395z M10.372,7.786c-0.372,0-0.673-0.3-0.673-0.669s0.301-0.67,0.673-0.67c0.373,0,0.673,0.301,0.673,0.67
	S10.745,7.786,10.372,7.786z M10.372,6.182c-0.372,0-0.673-0.3-0.673-0.671c0-0.369,0.301-0.669,0.673-0.669
	c0.373,0,0.673,0.3,0.673,0.669C11.045,5.881,10.745,6.182,10.372,6.182z M10.372,4.574c-0.372,0-0.673-0.3-0.673-0.669
	c0-0.37,0.301-0.67,0.673-0.67c0.373,0,0.673,0.3,0.673,0.67C11.045,4.274,10.745,4.574,10.372,4.574z M10.372,2.967
	c-0.372,0-0.673-0.3-0.673-0.669c0-0.37,0.301-0.67,0.673-0.67c0.373,0,0.673,0.3,0.673,0.67
	C11.045,2.667,10.745,2.967,10.372,2.967z M8.486,11c-0.372,0-0.674-0.299-0.674-0.67c0-0.369,0.302-0.668,0.674-0.668
	c0.371,0,0.674,0.299,0.674,0.668C9.16,10.701,8.857,11,8.486,11z M8.486,9.395c-0.194,0-0.369-0.084-0.492-0.215
	c0.33-0.297,0.613-0.643,0.828-1.031C9.023,8.264,9.16,8.477,9.16,8.725C9.16,9.094,8.857,9.395,8.486,9.395z M8.055,3.396
	C8.171,3.297,8.32,3.235,8.486,3.235c0.371,0,0.674,0.3,0.674,0.67c0,0.23-0.117,0.433-0.295,0.553
	C8.656,4.059,8.381,3.701,8.055,3.396z M8.486,2.967c-0.372,0-0.674-0.3-0.674-0.669c0-0.37,0.302-0.67,0.674-0.67
	c0.371,0,0.674,0.3,0.674,0.67C9.16,2.667,8.857,2.967,8.486,2.967z M5.387,9.662c-1.933,0-3.5-1.498-3.5-3.348
	c0-1.848,1.567-3.346,3.5-3.346s3.501,1.498,3.501,3.346C8.889,8.164,7.32,9.662,5.387,9.662z M6.627,6.68
	C6.577,6.564,6.511,6.465,6.43,6.381C6.35,6.295,6.256,6.223,6.152,6.163C6.048,6.102,5.942,6.047,5.833,6S5.618,5.907,5.514,5.863
	C5.41,5.821,5.317,5.775,5.235,5.726C5.152,5.678,5.086,5.623,5.038,5.56C4.989,5.497,4.964,5.422,4.964,5.336
	c0-0.057,0.011-0.112,0.033-0.164c0.022-0.052,0.055-0.095,0.1-0.132c0.045-0.037,0.1-0.065,0.167-0.086
	c0.067-0.022,0.145-0.031,0.235-0.031c0.114,0,0.219,0.012,0.315,0.04C5.91,4.99,5.994,5.019,6.066,5.051
	c0.074,0.033,0.136,0.062,0.186,0.091c0.05,0.027,0.086,0.041,0.109,0.041c0.022,0,0.041-0.005,0.055-0.018s0.023-0.03,0.031-0.056
	C6.454,5.083,6.46,5.05,6.463,5.011c0.003-0.041,0.005-0.09,0.005-0.146c0-0.052-0.002-0.095-0.004-0.131
	C6.462,4.699,6.459,4.67,6.453,4.647C6.448,4.624,6.441,4.605,6.436,4.591C6.428,4.577,6.413,4.56,6.393,4.541
	c-0.021-0.02-0.064-0.045-0.127-0.075C6.2,4.438,6.126,4.41,6.043,4.387C5.959,4.363,5.87,4.345,5.773,4.33
	c-0.02-0.003-0.039-0.001-0.059-0.004V3.833H5.223v0.493l0,0C5.133,4.338,5.045,4.354,4.96,4.379
	C4.794,4.424,4.651,4.493,4.529,4.586C4.407,4.679,4.31,4.794,4.238,4.936C4.167,5.076,4.13,5.238,4.13,5.423
	c0,0.161,0.025,0.3,0.075,0.416c0.05,0.114,0.115,0.216,0.196,0.3c0.08,0.084,0.171,0.156,0.273,0.219
	C4.776,6.419,4.881,6.471,4.99,6.52c0.107,0.047,0.213,0.094,0.315,0.135c0.102,0.045,0.192,0.09,0.273,0.139
	c0.081,0.05,0.146,0.104,0.195,0.168C5.823,7.023,5.848,7.1,5.848,7.186c0,0.076-0.015,0.146-0.044,0.207
	C5.775,7.454,5.733,7.504,5.678,7.547C5.623,7.589,5.556,7.621,5.477,7.645C5.397,7.667,5.308,7.68,5.208,7.68
	c-0.152,0-0.286-0.018-0.401-0.05C4.691,7.598,4.591,7.561,4.508,7.521C4.425,7.48,4.357,7.443,4.303,7.412
	C4.25,7.379,4.209,7.363,4.18,7.363c-0.021,0-0.04,0.005-0.055,0.016C4.109,7.391,4.097,7.408,4.087,7.436
	C4.078,7.461,4.071,7.496,4.066,7.536C4.063,7.578,4.061,7.63,4.061,7.691c0,0.092,0.006,0.162,0.017,0.211
	c0.011,0.049,0.031,0.087,0.058,0.113C4.163,8.04,4.208,8.068,4.269,8.104C4.331,8.137,4.407,8.169,4.499,8.2
	C4.59,8.23,4.696,8.256,4.816,8.277s0.25,0.033,0.389,0.033c0.006,0,0.011-0.002,0.018-0.002V8.77h0.492V8.248
	C5.738,8.242,5.763,8.24,5.787,8.232c0.181-0.051,0.339-0.129,0.474-0.23c0.136-0.104,0.243-0.23,0.322-0.385
	c0.079-0.152,0.119-0.33,0.119-0.533C6.702,6.928,6.677,6.793,6.627,6.68z M5.935,2.375C5.932,2.35,5.927,2.324,5.927,2.298
	c0-0.37,0.302-0.67,0.673-0.67c0.373,0,0.674,0.3,0.674,0.67c0,0.17-0.065,0.324-0.172,0.443C6.741,2.562,6.35,2.438,5.935,2.375z
	 M5.328,2.325c-0.435,0-0.853,0.071-1.245,0.199C4.058,2.453,4.042,2.377,4.042,2.298c0-0.37,0.301-0.67,0.673-0.67
	s0.673,0.3,0.673,0.67c0,0.01-0.002,0.019-0.003,0.03C5.366,2.327,5.348,2.325,5.328,2.325z M2.56,3.235
	c0.066,0,0.129,0.012,0.189,0.03C2.438,3.529,2.168,3.84,1.951,4.186C1.911,4.1,1.887,4.006,1.887,3.905
	C1.887,3.535,2.188,3.235,2.56,3.235z M2.56,2.967c-0.373,0-0.673-0.3-0.673-0.669c0-0.37,0.301-0.67,0.673-0.67
	s0.673,0.3,0.673,0.67C3.233,2.667,2.932,2.967,2.56,2.967z M0.674,11C0.302,11,0,10.701,0,10.33c0-0.369,0.302-0.668,0.673-0.668
	c0.372,0,0.673,0.299,0.673,0.668C1.347,10.701,1.046,11,0.674,11z M0.674,9.395C0.302,9.395,0,9.094,0,8.725s0.302-0.67,0.673-0.67
	c0.372,0,0.673,0.301,0.673,0.67C1.347,9.094,1.046,9.395,0.674,9.395z M0.674,7.786C0.302,7.786,0,7.486,0,7.117
	s0.302-0.67,0.673-0.67c0.372,0,0.673,0.301,0.673,0.67S1.046,7.786,0.674,7.786z M0.674,6.182C0.302,6.182,0,5.881,0,5.511
	c0-0.369,0.302-0.669,0.673-0.669c0.372,0,0.673,0.3,0.673,0.669C1.347,5.881,1.046,6.182,0.674,6.182z M0.674,4.574
	C0.302,4.574,0,4.274,0,3.905c0-0.37,0.302-0.67,0.673-0.67c0.372,0,0.673,0.3,0.673,0.67C1.347,4.274,1.046,4.574,0.674,4.574z
	 M0.674,2.967C0.302,2.967,0,2.667,0,2.298c0-0.37,0.302-0.67,0.673-0.67c0.372,0,0.673,0.3,0.673,0.67
	C1.347,2.667,1.046,2.967,0.674,2.967z M2.841,9.331C2.755,9.37,2.66,9.395,2.56,9.395c-0.373,0-0.673-0.301-0.673-0.67
	c0-0.123,0.036-0.238,0.095-0.338C2.215,8.745,2.505,9.062,2.841,9.331z M2.56,9.662c0.372,0,0.673,0.299,0.673,0.668
	c0,0.371-0.301,0.67-0.673,0.67c-0.373,0-0.673-0.299-0.673-0.67C1.887,9.961,2.188,9.662,2.56,9.662z M5.328,10.197
	c0.016,0,0.031-0.004,0.046-0.004c0.009,0.045,0.014,0.091,0.014,0.137c0,0.371-0.302,0.67-0.673,0.67
	c-0.373,0-0.673-0.299-0.673-0.67c0-0.115,0.032-0.223,0.083-0.316C4.505,10.132,4.909,10.197,5.328,10.197z M7.027,9.816
	c0.148,0.123,0.246,0.307,0.246,0.514C7.273,10.701,6.973,11,6.6,11c-0.371,0-0.673-0.299-0.673-0.67
	c0-0.064,0.012-0.128,0.03-0.188C6.335,10.084,6.693,9.973,7.027,9.816z M10.372,9.662c0.373,0,0.673,0.299,0.673,0.668
	c0,0.371-0.3,0.67-0.673,0.67C10,11,9.699,10.701,9.699,10.33C9.699,9.961,10,9.662,10.372,9.662z"/>
<path fill="none" d="M16.396,326.041v-9.673"/>
</svg>
