<?xml version="1.0" encoding="utf-8"?>
<!-- Generator: Adobe Illustrator 16.0.0, SVG Export Plug-In . SVG Version: 6.00 Build 0)  -->
<!DOCTYPE svg PUBLIC "-//W3C//DTD SVG 1.1//EN" "http://www.w3.org/Graphics/SVG/1.1/DTD/svg11.dtd">
<svg version="1.1" id="Layer_1" xmlns="http://www.w3.org/2000/svg" xmlns:xlink="http://www.w3.org/1999/xlink" x="0px" y="0px"
	 width="11px" height="11px" viewBox="0 0 11 11" enable-background="new 0 0 11 11" xml:space="preserve">
<g>
	<path d="M4.8,1.399C2.149,1.399,0,3.549,0,6.2S2.149,11,4.8,11c2.651,0,4.8-2.148,4.8-4.8S7.451,1.399,4.8,1.399z M4.762,10.087
		c-2.142,0-3.877-1.735-3.877-3.877c0-2.142,1.735-3.877,3.877-3.877c2.14,0,3.876,1.735,3.876,3.877
		C8.639,8.352,6.902,10.087,4.762,10.087z M5.882,6.434H4.781V4.575c0-0.202-0.163-0.366-0.365-0.366S4.051,4.373,4.051,4.575v2.223
		c0,0.202,0.163,0.366,0.365,0.366h1.466c0.201,0,0.365-0.164,0.365-0.366C6.247,6.598,6.083,6.434,5.882,6.434z"/>
</g>
<path fill="none" d="M16.396,326.041v-9.673"/>
</svg>
