<?xml version="1.0" encoding="utf-8"?>
<!-- Generator: Adobe Illustrator 16.0.0, SVG Export Plug-In . SVG Version: 6.00 Build 0)  -->
<!DOCTYPE svg PUBLIC "-//W3C//DTD SVG 1.1//EN" "http://www.w3.org/Graphics/SVG/1.1/DTD/svg11.dtd">
<svg version="1.1" id="Layer_1" xmlns="http://www.w3.org/2000/svg" xmlns:xlink="http://www.w3.org/1999/xlink" x="0px" y="0px"
	 width="11px" height="11px" viewBox="0 0 11 11" enable-background="new 0 0 11 11" xml:space="preserve">
<path d="M9.824,8.427c0.128-0.088,0.211-0.229,0.211-0.391V3.349c0-0.265-0.225-0.479-0.5-0.479H1.52c-0.276,0-0.5,0.214-0.5,0.479
	v4.688c0,0.161,0.083,0.303,0.21,0.391C0.906,8.562,0,10.521,0,10.521C0,10.786,0.235,11,0.526,11h10.003
	c0.291,0,0.525-0.214,0.525-0.479C11.057,10.521,10.148,8.562,9.824,8.427z M1.621,3.444h7.814v4.498H1.621V3.444z M4.426,10.477
	l0.357-0.766h1.488l0.358,0.766H4.426z M3.265,5.813c0.085,0,0.152-0.066,0.152-0.147S3.35,5.52,3.265,5.52h-0.86
	c-0.084,0-0.152,0.065-0.152,0.146S2.32,5.813,2.405,5.813H3.265z M4.03,5.252c0.084,0,0.152-0.066,0.152-0.146
	c0-0.081-0.067-0.147-0.152-0.147H2.405c-0.084,0-0.152,0.066-0.152,0.147c0,0.08,0.067,0.146,0.152,0.146H4.03z M4.03,4.691
	c0.084,0,0.152-0.064,0.152-0.146c0-0.081-0.067-0.147-0.152-0.147H2.405c-0.084,0-0.152,0.066-0.152,0.147S2.32,4.691,2.405,4.691
	H4.03z M8.982,7.629V4.294c0-0.148-0.125-0.269-0.28-0.269H8.027c-0.156,0-0.282,0.121-0.282,0.269v3.334L8.982,7.629L8.982,7.629z
	 M7.521,7.629v-2.42c0-0.148-0.127-0.269-0.282-0.269H6.562c-0.155,0-0.28,0.12-0.28,0.269v2.42H7.521z M6.057,7.629V5.748
	c0-0.148-0.125-0.269-0.281-0.269H5.099c-0.155,0-0.28,0.12-0.28,0.269v1.881H6.057z"/>
<path fill="none" d="M16.396,326.041v-9.673"/>
</svg>
