<?xml version="1.0" encoding="utf-8"?>
<!-- Generator: Adobe Illustrator 16.0.0, SVG Export Plug-In . SVG Version: 6.00 Build 0)  -->
<!DOCTYPE svg PUBLIC "-//W3C//DTD SVG 1.1//EN" "http://www.w3.org/Graphics/SVG/1.1/DTD/svg11.dtd">
<svg version="1.1" id="Layer_1" xmlns="http://www.w3.org/2000/svg" xmlns:xlink="http://www.w3.org/1999/xlink" x="0px" y="0px"
	 width="11px" height="11px" viewBox="0 0 11 11" enable-background="new 0 0 11 11" xml:space="preserve">
<g>
	<path d="M4.521,5.046c-0.068-0.021-0.168-0.049-0.3-0.085c-0.025-0.007-0.05-0.015-0.075-0.023v-1.72
		c0.196,0.034,0.371,0.094,0.521,0.186c0.239,0.147,0.408,0.362,0.505,0.645L6.96,3.246c-0.252-0.5-0.651-0.886-1.203-1.159
		c-0.465-0.23-1.003-0.363-1.612-0.399V0.879h-1.04v0.835c-0.739,0.082-1.358,0.298-1.854,0.65c-0.645,0.458-0.967,1.058-0.967,1.8
		c0,0.499,0.19,0.919,0.569,1.259c0.379,0.34,1.063,0.679,2.049,1.013C2.961,6.457,3.03,6.479,3.105,6.504v1.764
		c-0.263-0.035-0.494-0.109-0.69-0.231C2.142,7.865,1.973,7.634,1.911,7.34L0.036,8.213c0.206,0.505,0.615,0.902,1.228,1.193
		c0.521,0.246,1.135,0.389,1.841,0.426v0.709h1.041V9.812c0.79-0.073,1.44-0.283,1.95-0.633C6.74,8.734,7.062,8.139,7.062,7.387
		C7.062,6.825,6.868,6.361,6.48,6C6.093,5.637,5.439,5.319,4.521,5.046z M3.105,4.53C2.743,4.332,2.561,4.125,2.561,3.91
		c0-0.216,0.111-0.391,0.333-0.525c0.064-0.039,0.135-0.069,0.21-0.097L3.105,4.53L3.105,4.53z M4.375,8.093
		c-0.068,0.039-0.146,0.071-0.23,0.099V6.88c0.381,0.194,0.572,0.418,0.572,0.669C4.717,7.779,4.604,7.962,4.375,8.093z
		 M9.139,4.036C9.027,3.965,8.96,3.869,8.936,3.748L8.184,4.109c0.082,0.209,0.248,0.374,0.493,0.494
		c0.209,0.103,0.454,0.161,0.737,0.176v0.292h0.417V4.77c0.315-0.03,0.576-0.117,0.78-0.261C10.871,4.325,11,4.078,11,3.767
		c0-0.231-0.078-0.422-0.232-0.573c-0.156-0.151-0.418-0.282-0.785-0.395c-0.028-0.008-0.069-0.02-0.123-0.035
		c-0.008-0.003-0.02-0.006-0.028-0.01V2.043c0.078,0.014,0.147,0.039,0.208,0.077c0.096,0.061,0.165,0.15,0.204,0.267l0.716-0.333
		c-0.102-0.207-0.261-0.366-0.482-0.479c-0.186-0.095-0.399-0.15-0.646-0.165V1.076H9.414v0.346C9.118,1.456,8.87,1.544,8.671,1.69
		C8.412,1.88,8.284,2.128,8.284,2.435c0,0.207,0.075,0.38,0.228,0.521c0.152,0.14,0.426,0.28,0.821,0.418
		c0.024,0.008,0.052,0.018,0.081,0.028v0.729C9.311,4.117,9.216,4.085,9.139,4.036z M9.831,3.558
		c0.153,0.08,0.229,0.172,0.229,0.276c0,0.095-0.047,0.171-0.138,0.225C9.895,4.076,9.864,4.088,9.831,4.1V3.558z M9.195,2.33
		c0-0.089,0.045-0.162,0.135-0.218c0.025-0.015,0.054-0.028,0.084-0.04v0.514C9.27,2.504,9.195,2.418,9.195,2.33z M9.982,8.729
		C9.954,8.721,9.913,8.707,9.859,8.691c-0.008-0.002-0.02-0.006-0.028-0.01V7.973c0.078,0.014,0.147,0.038,0.208,0.077
		c0.096,0.06,0.165,0.148,0.204,0.265l0.716-0.33c-0.102-0.207-0.261-0.366-0.482-0.479c-0.186-0.096-0.399-0.149-0.646-0.164V7.005
		H9.414v0.347C9.118,7.384,8.87,7.475,8.671,7.619C8.412,7.809,8.284,8.057,8.284,8.361c0,0.209,0.075,0.383,0.228,0.522
		s0.426,0.278,0.821,0.418C9.357,9.312,9.385,9.32,9.414,9.331v0.729c-0.104-0.016-0.198-0.047-0.275-0.098
		C9.027,9.895,8.96,9.797,8.936,9.676l-0.752,0.361c0.082,0.209,0.248,0.373,0.493,0.495c0.209,0.101,0.454,0.159,0.737,0.175V11
		h0.417v-0.301c0.315-0.031,0.576-0.117,0.78-0.264C10.871,10.254,11,10.007,11,9.695c0-0.232-0.078-0.424-0.232-0.573
		C10.611,8.973,10.35,8.841,9.982,8.729z M9.414,8.514C9.27,8.434,9.195,8.348,9.195,8.258S9.24,8.098,9.33,8.04
		c0.025-0.017,0.054-0.026,0.084-0.039V8.514z M9.923,9.986c-0.028,0.018-0.059,0.029-0.092,0.041V9.486
		c0.153,0.08,0.229,0.173,0.229,0.275C10.061,9.859,10.014,9.934,9.923,9.986z"/>
</g>
<path fill="none" d="M16.396,326.041v-9.673"/>
</svg>
