<?xml version="1.0" encoding="utf-8"?>
<!-- Generator: Adobe Illustrator 16.0.0, SVG Export Plug-In . SVG Version: 6.00 Build 0)  -->
<!DOCTYPE svg PUBLIC "-//W3C//DTD SVG 1.1//EN" "http://www.w3.org/Graphics/SVG/1.1/DTD/svg11.dtd">
<svg version="1.1" id="Layer_1" xmlns="http://www.w3.org/2000/svg" xmlns:xlink="http://www.w3.org/1999/xlink" x="0px" y="0px"
	 width="11px" height="11px" viewBox="0 0 11 11" enable-background="new 0 0 11 11" xml:space="preserve">
<path d="M2.771,8.634v0.63h5.657v-0.63H2.771z M2.771,7.374v0.63h5.657v-0.63H2.771z M2.771,6.114v0.63h5.657v-0.63H2.771z
	 M5.286,4.855v0.63H8.43v-0.63H5.286z M5.286,3.596v0.63H8.43v-0.63H5.286z M2.771,3.596v1.889h1.885V3.596H2.771z M5.286,1.707H5.6
	h0.314v0.315v0.315H5.6H5.286V2.021V1.707z M7.171,2.966v-0.63v-0.63v-0.63H5.915H4.028v0.63v0.63v0.629L7.171,2.966L7.171,2.966z
	 M1.514,2.336v0.629v0.63v6.297l0.628,0.629H7.8h1.259l0.627-0.629V5.485V3.596v-0.63v-0.63l-0.627-0.63H7.8v0.63h1.259v0.629v0.63
	v2.519v3.778H7.8H2.143V3.596v-0.63v-0.63H3.4v-0.63H2.143L1.514,2.336z"/>
</svg>
