<?xml version="1.0" encoding="utf-8"?>
<!-- Generator: Adobe Illustrator 16.0.0, SVG Export Plug-In . SVG Version: 6.00 Build 0)  -->
<!DOCTYPE svg PUBLIC "-//W3C//DTD SVG 1.1//EN" "http://www.w3.org/Graphics/SVG/1.1/DTD/svg11.dtd">
<svg version="1.1" id="Layer_1" xmlns="http://www.w3.org/2000/svg" xmlns:xlink="http://www.w3.org/1999/xlink" x="0px" y="0px"
	 width="11px" height="11px" viewBox="0 0 11 11" enable-background="new 0 0 11 11" xml:space="preserve">
<g>
	<path d="M9.234,2.602H5.942c-0.31,0-0.618,0.123-0.883,0.322V4.81h0.883V4.345h3.292v1.744H7.865V6.96h1.369v0.873H5.942V7.716
		H5.059v1.538c0.265,0.199,0.574,0.322,0.883,0.322h3.292c0.824,0,1.646-0.872,1.646-1.743V4.345
		C10.881,3.473,10.059,2.602,9.234,2.602z M6.802,5.278H4.513V2.605H2.715v2.673H0.426v1.77h2.289v2.673h1.798V7.048h2.289V5.278z"
		/>
</g>
</svg>
