<?xml version="1.0" encoding="utf-8"?>
<!-- Generator: Adobe Illustrator 16.0.0, SVG Export Plug-In . SVG Version: 6.00 Build 0)  -->
<!DOCTYPE svg PUBLIC "-//W3C//DTD SVG 1.1//EN" "http://www.w3.org/Graphics/SVG/1.1/DTD/svg11.dtd">
<svg version="1.1" id="Layer_1" xmlns="http://www.w3.org/2000/svg" xmlns:xlink="http://www.w3.org/1999/xlink" x="0px" y="0px"
	 width="595.28px" height="841.89px" viewBox="0 0 595.28 841.89" enable-background="new 0 0 595.28 841.89" xml:space="preserve">
<path fill-rule="evenodd" clip-rule="evenodd" d="M375.845,588.957c-47.89,0-86.702-38.625-86.702-86.25s38.812-86.25,86.702-86.25
	c47.875,0,86.688,38.625,86.688,86.25S423.72,588.957,375.845,588.957z M396.47,487.645v-52.031h-38.531v52.031h-49.53v35.594h49.53
	v52h38.531v-52h46.781v-35.594H396.47z M250.721,408.645c2.828,0.75,4.969,1.344,6.438,1.781
	c17.938,5.281,31.109,11.344,39.641,18.188c-18.344,19.344-29.672,45.375-29.672,74.094c0,1.906,0.188,3.781,0.281,5.688
	c-5.688,1.5-11.703,2.656-18.312,3.281v15.469h-22.375v-15.031c-15.156-0.781-28.359-3.781-39.562-9.031
	c-13.188-6.188-21.984-14.625-26.406-25.375l40.297-18.531c1.344,6.219,4.953,11.156,10.859,14.781
	c4.203,2.562,9.156,4.188,14.812,4.938v-37.5c-1.594-0.5-3.078-1-4.328-1.406c-21.234-7.125-35.906-14.281-44.062-21.5
	c-8.172-7.25-12.25-16.156-12.25-26.749c0-15.781,6.938-28.5,20.797-38.25c10.656-7.5,23.953-12.062,39.844-13.812v-17.75h22.375
	v17.188c13.094,0.781,24.656,3.562,34.656,8.469c11.828,5.781,20.438,14,25.844,24.625l-38.453,17.062
	c-2.078-6.031-5.703-10.594-10.859-13.719c-3.203-1.938-6.984-3.188-11.188-3.938v36.53
	C249.643,408.301,250.158,408.457,250.721,408.645z M249.096,477.27c1.797-0.594,3.469-1.25,4.938-2.094
	c4.906-2.781,7.359-6.656,7.359-11.562c0-5.344-4.109-10.062-12.297-14.219V477.27z M226.721,373.083
	c-1.609,0.594-3.141,1.25-4.516,2.062c-4.781,2.844-7.172,6.562-7.172,11.156c0,4.562,3.906,8.969,11.688,13.188V373.083z
	 M404.72,297.677c0-5.469-4.406-9.906-9.844-9.906H155.893c-5.438,0-9.859,4.438-9.859,9.906V529.77
	c0,5.469,4.422,9.906,9.859,9.906h117.891c1.719,4.688,3.688,9.281,6.031,13.688H143.283c-6.078,0-11-4.906-11-10.969V285.052
	c0-6.062,4.922-10.969,11-10.969H410.22c6.094,0,11,4.906,11,10.969v119.499c-5.281-2.438-10.781-4.437-16.5-5.999V297.677z"/>
</svg>
