<?xml version="1.0" encoding="utf-8"?>
<!-- Generator: Adobe Illustrator 16.0.0, SVG Export Plug-In . SVG Version: 6.00 Build 0)  -->
<!DOCTYPE svg PUBLIC "-//W3C//DTD SVG 1.1//EN" "http://www.w3.org/Graphics/SVG/1.1/DTD/svg11.dtd">
<svg version="1.1" id="Layer_1" xmlns="http://www.w3.org/2000/svg" xmlns:xlink="http://www.w3.org/1999/xlink" x="0px" y="0px"
	 width="11px" height="11px" viewBox="0 0 11 11" enable-background="new 0 0 11 11" xml:space="preserve">
<path fill-rule="evenodd" clip-rule="evenodd" d="M9.717,4.33H9.574c0.138,0.397,0.218,0.822,0.218,1.267
	c0,2.136-1.74,3.875-3.875,3.875c-0.002,0-0.006,0-0.009,0c-0.046,0.606-0.649,1.191-1.258,1.191H2.117
	c-0.633,0-1.267-0.633-1.267-1.267v-1.9c0-0.627,0.622-1.253,1.249-1.265C2.064,6.024,2.042,5.813,2.042,5.597
	c0-2.136,1.739-3.875,3.875-3.875c0.217,0,0.428,0.022,0.636,0.057C6.564,1.151,7.188,0.53,7.816,0.53h1.9
	c0.633,0,1.267,0.633,1.267,1.267v1.267C10.983,3.696,10.35,4.33,9.717,4.33z M3.413,8.13H4.65V7.496H2.906
	C3.051,7.727,3.22,7.938,3.413,8.13z M4.287,8.764c0.117,0.06,0.238,0.113,0.363,0.161V8.764H4.287z M2.117,9.396H4.65V9.255
	C4.306,9.135,3.983,8.97,3.691,8.764H2.117V9.396z M2.117,7.496V8.13h0.875c-0.169-0.194-0.32-0.407-0.448-0.634H2.117z
	 M2.352,5.597c0,0.216,0.022,0.428,0.06,0.634H4.65c0.633,0,1.267,0.633,1.267,1.266v1.665c1.965,0,3.565-1.6,3.565-3.564
	c0-0.447-0.087-0.873-0.236-1.267H7.816c-0.633,0-1.267-0.634-1.267-1.267V2.092C6.344,2.055,6.133,2.033,5.917,2.033
	C3.951,2.033,2.352,3.631,2.352,5.597z M7.546,2.43H7.184v0.634h0.633V2.585C7.729,2.53,7.639,2.479,7.546,2.43z M10.35,2.43H9.717
	V1.797H9.083V2.43H8.449V1.797H7.816v0.427C7.928,2.287,8.037,2.356,8.143,2.43h0.307v0.242C8.59,2.793,8.72,2.923,8.84,3.063h0.243
	V2.43h0.634v0.634h0.633V2.43z"/>
</svg>
