<?xml version="1.0" encoding="utf-8"?>
<!-- Generator: Adobe Illustrator 16.0.0, SVG Export Plug-In . SVG Version: 6.00 Build 0)  -->
<!DOCTYPE svg PUBLIC "-//W3C//DTD SVG 1.1//EN" "http://www.w3.org/Graphics/SVG/1.1/DTD/svg11.dtd">
<svg version="1.1" id="Layer_1" xmlns="http://www.w3.org/2000/svg" xmlns:xlink="http://www.w3.org/1999/xlink" x="0px" y="0px"
	 width="11px" height="11px" viewBox="0 0 11 11" enable-background="new 0 0 11 11" xml:space="preserve">
<path d="M8.398,10.48H2.64c-0.331,0-0.6-0.271-0.6-0.602v-7.68c0-0.331,0.269-0.6,0.6-0.6h0.24v7.44h1.889L3.592,7.17l1.192-0.199
	c0,0,0.26,0.819,0.302,0.952c2.607-2.654,2.723-2.931,2.717-2.959c0.014,0.019,0.184,0.242,0.355,0.47V1.6h0.24
	c0.33,0,0.6,0.269,0.6,0.6v7.68C8.998,10.211,8.729,10.48,8.398,10.48z M4.995,9.04h3.164v-2.8L4.995,9.04z M7.803,4.964
	C7.803,4.963,7.8,4.96,7.8,4.96S7.803,4.96,7.803,4.964z M3.421,5.32V5.016h2.624V5.32H3.421z M3.421,4.216h4.202V4.52H3.421V4.216z
	 M3.418,3.416H7.62V3.72H3.418V3.416z M6.656,2.516H4.382c-0.224,0-0.406-0.182-0.406-0.406V1.456H4.58
	C4.575,1.42,4.573,1.384,4.573,1.347c0-0.522,0.424-0.946,0.946-0.946s0.946,0.424,0.946,0.946c0,0.037-0.002,0.073-0.006,0.109
	h0.604v0.653C7.062,2.334,6.881,2.516,6.656,2.516z M5.519,0.747c-0.192,0-0.347,0.155-0.347,0.347c0,0.192,0.155,0.348,0.347,0.348
	c0.191,0,0.347-0.155,0.347-0.348C5.866,0.902,5.71,0.747,5.519,0.747z"/>
</svg>
