<?xml version="1.0" encoding="utf-8"?>
<!-- Generator: Adobe Illustrator 16.0.0, SVG Export Plug-In . SVG Version: 6.00 Build 0)  -->
<!DOCTYPE svg PUBLIC "-//W3C//DTD SVG 1.1//EN" "http://www.w3.org/Graphics/SVG/1.1/DTD/svg11.dtd">
<svg version="1.1" id="Layer_1" xmlns="http://www.w3.org/2000/svg" xmlns:xlink="http://www.w3.org/1999/xlink" x="0px" y="0px"
	 width="11px" height="11px" viewBox="0 0 11 11" enable-background="new 0 0 11 11" xml:space="preserve">
<path d="M9.341,1.685H6.15c-0.325,0-0.589,0.254-0.589,0.568V5.33c0,0.314,0.264,0.57,0.589,0.57H9.34c0.326,0,0.59-0.255,0.59-0.57
	V2.253C9.932,1.939,9.667,1.685,9.341,1.685z M7.083,2.888c0.028-0.419,0.324-0.613,0.685-0.613c0.361,0,0.656,0.193,0.687,0.613
	C8.531,2.916,8.59,3.007,8.59,3.117c0,0.13-0.083,0.237-0.188,0.237L8.386,3.353C8.275,3.682,8.039,3.96,7.768,3.96
	c-0.271,0-0.506-0.278-0.617-0.607L7.132,3.354c-0.103,0-0.187-0.106-0.187-0.237C6.945,3.007,7.005,2.916,7.083,2.888z
	 M9.127,5.339H6.408V4.611c0-0.353,0.296-0.638,0.66-0.638h0.274l0.222,0.715l0.168-0.375L7.538,4.076l0.009-0.008
	c0.064,0.01,0.137,0.016,0.207,0.016c0.072,0,0.143-0.006,0.21-0.016l0.019,0.018L7.805,4.305l0.172,0.37l0.215-0.702h0.274
	c0.365,0,0.661,0.286,0.661,0.638V5.339z M6.041,6.432H6.037H3.563c-0.051-0.304-0.08-0.627-0.08-0.969
	c0-0.299,0.021-0.585,0.062-0.855h1.434V4.039H3.66C3.929,3,4.468,2.299,4.985,2.223c0.023-0.219,0.12-0.417,0.263-0.574
	C5.191,1.648,5.135,1.645,5.077,1.645c-2.185,0-3.956,1.709-3.956,3.818c0,2.107,1.771,3.816,3.956,3.816
	c1.618,0,3.008-0.938,3.621-2.278h0.04V6.91c0.064-0.154,0.119-0.314,0.166-0.479H6.041z M3.7,2.501
	C3.415,2.906,3.19,3.434,3.051,4.039H2.054C2.399,3.359,2.983,2.812,3.7,2.501z M1.712,5.463c0-0.296,0.042-0.583,0.119-0.855h1.117
	C2.912,4.882,2.893,5.169,2.893,5.463c0,0.335,0.024,0.658,0.071,0.969h-1.1C1.766,6.124,1.712,5.8,1.712,5.463z M2.114,7.001h0.963
	C3.218,7.559,3.433,8.045,3.7,8.423C3.023,8.13,2.464,7.627,2.114,7.001z M5.077,8.709c-0.523,0-1.09-0.673-1.387-1.708h2.773
	C6.168,8.036,5.602,8.709,5.077,8.709z M6.455,8.423c0.268-0.378,0.48-0.864,0.62-1.422H8.04C7.689,7.627,7.131,8.13,6.455,8.423z"
	/>
</svg>
