<?xml version="1.0" encoding="utf-8"?>
<!-- Generator: Adobe Illustrator 16.0.0, SVG Export Plug-In . SVG Version: 6.00 Build 0)  -->
<!DOCTYPE svg PUBLIC "-//W3C//DTD SVG 1.1//EN" "http://www.w3.org/Graphics/SVG/1.1/DTD/svg11.dtd">
<svg version="1.1" id="Layer_1" xmlns="http://www.w3.org/2000/svg" xmlns:xlink="http://www.w3.org/1999/xlink" x="0px" y="0px"
	 width="11px" height="11px" viewBox="0 0 11 11" enable-background="new 0 0 11 11" xml:space="preserve">
<path d="M9.486,2.979v0.612H8.874V2.979H9.486z M8.262,2.979V2.366h0.612v0.612L8.262,2.979L8.262,2.979z M8.262,3.591H7.648V2.979
	h0.612L8.262,3.591L8.262,3.591z M7.037,2.979V2.366h0.611v0.612L7.037,2.979L7.037,2.979z M7.037,3.591H6.425V2.979h0.612V3.591z
	 M5.812,2.366v1.225c0,0.612,0.612,1.225,1.225,1.225h1.837c0.612,0,1.226-0.612,1.226-1.225V2.366c0-0.612-0.613-1.225-1.226-1.225
	H7.037C6.425,1.142,5.812,1.754,5.812,2.366z M1.526,9.102h2.449v0.612H1.526V9.102z M1.526,7.877h2.449v0.612H1.526V7.877z
	 M0.301,7.877v1.837c0,0.612,0.612,1.226,1.225,1.226h2.449c0.613,0,1.225-0.612,1.225-1.226V7.877c0-0.611-0.612-1.225-1.225-1.225
	H1.526C0.914,6.652,0.301,7.266,0.301,7.877z M1.526,4.203h2.449v0.612H1.526V4.203z M1.526,2.366h2.449v1.225H1.526V2.366z
	 M0.301,2.366v2.449c0,0.612,0.612,1.225,1.225,1.225h2.449C4.588,6.04,5.2,5.428,5.2,4.815V2.366c0-0.612-0.612-1.225-1.225-1.225
	H1.526C0.914,1.142,0.301,1.754,0.301,2.366z M8.262,8.489h1.225v1.225H8.262V8.489z M8.262,6.652h1.225v1.225H8.262V6.652z
	 M6.425,8.489H7.65v1.225H6.425V8.489z M6.425,6.652H7.65v1.225H6.425V6.652z M5.812,6.652v3.062c0,0.612,0.612,1.226,1.225,1.226
	h1.837c0.612,0,1.226-0.612,1.226-1.226V6.652c0-0.612-0.613-1.226-1.226-1.226H7.037C6.425,5.428,5.812,6.04,5.812,6.652z"/>
</svg>
