<?xml version="1.0" encoding="utf-8"?>
<!-- Generator: Adobe Illustrator 16.0.0, SVG Export Plug-In . SVG Version: 6.00 Build 0)  -->
<!DOCTYPE svg PUBLIC "-//W3C//DTD SVG 1.1//EN" "http://www.w3.org/Graphics/SVG/1.1/DTD/svg11.dtd">
<svg version="1.1" id="Layer_1" xmlns="http://www.w3.org/2000/svg" xmlns:xlink="http://www.w3.org/1999/xlink" x="0px" y="0px"
	 width="11px" height="11px" viewBox="0 0 11 11" enable-background="new 0 0 11 11" xml:space="preserve">
<g>
	<path d="M3.252,5.106h0.435V4.653H3.252V5.106z M3.252,6.467h0.435V6.014H3.252V6.467z M3.252,7.828h0.435V7.374H3.252V7.828z
		 M3.252,3.748h0.435V3.294H3.252V3.748z M3.252,9.188h0.435V8.734H3.252V9.188z M4.123,7.828h3.48V7.374h-3.48V7.828z M7.575,0.12
		H1.512V11h7.832V1.934L7.575,0.12z M8.475,10.064H2.382V1.027h4.351V2.36h1.742V10.064z M4.123,3.748h3.48V3.294h-3.48V3.748z
		 M4.123,6.467h3.48V6.014h-3.48V6.467z M4.123,5.106h3.48V4.653h-3.48V5.106z M4.123,9.188h3.48V8.734h-3.48V9.188z"/>
</g>
<path fill="none" d="M16.396,326.041v-9.673"/>
</svg>
