<?xml version="1.0" encoding="utf-8"?>
<!-- Generator: Adobe Illustrator 16.0.0, SVG Export Plug-In . SVG Version: 6.00 Build 0)  -->
<!DOCTYPE svg PUBLIC "-//W3C//DTD SVG 1.1//EN" "http://www.w3.org/Graphics/SVG/1.1/DTD/svg11.dtd">
<svg version="1.1" id="Layer_1" xmlns="http://www.w3.org/2000/svg" xmlns:xlink="http://www.w3.org/1999/xlink" x="0px" y="0px"
	 width="11px" height="11px" viewBox="0 0 11 11" enable-background="new 0 0 11 11" xml:space="preserve">
<path d="M7.318,6.1H6.374L5.63,8.616L5.045,7.289l0.61-0.784L5.591,6.441C5.358,6.477,5.116,6.495,4.869,6.495
	c-0.245,0-0.484-0.019-0.714-0.052L4.128,6.469l0.668,0.85L4.219,8.662L3.462,6.1H2.516c-1.258,0-2.277,1.025-2.277,2.291V11h9.358
	V8.391C9.598,7.125,8.578,6.1,7.318,6.1z M7.271,2.204C7.178,0.696,6.16,0,4.917,0C3.675,0,2.658,0.696,2.563,2.204
	C2.29,2.301,2.088,2.631,2.088,3.025c0,0.47,0.288,0.852,0.643,0.852c0.02,0,0.041-0.001,0.061-0.004
	C3.175,5.053,3.983,6.05,4.917,6.05c0.936,0,1.744-0.997,2.127-2.177c0.021,0.003,0.041,0.004,0.062,0.004
	c0.354,0,0.643-0.381,0.643-0.852C7.747,2.631,7.546,2.301,7.271,2.204z"/>
</svg>
