<?xml version="1.0" encoding="utf-8"?>
<!-- Generator: Adobe Illustrator 16.0.0, SVG Export Plug-In . SVG Version: 6.00 Build 0)  -->
<!DOCTYPE svg PUBLIC "-//W3C//DTD SVG 1.1//EN" "http://www.w3.org/Graphics/SVG/1.1/DTD/svg11.dtd">
<svg version="1.1" id="Layer_1" xmlns="http://www.w3.org/2000/svg" xmlns:xlink="http://www.w3.org/1999/xlink" x="0px" y="0px"
	 width="11px" height="11px" viewBox="0 0 11 11" enable-background="new 0 0 11 11" xml:space="preserve">
<path d="M1.306,0h9.676v1.526H1.306V0z M8.9,4.362C8.177,3.631,7.188,3.097,6.079,3.097c-1.099,0-2.012,0.474-2.667,1.166
	L1.306,1.927H11L8.9,4.362z M6.166,3.463C8.117,3.463,9.7,5.09,9.7,7.096c0,2.008-1.583,3.635-3.534,3.635
	c-1.952,0-3.535-1.627-3.535-3.635C2.631,5.09,4.214,3.463,6.166,3.463z M5.15,7.434L4.577,9.422l1.662-1.176L7.9,9.42L7.326,7.432
	L8.928,6.17L6.91,6.118L6.236,4.163L5.565,6.119L3.549,6.173L5.15,7.434z"/>
</svg>
