<?xml version="1.0" encoding="utf-8"?>
<!-- Generator: Adobe Illustrator 16.0.0, SVG Export Plug-In . SVG Version: 6.00 Build 0)  -->
<!DOCTYPE svg PUBLIC "-//W3C//DTD SVG 1.1//EN" "http://www.w3.org/Graphics/SVG/1.1/DTD/svg11.dtd">
<svg version="1.1" id="Layer_1" xmlns="http://www.w3.org/2000/svg" xmlns:xlink="http://www.w3.org/1999/xlink" x="0px" y="0px"
	 width="11px" height="11px" viewBox="0 0 11 11" enable-background="new 0 0 11 11" xml:space="preserve">
<path d="M3.662,6.193V4.822l1.144-1.146H6.18l1.145,1.146v1.372L6.18,7.339H4.806L3.662,6.193z M1.891,6.424
	c0.058,0.424,0.161,0.795,0.31,1.116L0.744,8.997l1.259,1.259L3.46,8.799c0.322,0.149,0.693,0.253,1.117,0.311v0.06V11h1.83V9.169
	v-0.06c0.424-0.059,0.795-0.161,1.116-0.312l1.459,1.457l1.258-1.259L8.783,7.54c0.148-0.321,0.253-0.692,0.311-1.116h0.975h0.916
	V4.593h-0.916H9.094C9.036,4.168,8.932,3.798,8.783,3.476l1.457-1.458L8.982,0.76L7.523,2.217c-0.321-0.15-0.692-0.252-1.116-0.311
	v-0.06v-1.83h-1.83v1.831v0.06C4.153,1.964,3.782,2.068,3.46,2.217L2.003,0.76L0.744,2.018l1.457,1.458
	c-0.149,0.322-0.252,0.692-0.31,1.117H0v1.831H1.891z"/>
<path fill="none" d="M16.396,326.041v-9.673"/>
</svg>
