<?xml version="1.0" encoding="utf-8"?>
<!-- Generator: Adobe Illustrator 16.0.0, SVG Export Plug-In . SVG Version: 6.00 Build 0)  -->
<!DOCTYPE svg PUBLIC "-//W3C//DTD SVG 1.1//EN" "http://www.w3.org/Graphics/SVG/1.1/DTD/svg11.dtd">
<svg version="1.1" id="Layer_1" xmlns="http://www.w3.org/2000/svg" xmlns:xlink="http://www.w3.org/1999/xlink" x="0px" y="0px"
	 width="11px" height="11px" viewBox="0 0 11 11" enable-background="new 0 0 11 11" xml:space="preserve">
<path d="M10.09,6.35V5.088h0.842V6.35H10.09z M10.09,3.432h0.842v1.262H10.09V3.432z M10.09,1.75h0.842v1.262H10.09V1.75z M8.831,11
	h-7.57c-0.464,0-0.84-0.376-0.84-0.842H0.63c0.349,0,0.63-0.281,0.63-0.631c0-0.348-0.282-0.629-0.63-0.629H0.421V8.477H0.63
	c0.349,0,0.63-0.281,0.63-0.629c0-0.35-0.282-0.631-0.63-0.631H0.421V6.795H0.63c0.349,0,0.63-0.281,0.63-0.628
	c0-0.349-0.282-0.633-0.63-0.633H0.421V5.115H0.63c0.349,0,0.63-0.283,0.63-0.631S0.978,3.853,0.63,3.853H0.421V3.432H0.63
	c0.349,0,0.63-0.283,0.63-0.63c0-0.349-0.282-0.631-0.63-0.631H0.421V0.91c0-0.465,0.376-0.841,0.84-0.841h7.57
	c0.31,0,0.575,0.17,0.724,0.421H1.261c-0.232,0-0.42,0.187-0.42,0.42c0,0.231,0.188,0.419,0.42,0.419H9.67v8.829
	C9.67,10.624,9.294,11,8.831,11z M5.255,2.828c-0.508,0-0.919,0.541-0.919,1.209c0,0.667,0.411,1.207,0.919,1.207
	c0.508,0,0.919-0.54,0.919-1.207C6.175,3.369,5.764,2.828,5.255,2.828z M6.723,5.823C6.496,5.672,5.844,5.572,5.844,5.572
	S5.421,6.023,5.242,6.023c-0.18,0-0.603-0.452-0.603-0.452s-0.653,0.1-0.879,0.251c-0.226,0.152-0.326,0.95-0.326,0.95h3.623
	C7.057,6.773,6.988,6.001,6.723,5.823z M0.841,2.802c0,0.117-0.094,0.21-0.21,0.21H0.21C0.094,3.012,0,2.919,0,2.802
	c0-0.116,0.094-0.21,0.21-0.21h0.42C0.747,2.591,0.841,2.686,0.841,2.802z M0.21,4.273h0.42c0.117,0,0.21,0.095,0.21,0.21
	c0,0.115-0.094,0.21-0.21,0.21H0.21C0.094,4.694,0,4.599,0,4.483C0,4.367,0.094,4.273,0.21,4.273z M0.21,5.955h0.42
	c0.117,0,0.21,0.093,0.21,0.212c0,0.114-0.094,0.209-0.21,0.209H0.21C0.094,6.376,0,6.281,0,6.167C0,6.048,0.094,5.955,0.21,5.955z
	 M0.21,7.637h0.42c0.117,0,0.21,0.096,0.21,0.211S0.746,8.057,0.63,8.057H0.21C0.094,8.057,0,7.963,0,7.848
	C0,7.73,0.094,7.637,0.21,7.637z M0.21,9.318h0.42c0.117,0,0.21,0.095,0.21,0.209c0,0.117-0.094,0.212-0.21,0.212H0.21
	C0.094,9.739,0,9.646,0,9.527C0,9.413,0.094,9.318,0.21,9.318z"/>
</svg>
