<?xml version="1.0" encoding="utf-8"?>
<!-- Generator: Adobe Illustrator 16.0.0, SVG Export Plug-In . SVG Version: 6.00 Build 0)  -->
<!DOCTYPE svg PUBLIC "-//W3C//DTD SVG 1.1//EN" "http://www.w3.org/Graphics/SVG/1.1/DTD/svg11.dtd">
<svg version="1.1" id="Layer_1" xmlns="http://www.w3.org/2000/svg" xmlns:xlink="http://www.w3.org/1999/xlink" x="0px" y="0px"
	 width="11px" height="11px" viewBox="0 0 11 11" enable-background="new 0 0 11 11" xml:space="preserve">
<path d="M10.309,1.346h-4c-0.409,0-0.74,0.324-0.74,0.725v3.91c0,0.4,0.331,0.724,0.74,0.724h4c0.408,0,0.74-0.323,0.74-0.724v-3.91
	C11.049,1.67,10.717,1.346,10.309,1.346z M7.479,2.877c0.035-0.534,0.405-0.78,0.857-0.78c0.453,0,0.823,0.247,0.857,0.78
	c0.1,0.035,0.174,0.151,0.174,0.291c0,0.167-0.105,0.302-0.233,0.302L9.111,3.467C8.971,3.885,8.677,4.238,8.336,4.238
	S7.701,3.885,7.562,3.467L7.539,3.469c-0.129,0-0.232-0.135-0.232-0.302C7.307,3.028,7.378,2.912,7.479,2.877z M10.041,5.99h-3.41
	V5.066c0-0.448,0.371-0.811,0.829-0.811h0.347l0.274,0.908l0.21-0.476l-0.243-0.3l0.011-0.009c0.084,0.012,0.17,0.019,0.26,0.019
	c0.091,0,0.179-0.007,0.265-0.019L8.605,4.4L8.382,4.677l0.214,0.47l0.271-0.891h0.344c0.459,0,0.83,0.363,0.83,0.811V5.99
	L10.041,5.99z M6.171,7.38H6.165H3.062c-0.064-0.387-0.1-0.799-0.1-1.231c0-0.377,0.028-0.742,0.077-1.085h1.799V4.338H3.184
	c0.338-1.319,1.014-2.21,1.661-2.307c0.03-0.279,0.15-0.53,0.331-0.729C5.105,1.299,5.034,1.297,4.961,1.297
	C2.221,1.297,0,3.469,0,6.148S2.221,11,4.961,11c2.03,0,3.771-1.189,4.542-2.896h0.052V7.988c0.081-0.196,0.15-0.4,0.206-0.608
	H6.171z M3.233,2.384C2.877,2.899,2.594,3.57,2.42,4.338H1.17C1.603,3.475,2.335,2.781,3.233,2.384z M0.741,6.148
	c0-0.376,0.053-0.74,0.149-1.086h1.401c-0.045,0.35-0.069,0.712-0.069,1.086c0,0.427,0.031,0.838,0.089,1.23H0.933
	C0.808,6.99,0.741,6.577,0.741,6.148z M1.246,8.104h1.208c0.177,0.709,0.445,1.328,0.78,1.81C2.386,9.539,1.685,8.9,1.246,8.104z
	 M4.961,10.275c-0.657,0-1.367-0.854-1.739-2.172h3.479C6.33,9.421,5.619,10.275,4.961,10.275z M6.689,9.912
	c0.334-0.48,0.604-1.102,0.779-1.809h1.209C8.238,8.9,7.538,9.539,6.689,9.912z"/>
</svg>
