<?xml version="1.0" encoding="utf-8"?>
<!-- Generator: Adobe Illustrator 16.0.0, SVG Export Plug-In . SVG Version: 6.00 Build 0)  -->
<!DOCTYPE svg PUBLIC "-//W3C//DTD SVG 1.1//EN" "http://www.w3.org/Graphics/SVG/1.1/DTD/svg11.dtd">
<svg version="1.1" id="Layer_1" xmlns="http://www.w3.org/2000/svg" xmlns:xlink="http://www.w3.org/1999/xlink" x="0px" y="0px"
	 width="11px" height="11px" viewBox="0 0 11 11" enable-background="new 0 0 11 11" xml:space="preserve">
<path d="M7.117,5.5c1.475,0.939,2.474,2.741,2.471,4.812c0,0.232-0.011,0.461-0.036,0.688H0.038C0.014,10.773,0,10.546,0,10.312
	C0,8.241,0.999,6.439,2.473,5.5C0.999,4.561,0,2.758,0,0.688C0,0.455,0.014,0.226,0.038,0h9.515
	c0.024,0.226,0.038,0.455,0.038,0.688C9.591,2.758,8.592,4.561,7.117,5.5z M1.028,0.688c0,2.008,0.858,3.71,2.397,4.271V6.04
	c-1.54,0.562-2.397,2.265-2.397,4.272h7.535c0-2.008-0.858-3.711-2.397-4.272V4.959c1.539-0.562,2.397-2.263,2.397-4.271H1.028z
	 M5.138,5.156v0.69c0,0.343,0.043,0.91,0.811,1.345C6.725,7.645,7.305,8.542,7.48,9.625h-5.37c0.175-1.081,0.755-1.979,1.532-2.432
	c0.77-0.438,0.81-1.008,0.81-1.351v-0.69C4.452,4.811,4.41,4.244,3.644,3.807c-0.413-0.24-0.77-0.605-1.04-1.057h4.382
	C6.716,3.201,6.361,3.566,5.948,3.806C5.178,4.244,5.138,4.812,5.138,5.156z"/>
</svg>
