<?xml version="1.0" encoding="utf-8"?>
<!-- Generator: Adobe Illustrator 16.0.0, SVG Export Plug-In . SVG Version: 6.00 Build 0)  -->
<!DOCTYPE svg PUBLIC "-//W3C//DTD SVG 1.1//EN" "http://www.w3.org/Graphics/SVG/1.1/DTD/svg11.dtd">
<svg version="1.1" id="Layer_1" xmlns="http://www.w3.org/2000/svg" xmlns:xlink="http://www.w3.org/1999/xlink" x="0px" y="0px"
	 width="11px" height="11px" viewBox="0 0 11 11" enable-background="new 0 0 11 11" xml:space="preserve">
<path d="M0,0h9.788v1.564H0V0z M7.682,4.473C6.95,3.723,5.95,3.175,4.828,3.175c-1.111,0-2.034,0.485-2.696,1.195L0,1.975h9.805
	L7.682,4.473z M4.916,3.55c1.973,0,3.575,1.667,3.575,3.726C8.491,9.333,6.889,11,4.916,11C2.94,11,1.34,9.333,1.34,7.275
	C1.34,5.217,2.94,3.55,4.916,3.55z M3.888,7.62L3.309,9.66l1.68-1.207l1.683,1.204L6.09,7.62l1.619-1.295l-2.04-0.054L4.988,4.267
	L4.309,6.271L2.268,6.328L3.888,7.62z"/>
</svg>
