<?xml version="1.0" encoding="utf-8"?>
<!-- Generator: Adobe Illustrator 16.0.0, SVG Export Plug-In . SVG Version: 6.00 Build 0)  -->
<!DOCTYPE svg PUBLIC "-//W3C//DTD SVG 1.1//EN" "http://www.w3.org/Graphics/SVG/1.1/DTD/svg11.dtd">
<svg version="1.1" id="Layer_1" xmlns="http://www.w3.org/2000/svg" xmlns:xlink="http://www.w3.org/1999/xlink" x="0px" y="0px"
	 width="11px" height="11px" viewBox="0 0 11 11" enable-background="new 0 0 11 11" xml:space="preserve">
<path d="M5.992,7.506h2.8c0.093,0,0.168,0.079,0.168,0.176v0.351c0,0.096-0.075,0.174-0.168,0.174h-2.8
	c-0.094,0-0.168-0.078-0.168-0.174V7.682C5.824,7.585,5.898,7.506,5.992,7.506z M5.992,6.342h2.8c0.093,0,0.168,0.078,0.168,0.176
	v0.35c0,0.097-0.075,0.175-0.168,0.175h-2.8c-0.094,0-0.168-0.078-0.168-0.175v-0.35C5.824,6.42,5.898,6.342,5.992,6.342z
	 M5.992,5.177h2.8c0.093,0,0.168,0.078,0.168,0.175v0.349c0,0.097-0.075,0.175-0.168,0.175h-2.8c-0.094,0-0.168-0.078-0.168-0.175
	V5.352C5.824,5.255,5.898,5.177,5.992,5.177z M1.106,8.68c0-1.084,0.602-1.887,1.917-1.887c1.316,0,1.912,0.766,1.912,1.791
	c0,0.041,0.002,0.279,0,0.32h-3.83L1.106,8.68L1.106,8.68z M1.974,5.439c0-0.551,0.496-1.005,1.036-1.005
	c0.54,0,1.064,0.512,1.064,1.063c0,0.551-0.504,1.106-1.064,1.106C2.47,6.604,1.974,5.99,1.974,5.439z M1.409,3.081
	C0.631,3.081,0,3.737,0,4.546v4.989C0,10.346,0.631,11,1.409,11h1.279v-0.698H2.24V9.836h0.654H2.93h0.654v0.466H3.136V11h3.808
	v-0.698H6.496V9.836H7.15h0.035H7.84v0.466H7.393V11h1.278c0.778,0,1.409-0.654,1.409-1.465V4.546c0-0.809-0.631-1.465-1.409-1.465
	H1.409z"/>
</svg>
