<?xml version="1.0" encoding="utf-8"?>
<!-- Generator: Adobe Illustrator 16.0.0, SVG Export Plug-In . SVG Version: 6.00 Build 0)  -->
<!DOCTYPE svg PUBLIC "-//W3C//DTD SVG 1.1//EN" "http://www.w3.org/Graphics/SVG/1.1/DTD/svg11.dtd">
<svg version="1.1" id="Layer_1" xmlns="http://www.w3.org/2000/svg" xmlns:xlink="http://www.w3.org/1999/xlink" x="0px" y="0px"
	 width="11px" height="11px" viewBox="0 0 11 11" enable-background="new 0 0 11 11" xml:space="preserve">
<path fill="none" d="M16.396,326.041v-9.673"/>
<g>
	<path d="M6.104,5.59h-3.42v0.379h3.42V5.59z M6.104,6.846h-3.42v0.403h3.42V6.846z M3.979,0.56v1.26H2.683v1.26H1.42V11h5.971
		V9.732h1.264V8.504h1.289V0.56H3.979z M6.979,10.596H1.834V3.46h5.143v7.136H6.979z M8.24,9.354h-0.85V3.081H3.097V2.225H8.24
		V9.354z M9.529,8.1H8.652V1.82h-4.26V0.964h5.137V8.1L9.529,8.1z M6.104,9.348h-3.42v0.404h3.42V9.348z M6.104,8.086h-3.42v0.405
		h3.42V8.086z M6.107,4.322H2.688v0.419h3.419V4.322z"/>
</g>
</svg>
