<?xml version="1.0" encoding="utf-8"?>
<!-- Generator: Adobe Illustrator 16.0.0, SVG Export Plug-In . SVG Version: 6.00 Build 0)  -->
<!DOCTYPE svg PUBLIC "-//W3C//DTD SVG 1.1//EN" "http://www.w3.org/Graphics/SVG/1.1/DTD/svg11.dtd">
<svg version="1.1" id="Layer_1" xmlns="http://www.w3.org/2000/svg" xmlns:xlink="http://www.w3.org/1999/xlink" x="0px" y="0px"
	 width="11px" height="11px" viewBox="0 0 11 11" enable-background="new 0 0 11 11" xml:space="preserve">
<path fill="none" d="M16.396,326.041v-9.673"/>
<g>
	<path d="M9.657,3.21C8.32,2.619,2.381,4.992,1.13,4.6c0.003,0.012,1.048,4.241,1.023,4.167c1.876,0.562,7.234-2.301,8.871-1.736
		C11.021,7.006,9.971,4.068,9.657,3.21z M2.203,5.168c0,0,1.13-0.15,1.901-0.298C4.839,4.73,5.22,4.593,5.22,4.593l0.063,0.341
		c0,0-0.364,0.134-1.094,0.274C3.41,5.355,2.265,5.509,2.265,5.509L2.203,5.168z M2.667,6.841L2.604,6.5l1.653-0.229l0.063,0.34
		L2.667,6.841z M4.307,5.862C3.559,6.006,2.475,6.146,2.475,6.146l-0.062-0.34c0,0,1.083-0.142,1.83-0.284
		C5.004,5.377,5.431,5.23,5.431,5.23l0.062,0.342C5.493,5.571,5.068,5.717,4.307,5.862z M9.331,6.118
		c-0.019,0.01,0.077,0.278,0.077,0.278L9.143,6.48c0,0-0.067-0.278-0.111-0.273C8.792,6.232,8.591,6.12,8.443,5.933
		C8.633,5.75,8.691,5.698,8.736,5.725c0.078,0.085,0.201,0.12,0.32,0.085c0.166-0.052,0.26-0.231,0.209-0.402
		c-0.052-0.17-0.228-0.265-0.395-0.213c0,0-0.682,0.068-0.876-0.583C7.893,4.274,8.02,3.926,8.325,3.776
		c0.018-0.009-0.079-0.279-0.079-0.279l0.268-0.083c0,0,0.066,0.278,0.11,0.274C8.863,3.662,9.062,3.775,9.21,3.963
		C9.021,4.146,9.009,4.206,8.961,4.177c-0.085-0.09-0.215-0.128-0.341-0.09C8.441,4.143,8.343,4.333,8.398,4.515
		C8.48,4.797,8.818,4.74,8.818,4.74c0.298-0.092,0.729,0.167,0.84,0.542C9.76,5.622,9.633,5.969,9.331,6.118z M7.732,8.209
		C6.641,8.781,5.098,9.046,3.937,9.298C2.667,9.57,1.841,9.331,1.841,9.331L1.044,6.252c0,0-0.851,0.285-0.983,0.244
		c0.004,0.013,1.14,4.428,1.115,4.354c1.877,0.563,7.577-2.412,9.211-1.849c0-0.008-0.388-1.386-0.388-1.386
		S9.316,7.379,7.732,8.209z"/>
</g>
</svg>
