<?xml version="1.0" encoding="utf-8"?>
<!-- Generator: Adobe Illustrator 16.0.0, SVG Export Plug-In . SVG Version: 6.00 Build 0)  -->
<!DOCTYPE svg PUBLIC "-//W3C//DTD SVG 1.1//EN" "http://www.w3.org/Graphics/SVG/1.1/DTD/svg11.dtd">
<svg version="1.1" id="Layer_1" xmlns="http://www.w3.org/2000/svg" xmlns:xlink="http://www.w3.org/1999/xlink" x="0px" y="0px"
	 width="11px" height="11px" viewBox="0 0 11 11" enable-background="new 0 0 11 11" xml:space="preserve">
<path fill="none" d="M16.396,326.041v-9.673"/>
<path d="M5.506,11.014c-3.033,0-5.494-2.459-5.494-5.491s2.46-5.49,5.494-5.49C8.54,0.033,11,2.491,11,5.522
	C11,8.555,8.54,11.014,5.506,11.014z M5.506,1.278c-2.346,0-4.247,1.9-4.247,4.244c0,2.344,1.901,4.242,4.247,4.242
	s4.247-1.897,4.247-4.242C9.753,3.178,7.852,1.278,5.506,1.278z M5.941,5.104c0.098,0.027,0.17,0.048,0.222,0.063
	C6.85,5.37,7.336,5.605,7.625,5.874c0.29,0.269,0.436,0.612,0.436,1.028c0,0.557-0.24,0.998-0.723,1.328
	c-0.38,0.258-0.865,0.414-1.455,0.469V9.24H5.107V8.715C4.581,8.688,4.123,8.583,3.734,8.398C3.276,8.184,2.971,7.891,2.817,7.516
	l1.398-0.646c0.048,0.218,0.172,0.39,0.376,0.514C4.737,7.475,4.91,7.532,5.106,7.557V6.248C5.051,6.23,5,6.214,4.956,6.199
	C4.221,5.95,3.71,5.7,3.427,5.448C3.144,5.196,3.003,4.885,3.003,4.515c0-0.55,0.24-0.994,0.721-1.334
	C4.094,2.92,4.556,2.761,5.107,2.7V2.081h0.776v0.6C6.338,2.707,6.74,2.804,7.086,2.975c0.412,0.203,0.71,0.489,0.896,0.859
	L6.648,4.429C6.576,4.22,6.45,4.06,6.271,3.951C6.16,3.883,6.029,3.839,5.883,3.814v1.274C5.902,5.093,5.921,5.099,5.941,5.104z
	 M6.055,7.427c0.17-0.098,0.256-0.229,0.256-0.403c0-0.187-0.145-0.35-0.428-0.494v0.97C5.944,7.479,6.004,7.455,6.055,7.427z
	 M5.107,3.865C5.051,3.885,4.998,3.908,4.95,3.937C4.783,4.037,4.7,4.166,4.7,4.326c0,0.159,0.137,0.312,0.406,0.459L5.107,3.865
	L5.107,3.865z"/>
</svg>
