<?xml version="1.0" encoding="utf-8"?>
<!-- Generator: Adobe Illustrator 16.0.0, SVG Export Plug-In . SVG Version: 6.00 Build 0)  -->
<!DOCTYPE svg PUBLIC "-//W3C//DTD SVG 1.1//EN" "http://www.w3.org/Graphics/SVG/1.1/DTD/svg11.dtd">
<svg version="1.1" id="Layer_1" xmlns="http://www.w3.org/2000/svg" xmlns:xlink="http://www.w3.org/1999/xlink" x="0px" y="0px"
	 width="11px" height="11px" viewBox="0 0 11 11" enable-background="new 0 0 11 11" xml:space="preserve">
<g>
	<path d="M10.691,5.522L5.098,0H0l-0.011,5.06l5.526,5.608c0.363,0.361,0.948,0.367,1.305,0.012l3.883-3.859
		C11.061,6.464,11.055,5.884,10.691,5.522z M1.351,2.289c0-0.502,0.411-0.91,0.916-0.91c0.506,0,0.916,0.408,0.916,0.91
		c0,0.503-0.41,0.91-0.916,0.91C1.762,3.199,1.351,2.792,1.351,2.289z M6.33,8.633L2.771,5.095l0.323-0.322l3.559,3.538L6.33,8.633z
		 M7.301,7.668L3.742,4.13l0.324-0.322l3.558,3.538L7.301,7.668z M8.271,6.702l-3.56-3.536l0.324-0.322l3.56,3.538L8.271,6.702z"/>
</g>
</svg>
