<?xml version="1.0" encoding="utf-8"?>
<!-- Generator: Adobe Illustrator 16.0.0, SVG Export Plug-In . SVG Version: 6.00 Build 0)  -->
<!DOCTYPE svg PUBLIC "-//W3C//DTD SVG 1.1//EN" "http://www.w3.org/Graphics/SVG/1.1/DTD/svg11.dtd">
<svg version="1.1" id="Layer_1" xmlns="http://www.w3.org/2000/svg" xmlns:xlink="http://www.w3.org/1999/xlink" x="0px" y="0px"
	 width="11px" height="11px" viewBox="0 0 11 11" enable-background="new 0 0 11 11" xml:space="preserve">
<path d="M9.363,9.611H4.268C3.281,10.712,0.692,11,0.692,11c0.473-0.236,0.783-0.953,0.935-1.389H1.04C0.465,9.611,0,9.145,0,8.568
	V1.626c0-0.575,0.465-1.042,1.04-1.042h8.323c0.574,0,1.039,0.466,1.039,1.042v6.942C10.402,9.145,9.938,9.611,9.363,9.611z
	 M2.427,4.403c-0.383,0-0.693,0.311-0.693,0.695c0,0.383,0.311,0.694,0.693,0.694c0.384,0,0.693-0.311,0.693-0.694
	C3.12,4.714,2.811,4.403,2.427,4.403z M5.202,4.403c-0.384,0-0.694,0.311-0.694,0.695c0,0.383,0.311,0.694,0.694,0.694
	c0.382,0,0.693-0.311,0.693-0.694C5.896,4.714,5.584,4.403,5.202,4.403z M7.977,4.403c-0.384,0-0.693,0.311-0.693,0.695
	c0,0.383,0.311,0.694,0.693,0.694S8.67,5.481,8.67,5.098C8.67,4.714,8.359,4.403,7.977,4.403z"/>
</svg>
