<?xml version="1.0" encoding="utf-8"?>
<!-- Generator: Adobe Illustrator 16.0.0, SVG Export Plug-In . SVG Version: 6.00 Build 0)  -->
<!DOCTYPE svg PUBLIC "-//W3C//DTD SVG 1.1//EN" "http://www.w3.org/Graphics/SVG/1.1/DTD/svg11.dtd">
<svg version="1.1" id="Layer_1" xmlns="http://www.w3.org/2000/svg" xmlns:xlink="http://www.w3.org/1999/xlink" x="0px" y="0px"
	 width="11px" height="11px" viewBox="0 0 11 11" enable-background="new 0 0 11 11" xml:space="preserve">
<path d="M8.951,9.977L6.578,7.291C6.57,7.284,6.562,7.277,6.555,7.271c0.365-0.666,0.478-1.479,0.24-2.271
	C6.339,3.496,4.791,2.657,3.34,3.128C1.888,3.602,1.079,5.206,1.534,6.713C1.99,8.219,3.535,9.059,4.99,8.585
	c0.23-0.076,0.441-0.181,0.64-0.312l2.333,2.642c0.066,0.079,0.223,0.049,0.346-0.067l0.549-0.522
	C8.979,10.211,9.021,10.052,8.951,9.977z M2.246,6.482C1.913,5.382,2.504,4.211,3.564,3.867c1.055-0.346,2.188,0.268,2.52,1.364
	c0.33,1.1-0.26,2.273-1.316,2.617C3.708,8.191,2.578,7.58,2.246,6.482z M3.201,5.016c1.081-0.351,2.23,0.272,2.566,1.39l0.028,0.093
	c0.134-0.362,0.159-0.774,0.037-1.175C5.547,4.385,4.582,3.86,3.675,4.155C3.094,4.344,2.678,4.823,2.529,5.39
	C2.722,5.227,2.95,5.098,3.201,5.016z M6.58,10.227H1.019v-7.3H2.26c0.454,0,0.818-0.379,0.818-0.849V0.794h4.232v6.445l0.015-0.011
	l0.739,0.838V0.532c0-0.286-0.224-0.518-0.5-0.518h-4.73L0.265,2.677v0.24L0.256,2.926h0.009v7.563c0,0.286,0.223,0.519,0.5,0.519
	H7.27L6.58,10.227z"/>
<path fill="none" d="M16.396,326.041v-9.673"/>
</svg>
