<?xml version="1.0" standalone="no"?>
<!DOCTYPE svg PUBLIC "-//W3C//DTD SVG 1.1//EN" "http://www.w3.org/Graphics/SVG/1.1/DTD/svg11.dtd" >
<svg xmlns="http://www.w3.org/2000/svg">
<metadata>Generated by IcoMoon</metadata>
<defs>
<font id="icomoon" horiz-adv-x="1024">
<font-face units-per-em="1024" ascent="960" descent="-64" />
<missing-glyph horiz-adv-x="1024" />
<glyph unicode="&#x20;" d="" horiz-adv-x="512" />
<glyph unicode="&#xe600;" d="M741.376 480.768c31.662 0 57.344-23.839 57.344-53.248s-25.682-53.248-57.344-53.248h-172.032v-159.703c0-29.45-25.723-53.289-57.385-53.289s-57.344 23.839-57.344 53.289v159.703h-172.032c-31.662 0-57.344 23.839-57.344 53.248s25.682 53.248 57.344 53.248h172.032v159.744c0 29.409 25.682 53.248 57.344 53.248s57.385-23.839 57.385-53.248v-159.744h172.032z" />
<glyph unicode="&#xe601;" d="M834.97 428.708h-192.020c-30.31 0-54.886-53.78-54.886-96.42v-14.95c0 18.924 14.254 34.243 31.744 34.243h206.479c17.531 0 31.744-15.319 31.744-34.243v-85.688c0-18.924-14.254-34.243-31.744-34.243h-206.479c-17.531 0-31.744 15.319-31.744 34.243v-14.95c0-42.598 24.576-96.42 54.886-96.42h192.020c30.31 0 86.63 53.78 86.63 96.42v115.589c0 42.68-56.32 96.42-86.63 96.42zM489.308 505.999h86.426v90.030h86.385v89.989h-86.385v90.030h-86.426v-90.030h-86.426v-89.989h86.426v-90.030zM329.236 197.448h-90.563c-17.531 0-31.785 15.319-31.785 34.243v85.688c0 18.924 14.254 34.243 31.785 34.243h206.479c0.901 0 1.679-0.492 2.58-0.573h27.648c-5.693 38.175-27.32 77.66-53.33 77.66h-192.061c-30.31 0-86.63-53.78-86.63-96.42v-115.589c0-42.598 56.32-96.42 86.63-96.42h192.020c25.682 0 47.104 38.707 53.084 76.472h-145.859v0.696zM402.76 235.991h296.468v77.087h-296.468v-77.087z" />
<glyph unicode="&#xe602;" d="M387.604 636.621h135.7c12.493 0 22.61 8.888 22.61 19.866v39.731c0 10.977-10.117 19.866-22.61 19.866h-1.352c0.86 3.195 1.352 6.513 1.352 9.912 0 27.402-30.392 49.644-67.83 49.644-37.478 0-67.871-22.2-67.871-49.644 0-3.4 0.492-6.717 1.352-9.912h-1.352c-12.493 0-22.61-8.888-22.61-19.866v-39.731c0-10.936 10.117-19.866 22.61-19.866zM432.824 735.908h45.22v-39.69h-45.22v39.69zM659.005 398.193c-74.834 0-135.496-53.289-135.496-118.989s60.662-118.948 135.496-118.948 135.537 53.289 135.537 118.948c-0.041 65.7-60.703 118.989-135.537 118.989zM738.14 261.837h-59.351v-52.101h-39.608v52.101h-59.351v34.775h59.351v52.101h39.608v-52.101h59.351v-34.775zM659.005 438.088c24.044 0 46.899-4.301 67.871-11.796v230.195c0 21.955-20.275 39.731-45.261 39.731h-113.050v-49.644c0-16.466-8.479-29.819-18.883-29.819h-188.457c-10.404 0-18.842 13.353-18.842 29.819v49.644h-113.091c-24.986 0-45.22-17.777-45.22-39.731v-436.879c0-21.914 20.275-39.731 45.22-39.731h289.505c-25.068 27.279-40.755 61.522-40.755 99.287 0 87.777 81.019 158.925 180.961 158.925z" />
<glyph unicode="&#xe603;" d="M453.468 520.786h-234.004l116.982-145.613 117.023 145.613zM609.526 775.68l-116.982-145.613h234.004l-117.023 145.613zM394.977 775.68h-117.023v-254.853h117.023v254.853zM148.726 593.654h60.948v36.372h-107.274v-436.92h429.097v109.24h-382.771v291.308zM648.561 375.214v109.199h-2.785l-16.712-109.199h19.497zM609.526 484.413h36.25l22.282 145.654h-116.982v-254.853h58.491v109.199zM899.686 304.64v20.48h-56.074v304.906h-68.28v-36.413h21.955v-268.493h-7.373v102.4h-21.914v20.48h-43.868v-20.48h-21.955v-102.4h-109.691v-20.48h-21.955v-40.96h21.955v-20.48h109.691v-102.4h21.955v-20.48h43.868v20.48h21.914v102.4h43.909v-50.094h9.748v50.094h56.074v20.48h21.955v40.96h-21.914zM833.823 325.12h-29.286v159.293h29.286v-159.293z" />
<glyph unicode="&#xe604;" d="M179.337 663.348h63.948v34.268h-95.929v-102.815h31.981v68.547zM179.337 526.251h-31.981v-102.815h31.981v102.815zM179.337 354.886h-31.981v-137.096h95.929v34.281h-63.948v102.815zM467.155 697.616h-159.907v-34.268h159.908v34.268zM228.679 298.279l206.715 0.849c-20.951 18.693-34.237 46.587-34.237 77.674 0 24.7 8.365 47.334 22.37 64.972l0.295 3.093c0 0 16.114 14.064 23.791 36.993 12.071 7.983 16.702 9.097 18.693 18.312 0 0 5.42 34.81-7.558 34.81 0 0-14.856-0.909-13.127 7.252 1.757 8.158 1.171 10.986 0.293 20.056-0.879 9.067 4.366 34.984-13.801 38.602-12.394 2.419-8.438-1.259-14.504-0.35-6.035 0.909-13.243 17.346-24.496 17.346l-17.945-3.929c-11.254 0-1.422-3.632-7.472-4.539-6.052-0.895 7.984 0.909-10.183-2.71s-21.872-28.099-22.737-37.169c-0.862-9.054-1.083-11.895-0.512-25.491 1.727-8.158-7.018-8.158-7.018-8.158-10.885 0.732-12.746-34.81-12.746-34.81 1.567-8.76-0.556-13.127 15.558-19.909 7.677-22.913 27.206-34.486 27.206-34.486s0.966-14.694 1.274-25.154c-1.641 0.849-2.856-26.766-52.901-34.501-50.058-7.737-59.642-24.73-69.092-34.195-9.433-9.464-7.866-54.556-7.866-54.556zM531.117 697.616v-34.268h63.934v-102.832h31.996v137.1h-95.93zM595.051 252.071h-63.934v-34.281h95.93v102.842h-31.996v-68.561zM307.248 217.79h159.908v34.281h-159.908v-34.281zM595.051 389.168h31.996v102.815h-31.996v-102.815zM573.956 376.804c0 43.759-33.842 79.244-75.596 79.244-41.753 0-75.595-35.484-75.595-79.244 0-43.746 33.842-79.259 75.595-79.259s75.596 35.513 75.596 79.259zM509.143 320.224h-21.566v45.241h-43.217v22.677h43.217v45.256h21.566v-45.256h43.219v-22.677h-43.219v-45.241z" horiz-adv-x="791" />
<glyph unicode="&#xe605;" d="M719.913 161.444h-415.867c-20.89 0-37.806 16.425-37.806 36.7v403.988c0 20.275 16.916 36.7 37.806 36.7h37.806v-18.35c0-30.433 25.395-55.091 56.689-55.091 31.334 0 56.73 24.658 56.73 55.091v18.35h113.459v-18.35c0-30.433 25.354-55.091 56.73-55.091 31.334 0 56.73 24.658 56.73 55.091v18.35h37.765c20.931 0 37.847-16.425 37.847-36.7v-403.988c-0.041-20.275-16.957-36.7-37.888-36.7zM719.913 510.3h-415.867v-312.156h415.867v312.156zM398.541 418.468h-56.689v55.091h56.689v-55.091zM398.541 326.717h-56.689v55.050h56.689v-55.050zM398.541 234.885h-56.689v55.132h56.689v-55.132zM493.117 418.468h-56.73v55.091h56.73v-55.091zM493.117 326.717h-56.73v55.050h56.73v-55.050zM493.117 234.885h-56.73v55.132h56.73v-55.132zM587.612 418.468h-56.689v55.091h56.689v-55.091zM587.612 326.717h-56.689v55.050h56.689v-55.050zM587.612 234.885h-56.689v55.132h56.689v-55.132zM682.148 418.468h-56.689v55.091h56.73v-55.091zM682.148 326.717h-56.689v55.050h56.73v-55.050zM682.148 234.885h-56.689v55.132h56.73v-55.132zM624.845 583.741c-20.562 0-37.233 16.179-37.233 36.127v37.929c0 19.948 16.671 36.127 37.233 36.127s37.233-16.179 37.233-36.127v-37.888c0-19.988-16.671-36.168-37.233-36.168zM397.967 583.741c-20.562 0-37.233 16.179-37.233 36.127v37.929c0 19.948 16.671 36.127 37.233 36.127s37.233-16.179 37.233-36.127v-37.888c0-19.988-16.671-36.168-37.233-36.168z" />
<glyph unicode="&#xe606;" d="M684.483 340.48v250.88h-103.506v-250.88h103.506zM632.709 734.72l-103.424-143.36h206.889l-103.465 143.36zM779.305 591.36v-35.84h19.415v-286.72h-573.44v286.72h53.903v35.84h-94.863v-430.080h655.36v430.080h-60.375zM494.715 483.84h-206.889l103.465-143.36 103.424 143.36zM443.023 734.72h-103.465v-250.88h103.465v250.88z" />
<glyph unicode="&#xe607;" d="M296.96 335.36v317.44h-194.56c-56.32 0-102.4-46.080-102.4-102.4v-307.2c0-56.32 46.080-102.4 102.4-102.4h51.2v-153.6l153.6 153.6h256c56.32 0 102.4 46.080 102.4 102.4v93.184c-3.277-0.717-6.758-1.075-10.24-1.075h-358.4zM921.6 908.8h-460.8c-56.32 0-102.4-46.080-102.4-102.4v-409.6h358.4l153.6-153.6v153.6h51.2c56.32 0 102.4 46.080 102.4 102.4v307.2c0 56.32-46.080 102.4-102.4 102.4z" />
<glyph unicode="&#xe608;" d="M752.067 625.48l-240.968-374.17c-0.942-6.144-3.195-12.206-7.741-16.957l-9.83-10.322-4.342-6.758c-8.274-12.82-23.716-17.039-37.151-11.837-0.901 0.328-1.761 0.696-2.621 1.106-1.352 0.696-2.785 0.86-4.096 1.72l-26.337 18.227c-7.905 5.489-12.37 14.008-13.517 23.060l-131.441 137.585c-11.51 12.042-11.51 31.58 0 43.622l20.89 21.832c11.51 12.042 30.188 12.042 41.697 0l113.418-118.743 222.986 346.317c9.667 15.032 29.368 19.046 43.909 8.97l26.337-18.227c14.5-10.076 18.514-30.392 8.806-45.425z" />
<glyph unicode="&#xe609;" d="M716.964 504.566l-56.975 54.313-147.988-141.189-147.988 141.189-56.934-54.313 204.923-195.543 56.975 54.354z" />
<glyph unicode="&#xe60a;" d="M511.959 537.293c-10.404 0-18.883-8.847-18.883-19.784v-98.918c0-2.703 0.532-5.284 1.475-7.66l-35.881-37.601c-7.373-7.7-7.373-20.234 0-27.976s19.333-7.7 26.706 0l40.1 41.943c5.857 6.144 6.84 15.278 3.359 22.692 1.229 2.58 2.048 5.448 2.048 8.561v98.918c-0.041 10.977-8.52 19.825-18.924 19.825zM427.459 673.034l-22.323 36.987c-21.217 40.755-67.625 20.398-67.625 20.398l-44.442-31.171c-46.49-41.779-18.596-76.8-18.596-76.8l39.363-46.039c0 0.041 28.344 61.563 113.623 96.625zM730.849 699.249l-44.442 31.171c0 0-46.408 20.398-67.625-20.398l-22.323-36.987c85.238-35.062 113.623-96.584 113.623-96.584l39.363 46.039c0-0.041 27.894 34.98-18.596 76.759zM511.959 638.341c-114.606 0-207.544-97.812-207.544-218.481 0-53.699 19.128-102.236 49.644-140.288l-48.988-88.842c-5.202-9.421-2.13-21.545 6.922-27.034 9.052-5.448 20.603-2.212 25.805 7.291l44.073 79.913c35.676-30.515 80.568-49.562 130.089-49.562 48.62 0 92.733 18.309 128.123 47.8l43.131-78.152c5.202-9.462 16.753-12.739 25.805-7.291 9.052 5.489 12.124 17.613 6.922 27.034l-47.8 86.589c31.58 38.38 51.405 87.818 51.405 142.5-0.041 120.709-92.979 218.522-207.585 218.522zM511.959 260.403c-83.436 0-151.101 70.82-151.101 158.188s67.666 158.188 151.101 158.188c83.476 0 151.101-70.82 151.101-158.188s-67.666-158.188-151.101-158.188zM511.959 655.995c20.849 0 37.806 17.695 37.806 39.567 0 21.832-16.957 39.567-37.806 39.567s-37.806-17.736-37.806-39.567c0-21.873 16.916-39.567 37.806-39.567z" />
<glyph unicode="&#xe60b;" d="M365.732 612.823c0 30.925 24.658 55.583 57.549 55.583h221.307c32.932 0 54.641-26.993 54.641-57.917v-220.037h71.803c0 0 46.326-23.183 14.991-65.946-19.62-24.576-230.851-170.271-230.851-170.271s-15.77-23.183-44.196 1.597c-18.801 16.466-225.894 158.884-225.894 158.884s-42.189 43.336 4.137 75.776h76.431v222.331zM532.48 38.4c214.876 0 389.12 174.203 389.12 389.12s-174.244 389.12-389.12 389.12c-214.917 0-389.12-174.203-389.12-389.12s174.203-389.12 389.12-389.12z" />
<glyph unicode="&#xe60c;" d="M674.57 663.409c2.867 0-3.441 27.894 0 67.912-71.352 2.458-145.080 22.036-193.864-67.912-13.353-24.617-7.66-87.736-3.236-182.149l-61.399-21.504v-67.871l63.816 22.323c0.737-28.221 1.229-57.836 0.819-90.194-1.843-146.76-129.27-135.782-129.27-135.782s-6.472-74.506 0-67.871c205.455 9.216 197.468 175.432 194.314 316.989l64.143 22.446v67.912l-65.495-22.938c-3.482 152.125-5.489 158.638 130.171 158.638z" />
<glyph unicode="&#xe60d;" d="M299.008 710.881c-32.113 0-59.351-20.275-69.468-48.579h565.002c-10.158 28.303-37.437 48.579-69.591 48.579h-425.943zM347.709 775.68c-24.084 0-44.646-13.435-52.961-32.399h434.545c-8.315 18.964-28.877 32.399-52.961 32.399h-328.622zM581.591 322.253h204.841c6.758 0 12.288-5.448 12.288-12.124v-24.289c0-6.717-5.53-12.165-12.288-12.165h-204.841c-6.758 0-12.247 5.448-12.247 12.165v24.289c0 6.676 5.489 12.124 12.247 12.124zM581.591 403.231h204.841c6.758 0 12.288-5.448 12.288-12.165v-24.289c0-6.717-5.53-12.165-12.288-12.165h-204.841c-6.758 0-12.247 5.448-12.247 12.165v24.289c0 6.717 5.489 12.165 12.247 12.165zM581.591 484.209h204.841c6.758 0 12.288-5.448 12.288-12.124v-24.289c0-6.717-5.53-12.124-12.288-12.124h-204.841c-6.758 0-12.247 5.448-12.247 12.124v24.289c0 6.676 5.489 12.124 12.247 12.124zM224.256 240.783c0 75.284 44.032 131.031 140.288 131.031s139.796-53.125 139.796-124.477c0-2.867 0.164-19.456 0-22.241h-280.084v15.688zM287.744 465.981c0 38.298 36.291 69.837 75.776 69.837s77.824-35.594 77.824-73.892-36.864-76.882-77.824-76.882c-39.485 0-75.776 42.639-75.776 80.937zM246.415 629.944c-56.934 0-103.055-45.588-103.055-101.868v-346.89c0-56.238 46.121-101.827 103.055-101.827h93.553v48.579h-32.768v32.399h98.304v-32.399h-32.768v-48.579h278.528v48.579h-32.768v32.399h98.304v-32.399h-32.768v-48.579h93.553c56.893 0 103.055 45.588 103.055 101.827v346.89c0 56.279-46.162 101.868-103.055 101.868h-531.169z" />
<glyph unicode="&#xe60e;" d="M228.475 728.904h87.286v46.776h-130.949v-140.37h43.663v93.594zM228.475 541.757h-43.663v-140.37h43.663v140.37zM621.404 775.68h-218.317v-46.776h218.317v46.776zM295.854 230.502l282.214 1.147c-28.59 25.518-46.735 63.611-46.735 106.045 0 33.71 11.428 64.594 30.556 88.678l0.41 4.26c0 0 21.996 19.21 32.481 50.504 16.466 10.895 22.815 12.411 25.518 24.986 0 0 7.414 47.514-10.322 47.514 0 0-20.275-1.229-17.94 9.912 2.417 11.141 1.597 14.991 0.41 27.361s5.98 47.759-18.842 52.716c-16.916 3.318-11.51-1.72-19.784-0.492-8.233 1.229-18.063 23.675-33.423 23.675l-24.494-5.366c-15.36 0-1.925-4.956-10.199-6.185s10.895 1.229-13.885-3.686-29.86-38.38-31.048-50.749c-1.188-12.37-1.475-16.22-0.696-34.816 2.376-11.141-9.585-11.141-9.585-11.141-14.868 0.983-17.408-47.514-17.408-47.514 2.13-11.96-0.778-17.94 21.258-27.197 10.486-31.293 37.151-47.063 37.151-47.063s1.311-20.070 1.72-34.324c-2.253 1.106-3.891-36.577-72.212-47.104-68.321-10.568-81.428-33.751-94.331-46.694-12.984-12.902-10.813-74.465-10.813-74.465zM228.475 307.794h-43.663v-187.146h130.949v46.776h-87.286v140.37zM796.017 354.611h43.663v140.37h-43.663v-140.37zM796.017 167.424h-87.286v-46.817h130.949v140.411h-43.663v-93.594zM708.731 775.68v-46.776h87.286v-140.37h43.663v187.146h-130.949zM403.087 120.648h218.317v46.776h-218.317v-46.776zM767.181 337.736c0 59.72-46.203 108.175-103.219 108.175s-103.219-48.456-103.219-108.175 46.203-108.216 103.219-108.216 103.219 48.497 103.219 108.216zM678.707 260.485h-29.45v61.768h-58.982v30.966h58.982v61.768h29.45v-61.768h58.982v-30.966h-58.982v-61.768z" />
<glyph unicode="&#xe60f;" d="M853.688 722.063c-90.44 72.049-237.036 72.049-327.434 0-71.967-57.344-85.647-142.787-43.049-211.681l-380.805-343.9v-87.122h82.002l82.002 65.372v43.54h54.641l27.32 21.791v43.54h54.641v43.581h54.682l28.549 21.75v43.54h53.453l87.654 52.347c77.947-17.449 164.905-2.58 226.263 46.326 90.481 72.090 90.481 188.908 0.082 260.915zM782.254 587.1c-27.116-21.586-71.066-21.586-98.181 0-27.116 21.627-27.116 56.648 0 78.275 27.116 21.586 71.066 21.586 98.181 0 27.116-21.627 27.116-56.648 0-78.275z" />
<glyph unicode="&#xe610;" d="M459.325 352.399l52.675-191.119 52.634 191.119h-105.308zM307.2 390.656h409.6c0 40.387-37.274 75.94-93.594 96.379v119.235c56.32 27.238 93.594 74.588 93.594 128.451h-409.6c0-53.862 37.274-101.212 93.635-128.451v-119.276c-56.361-20.439-93.635-55.951-93.635-96.338z" />
<glyph unicode="&#xe611;" d="M547.123 423.117c20.89 0 37.837 16.947 37.837 37.837s-16.947 37.837-37.837 37.837-37.837-16.947-37.837-37.837c0-20.89 16.947-37.837 37.837-37.837zM698.266 555.366v-188.928l132.352 94.515-132.352 94.413zM547.123 744.499l-94.464-132.301h188.928l-94.464 132.301zM547.123 347.494c62.669 0 113.459 50.79 113.459 113.459s-50.79 113.459-113.459 113.459c-62.669 0-113.408-50.79-113.408-113.459s50.739-113.459 113.408-113.459zM547.123 536.576c41.779 0 75.622-33.843 75.622-75.674 0-41.779-33.843-75.674-75.622-75.674s-75.622 33.894-75.622 75.674c0 41.83 33.843 75.674 75.622 75.674zM131.379 876.8v-812.544h812.442v812.544h-812.442zM885.606 130.099h-696.013v678.81h696.013v-678.81zM395.827 555.52l-132.352-94.515 132.352-94.413v188.928zM546.97 177.408l94.464 132.352h-188.928l94.464-132.352z" />
<glyph unicode="&#xe612;" d="M764.559 372.879c-16.425 0-31.621-4.956-44.483-13.271l-164.864 192.307c2.703 8.151 4.547 16.712 4.547 25.764 0 45.22-36.659 81.92-81.92 81.92-45.22 0-81.92-36.7-81.92-81.92 0-15.155 4.383-29.164 11.592-41.37l-93.061-93.061c-12.165 7.168-26.214 11.592-41.37 11.592-45.22 0-81.92-36.659-81.92-81.92 0-45.22 36.7-81.92 81.92-81.92 45.261 0 81.92 36.7 81.92 81.92 0 15.196-4.383 29.204-11.592 41.411l93.061 93.061c12.206-7.168 26.214-11.592 41.37-11.592 20.726 0 39.444 7.946 53.862 20.644l160.686-187.474c-6.021-11.387-9.748-24.207-9.748-38.011 0-45.22 36.7-81.92 81.92-81.92 45.261 0 81.92 36.7 81.92 81.92 0 45.261-36.659 81.92-81.92 81.92z" />
<glyph unicode="&#xe613;" d="M436.388 354.406h201.605v187.228h-201.605v-187.228zM790.118 294.154c31.252 44.196 49.562 96.993 49.562 153.846 0 84.5-40.387 160.154-104.038 211.64 1.925 7.209 3.236 14.623 3.236 22.405 0 51.692-45.179 93.635-100.884 93.635-37.478 0-69.837-19.251-87.204-47.432-4.506 0.205-9.011 0.655-13.599 0.655-167.035 0-302.449-125.747-302.449-280.863 0-4.26 0.492-8.438 0.696-12.657-30.392-16.138-51.118-46.203-51.118-80.978 0-51.773 45.138-93.635 100.803-93.635 8.356 0 16.343 1.188 24.125 2.99 55.46-59.105 136.888-96.625 227.942-96.625 37.396 0 73.073 6.595 106.127 18.104 13.107-37.56 50.708-64.922 95.56-64.922 55.665 0 100.803 41.902 100.803 93.594 0 34.284-19.988 63.939-49.562 80.241zM738.468 307.507c-47.759-0.164-87.613-31.252-97.812-72.786-31.58-13.23-66.56-20.808-103.465-20.808-71.885 0-136.561 28.099-182.518 72.909 19.169 17.039 31.252 40.919 31.252 67.543 0 51.692-45.138 93.594-100.803 93.594 0 129.27 112.845 234.045 252.068 234.045 0-51.732 45.138-93.635 100.803-93.635 28.672 0 54.395 11.182 72.745 29 48.292-42.639 78.52-102.728 78.52-169.452 0.041-52.716-19.005-101.253-50.79-140.411z" />
<glyph unicode="&#xe614;" d="M803.267 352.399v191.16c87.941 0 159.293 61.112 159.293 136.52s-71.311 136.52-159.293 136.52c-87.982 0-159.293-61.112-159.293-136.52 0-7.455 1.188-14.623 2.58-21.75l-250.348-124.191c-28.18 38.38-77.701 64.061-134.513 64.061-87.941 0-159.293-61.112-159.293-136.52s71.311-136.52 159.293-136.52c64.758 0 120.218 33.26 145.121 80.814l248.463-140.247c-7.086-15.442-11.264-32.154-11.264-49.766 0-75.448 71.27-136.561 159.293-136.561 87.941 0 159.293 61.112 159.293 136.561-0.041 75.325-71.352 136.438-159.334 136.438zM417.26 432.722c2.335 9.339 3.727 19.005 3.727 28.959 0 16.916-4.055 32.891-10.609 47.841l244.695 121.364c19.374-42.762 62.792-75.244 116.367-84.541v-196.69c-42.516-7.414-78.684-29.409-101.54-59.474l-252.641 142.541z" />
<glyph unicode="&#xe615;" d="M285.123 251.351v-43.663h453.755v43.663h-453.755zM285.123 338.801v-43.704h453.755v43.704h-453.755zM285.123 426.168v-43.704h453.755v43.663h-453.755zM486.81 513.536v-43.704h252.068v43.704h-252.068zM486.81 600.904v-43.704h252.068v43.704h-252.068zM285.123 600.904v-131.072h151.224v131.072h-151.224zM486.81 731.976h50.381v-43.663h-50.381v43.663zM638.034 644.608v131.072h-252.068v-131.072h252.068zM184.32 688.312v-524.288l50.422-43.704h554.557l50.381 43.663v524.329l-50.381 43.663h-100.844v-43.663h100.844v-524.288h-554.557v524.288h100.803v43.663h-100.803l-50.422-43.663z" />
<glyph unicode="&#xe616;" d="M784.712 676.229h-136.356v-62.177c0-20.603-10.199-37.315-22.733-37.315h-227.246c-12.534 0-22.733 16.712-22.733 37.315v62.177h-136.356c-30.147 0-54.559-22.241-54.559-49.725v-497.418c0-27.484 24.412-49.725 54.559-49.725h545.423c30.106 0 54.559 22.241 54.559 49.725v497.418c0 27.443-24.412 49.725-54.559 49.725zM730.153 153.907h-436.347c-15.073 0-27.279 11.141-27.279 24.863 0 13.763 12.206 24.863 27.279 24.863h436.347c15.073 0 27.279-11.1 27.279-24.863 0-13.681-12.206-24.863-27.279-24.863zM730.153 265.851h-436.347c-15.073 0-27.279 11.141-27.279 24.863 0 13.763 12.206 24.863 27.279 24.863h436.347c15.073 0 27.279-11.1 27.279-24.863 0-13.722-12.206-24.863-27.279-24.863zM730.153 377.754h-436.347c-15.073 0-27.279 11.141-27.279 24.863 0 13.804 12.247 24.904 27.279 24.904h436.347c15.073 0 27.279-11.1 27.279-24.863 0-13.722-12.206-24.904-27.279-24.904zM730.153 477.245h-436.347c-15.073 0-27.279 11.141-27.279 24.863s12.206 24.863 27.279 24.863h436.347c15.073 0 27.279-11.141 27.279-24.863s-12.206-24.863-27.279-24.863zM430.162 601.6h163.676c15.032 0 27.238 11.141 27.238 24.863v49.766c0 13.722-12.206 24.863-27.238 24.863h-1.679c1.065 4.014 1.679 8.192 1.679 12.452 0 34.324-36.659 62.177-81.838 62.177s-81.838-27.812-81.838-62.177c0-4.26 0.573-8.438 1.638-12.452h-1.638c-15.073 0-27.279-11.141-27.279-24.863v-49.725c0-13.763 12.247-24.904 27.279-24.904zM484.721 725.955h54.559v-49.725h-54.559v49.725z" />
<glyph unicode="&#xe617;" d="M805.765 202.24c-18.719 0-33.874 15.729-33.874 35.103v421.315c0 19.374 15.155 35.103 33.874 35.103s33.915-15.729 33.915-35.103v-421.315c0-19.374-15.196-35.103-33.915-35.103zM636.314 249.057c0-25.846-20.234-46.817-45.22-46.817h-203.366c-24.986 0-45.22 20.972-45.22 46.817v92.652l-90.194 20.767v169.206l497.705 113.582v-397.517l-113.705 26.214v-24.904zM613.663 279.204l-248.586 57.262v-87.45c0-12.902 10.117-23.388 22.61-23.388h203.407c12.493 0 22.569 10.486 22.569 23.388v30.188zM206.93 342.692c-12.493 0-22.61 10.486-22.61 23.388v163.84c0 12.902 10.117 23.388 22.61 23.388s22.61-10.486 22.61-23.388v-163.84c0-12.902-10.158-23.388-22.61-23.388z" />
<glyph unicode="&#xe618;" d="M763.576 589.926l-6.021-6.021-109.937 110.019 6.021 6.021c0 0 26.337 34.816 63.734 34.816 16.507 0 35.185-6.799 54.723-26.296 64.348-64.471-8.52-118.538-8.52-118.538zM721.428 547.779l-374.252-374.579-162.775-52.879 52.92 162.98h0.041l374.17 374.538 4.874-4.874zM237.404 173.322l81.306 23.388-55.542 59.187-25.764-82.575z" />
<glyph unicode="&#xe619;" d="M317.481 544.215l0.778-0.123c10.158 19.948 23.511 38.83 40.346 55.583 72.745 72.253 184.197 82.289 267.96 30.474l-70.328-69.878 274.473-57.549-30.228 145.531-27.484 127.304-65.413-65.004c-128.737 95.027-311.296 84.951-428.073-30.966-57.508-57.098-88.924-130.089-94.904-204.677l110.633-23.183c0.532 31.785 7.782 63.365 22.241 92.488zM728.801 443.535c-0.573-31.539-7.823-62.874-22.241-91.832l-0.778 0.246c-10.199-20.070-23.47-38.912-40.346-55.583-72.704-72.335-184.197-82.33-267.96-30.556l69.796 69.304-274.268 57.549 19.456-93.839 38.584-178.381 65.372 64.881c128.696-94.986 311.255-84.951 428.032 31.048 57.344 56.975 88.801 129.597 94.863 203.981l-110.51 23.183z" />
<glyph unicode="&#xe61a;" d="M972.512 554.24l-98.048 19.648c-4.928 14.176-10.752 27.936-17.184 41.248l55.552 83.328c16.928 25.376 13.568 59.2-8 80.736l-61.568 61.568c-12.384 12.384-28.736 18.752-45.312 18.752-12.256 0-24.64-3.52-35.424-10.752l-83.328-55.52c-13.376 6.464-27.136 12.224-41.312 17.152l-19.648 98.080c-5.952 29.952-32.256 51.456-62.752 51.456h-87.040c-30.496 0-56.768-21.536-62.752-51.456l-19.648-98.080c-14.176-4.928-27.936-10.72-41.248-17.152l-83.296 55.52c-10.848 7.232-23.2 10.752-35.488 10.752-16.544 0-32.896-6.368-45.28-18.752l-61.536-61.568c-21.568-21.568-24.928-55.36-8-80.736l55.52-83.328c-6.464-13.344-12.224-27.104-17.152-41.28l-98.112-19.616c-29.92-5.984-51.456-32.256-51.456-62.752v-87.040c0-30.496 21.536-56.8 51.456-62.752l98.080-19.68c4.928-14.176 10.72-27.936 17.152-41.248l-55.488-83.328c-16.928-25.376-13.568-59.2 8-80.736l61.568-61.568c12.384-12.384 28.736-18.752 45.28-18.752 12.288 0 24.672 3.552 35.456 10.752l83.328 55.552c13.344-6.496 27.104-12.256 41.28-17.184l19.616-98.048c5.984-29.952 32.256-51.488 62.752-51.488h87.040c30.496 0 56.8 21.568 62.752 51.488l19.68 98.048c14.176 4.928 27.936 10.752 41.248 17.184l83.328-55.552c10.816-7.2 23.2-10.752 35.424-10.752 16.576 0 32.928 6.368 45.312 18.752l61.568 61.568c21.568 21.568 24.928 55.36 8 80.736l-55.552 83.328c6.496 13.376 12.256 27.136 17.184 41.312l98.048 19.616c29.92 5.92 51.488 32.256 51.488 62.752v87.040c0 30.496-21.568 56.768-51.488 62.752zM861.888 384.8c-22.24-4.448-40.448-20.32-47.872-41.76-4.128-11.808-8.928-23.264-14.304-34.368-9.952-20.448-8.256-44.576 4.32-63.424l55.552-83.328-61.568-61.568-83.328 55.552c-10.688 7.136-23.072 10.752-35.488 10.752-9.504 0-19.072-2.112-27.872-6.368-11.136-5.376-22.56-10.24-34.432-14.368-21.376-7.424-37.248-25.632-41.696-47.872l-19.68-98.112h-87.040l-19.616 98.112c-4.448 22.24-20.32 40.448-41.728 47.872-11.808 4.128-23.296 8.928-34.4 14.304-8.832 4.32-18.368 6.432-27.904 6.432-12.448 0-24.8-3.616-35.488-10.752l-83.328-55.552-61.568 61.568 55.52 83.328c12.576 18.88 14.208 43.008 4.384 63.36-5.376 11.136-10.208 22.56-14.336 34.432-7.424 21.376-25.664 37.248-47.872 41.696l-98.080 19.68-0.064 87.072 98.112 19.616c22.208 4.448 40.448 20.32 47.872 41.728 4.128 11.808 8.896 23.296 14.304 34.4 9.92 20.416 8.256 44.544-4.352 63.392l-55.488 83.328 61.536 61.568 83.328-55.52c10.688-7.136 23.072-10.752 35.488-10.752 9.504 0 19.040 2.112 27.872 6.368 11.104 5.376 22.56 10.208 34.4 14.336 21.408 7.424 37.28 25.664 41.728 47.872l19.648 98.080 87.040 0.032 19.616-98.112c4.448-22.208 20.32-40.448 41.76-47.872 11.808-4.128 23.264-8.896 34.368-14.304 8.864-4.288 18.368-6.4 27.936-6.4 12.448 0 24.8 3.616 35.488 10.752l83.328 55.52 61.568-61.568-55.552-83.328c-12.576-18.88-14.176-42.976-4.384-63.36 5.376-11.104 10.24-22.56 14.368-34.4 7.424-21.408 25.632-37.28 47.872-41.728l98.048-19.648 0.096-87.040-98.112-19.648zM512 671.968c-123.68 0-224-100.32-224-224 0-123.712 100.32-224 224-224s224 100.32 224 224c0 123.68-100.32 224-224 224zM512 251.936c-108.224 0-196 87.808-196 196 0 108.224 87.776 196 196 196 108.192 0 196-87.776 196-196 0-108.192-87.808-196-196-196zM512 575.968c-70.72 0-128-57.28-128-128 0-70.688 57.28-128 128-128 70.688 0 128 57.312 128 128s-57.312 128-128 128zM512 351.936c-52.992 0-96 43.008-96 96s43.008 96 96 96 96-43.008 96-96c0-52.992-43.008-96-96-96z" />
<glyph unicode="&#xe61b;" d="M617.349 250.491h-210.698v-42.762h-263.291v-85.606h263.332v-42.762h210.698v42.762h263.25v85.606h-263.291v42.762zM564.634 122.122h-105.308v85.606h105.308v-85.606zM512 421.663v42.762h-210.657v-42.762h-157.983v-85.606h157.983v-42.803h210.657v42.803h368.64v85.606h-368.64zM459.325 336.097h-105.308v85.606h105.349v-85.606zM535.020 561.91h15.155c2.499-8.929 5.98-17.408 10.568-25.272l-14.049-14.049c-9.011-8.97-9.011-23.552 0-32.522l8.11-8.11c8.97-8.97 23.511-8.97 32.522 0l14.131 14.131c7.823-4.465 16.261-7.946 25.19-10.363v-14.705c0-12.698 10.281-23.020 22.979-23.020h11.51c12.698 0 22.979 10.281 22.979 23.020v14.705c8.929 2.417 17.367 5.898 25.19 10.363l14.131-14.131c9.011-8.97 23.552-8.97 32.522 0l8.11 8.11c9.011 8.97 9.011 23.552 0 32.522l-14.049 14.049c4.547 7.864 8.069 16.302 10.568 25.272h15.155c12.698 0 23.020 10.281 23.020 23.020v11.469c0 12.698-10.322 22.979-23.020 22.979h-14.991c-2.417 8.847-5.775 17.285-10.158 25.068l13.476 13.517c9.011 8.97 9.011 23.552 0 32.522l-8.11 8.11c-8.97 8.97-23.511 8.97-32.522 0l-13.23-13.23c-8.069 4.71-16.794 8.397-26.092 10.895v15.442c0 12.698-10.281 23.020-22.979 23.020h-11.51c-12.698 0-22.979-10.281-22.979-23.020v-15.442c-9.298-2.499-18.022-6.185-26.092-10.895l-13.23 13.23c-9.011 8.97-23.552 8.97-32.522 0l-8.11-8.11c-9.011-8.97-9.011-23.552 0-32.522l13.476-13.517c-4.383-7.782-7.782-16.22-10.158-25.068h-14.991c-12.698 0-23.020-10.281-23.020-22.979v-11.51c0-12.698 10.281-22.979 23.020-22.979zM655.36 653.537c34.939 0 63.242-28.303 63.242-63.242s-28.303-63.242-63.242-63.242-63.242 28.303-63.242 63.242 28.303 63.242 63.242 63.242zM655.36 562.278c15.892 0 28.713 12.861 28.713 28.754s-12.82 28.713-28.713 28.713-28.713-12.861-28.713-28.754 12.82-28.713 28.713-28.713z" />
<glyph unicode="&#xe61c;" d="M376.832 630.804h86.016v-72.458c0-13.353 12.82-24.125 28.672-24.125 15.811 0 28.672 10.813 28.672 24.125v72.458h86.016c15.852 0 28.672 10.813 28.672 24.125s-12.82 24.125-28.672 24.125h-86.016v72.499c0 13.312-12.861 24.125-28.672 24.125-15.852 0-28.672-10.813-28.672-24.125v-72.458h-86.016c-15.811 0-28.672-10.813-28.672-24.125s12.82-24.166 28.672-24.166zM512 288.952h-210.657v-42.148h-157.983v-84.337h157.983v-42.148h210.657v42.148h368.64v84.337h-368.64v42.148zM459.325 162.468h-105.308v84.337h105.349v-84.337zM722.657 457.585v42.148h-210.657v-42.148h-368.64v-84.296h368.64v-42.148h210.657v42.148h157.983v84.296h-157.983zM669.983 373.289h-105.349v84.296h105.349v-84.296z" />
<glyph unicode="&#xe61d;" d="M722.657 488.96h105.349v-81.92h-105.349v81.92zM722.657 734.72v-204.8h-52.634v-163.84h52.634v-204.8h105.349v204.8h52.634v163.84h-52.634v204.8h-105.349zM459.325 407.040h105.308v-81.92h-105.308v81.92zM459.325 734.72v-286.72h-52.675v-163.84h52.675v-122.88h105.308v122.88h52.716v163.84h-52.716v286.72h-105.308zM195.994 570.88h105.349v-81.92h-105.349v81.92zM195.994 734.72v-122.88h-52.634v-163.84h52.675v-286.72h105.349v286.72h52.675v163.84h-52.716v122.88h-105.349z" />
<glyph unicode="&#xe61e;" d="M622.797 775.68v-157.286h216.883l-216.883 157.286zM586.711 775.68h-361.431v-655.36h614.4v472.023l-252.969-0.164v183.501zM297.574 697.037h72.294v-26.214h-72.294v26.214zM297.574 644.608h144.548v-26.214h-144.548v26.214zM297.574 592.179h216.842v-26.214h-216.842v26.214zM405.381 539.546l108.79-104.653h-72.090v-157.286h-72.253v157.286h-73.196l108.749 104.653zM767.386 172.749h-469.811v26.214h469.852v-26.214zM767.386 225.219h-469.811v26.173h469.852v-26.173zM622.838 382.464v157.286h72.294v-157.286h72.090l-108.79-104.694-108.831 104.694h73.236z" />
<glyph unicode="&#xe61f;" d="M209.183 734.72h-24.863v-573.44h655.36v23.020l-630.047 1.188-0.451 549.233zM537.19 710.84c0 13.189-11.264 23.88-25.19 23.88h-75.653c-13.926 0-25.19-10.691-25.19-23.88v-477.88h126.034v477.88zM385.966 567.48c0 13.189-11.305 23.88-25.19 23.88h-75.653c-13.926 0-25.231-10.691-25.231-23.88v-334.52h126.034v334.52zM688.415 424.12c0 13.189-11.264 23.88-25.19 23.88h-75.612c-13.926 0-25.19-10.691-25.19-23.88v-191.16h125.993v191.16zM814.49 304.64h-75.653c-13.926 0-25.19-10.732-25.19-23.921v-47.759h126.034v47.759c0 13.189-11.264 23.921-25.19 23.921z" />
<glyph unicode="&#xe620;" d="M905.994 514.724c-7.373 24.945-24.945 52.552-55.992 84.419-35.84 36.413-85.893 57.917-133.53 65.372-0.819 0.123-1.556 0.205-2.335 0.287v43.377c-2.58 4.301-6.144 8.806-11.141 13.926-5.652 5.734-10.486 9.667-15.155 12.329h-222.249l-332.8-340.255c-23.757-24.289-24.412-62.996-1.434-86.467l166.298-169.984c22.979-23.511 60.826-22.897 84.541 1.434l331.899 339.313v38.298c26.010-14.541 51.896-32.113 73.441-54.231 31.58-31.744 77.742-39.117 106.66-11.633 14.95 14.95 19.333 39.281 11.796 63.816zM560.497 576.328c-24.658 25.149-24.658 65.946 0 91.095 24.576 25.149 64.471 25.149 89.088 0 21.299-21.791 24.125-55.255 8.52-80.159-19.292 9.257-33.874 16.794-38.789 21.914 0.246 0.246 0.492 0.492 0.737 0.778 5.98 6.595 16.548 11.878 30.106 15.114-2.58 12.657-7.578 24.945-14.909 36.045-15.974-4.751-30.31-12.452-41.902-23.88-6.922-7.045-12.82-16.261-13.025-27.894-0.164-11.387 5.489-20.48 11.346-26.501 0.164-0.123 0.328-0.287 0.492-0.41 8.643-8.397 19.661-15.155 32.481-21.75-21.914-7.25-46.858-2.048-64.143 15.647zM867.492 478.228c-3.359-3.604-10.813-6.554-21.094-5.284-10.076 1.229-21.996 6.595-32.031 16.916-30.679 31.334-66.929 53.371-100.188 70.492v65.372c39.772-6.676 81.756-25.764 109.117-53.903 28.344-28.918 41.984-52.429 46.49-68.076 4.26-16.056 1.024-21.832-2.294-25.518z" />
<glyph unicode="&#xe621;" d="M249.378 246.59h221.898l47.557 330.83h-317.011l47.557-330.83zM440.69 545.904h17.082l-31.704-283.574h-17.082l31.704 283.574zM352.406 545.904h15.74v-283.574h-15.74v283.574zM282.201 545.904l31.694-283.574h-17.094l-31.704 283.574h17.104zM534.684 656.189h-55.717c0 0 3.911 8.519-9.905 21.173-9.994 9.123-31.95 26.091-31.95 26.091h-148.349c0 0-23.856-15.325-36.355-26.058-10.711-9.19-11.203-21.208-11.203-21.208h-55.225c-8.765 0-31.705-22.806-31.705-31.504v-31.514h412.113v31.514c0 8.698-22.939 31.505-31.704 31.505zM272.407 656.189c0 0 1.319 5.399 5.545 9.737 3.353 3.433 13.717 6.015 13.717 6.015l139.741 0.010c0 0 7.937-1.978 11.873-5.914 3.98-3.934 3.98-9.848 3.98-9.848h-174.856z" horiz-adv-x="791" />
<glyph unicode="&#xe622;" d="M273.121 688.927l126.116-265.994-94.618 53.207v-319.201h-62.996v319.201l-94.577-53.166 126.075 265.953zM641.884 186.348l-126.075 265.994 94.577-53.207v319.201h63.078v-319.16l94.577 53.207-126.157-266.035z" />
<glyph unicode="&#xe623;" d="M699.228 242.258c0-30.966-24.699-55.583-57.549-55.583h-221.307c-32.891 0-54.641 26.952-54.641 57.917v220.037h-71.803c0 0-46.326 23.142-14.991 65.946 19.62 24.576 230.81 170.312 230.81 170.312s15.77 23.183 44.196-1.638c18.842-16.425 225.935-158.843 225.935-158.843s42.148-43.336-4.178-75.776h-76.431v-222.372zM532.48 816.64c-214.917 0-389.12-174.203-389.12-389.12 0-214.876 174.203-389.12 389.12-389.12 214.876 0 389.12 174.244 389.12 389.12 0 214.917-174.244 389.12-389.12 389.12z" />
<glyph unicode="&#xe624;" d="M512 693.76c-204.8 0-348.16-183.828-409.6-245.105 61.44-61.276 204.8-246.415 409.6-246.415s348.16 185.754 409.6 246.415c-61.44 60.621-204.8 245.105-409.6 245.105zM225.28 448.655c0 0 266.24 408.535 573.44 0-307.2-408.576-573.44 0-573.44 0zM510.73 548.229c-55.828 0-101.13-45.179-101.13-100.844s45.261-100.884 101.13-100.884 101.13 45.22 101.13 100.884-45.302 100.844-101.13 100.844z" />
<glyph unicode="&#xe625;" d="M775.332 283.914c29.532-29.532 31.252-75.653 3.809-103.055-27.361-27.402-73.523-25.682-103.055 3.85l-160.276 160.236-148.849-148.808c-27.402-27.443-73.523-25.682-103.055 3.809-29.491 29.532-31.212 75.653-3.809 103.055l148.849 148.849-160.276 160.276c-29.491 29.532-31.212 75.653-3.809 103.014s73.523 25.723 103.055-3.809l160.276-160.276 148.849 148.849c27.361 27.402 73.523 25.682 103.055-3.809 29.491-29.491 31.212-75.653 3.809-103.055l-148.849-148.849 160.276-160.276z" />
<glyph unicode="&#xe626;" d="M317.44 290.468h107.52v125.993h-107.52v-125.993zM424.96 227.43h-161.26v189.030h-107.52v-315.064h268.82v126.034zM908.82 290.468v504.095h-591.38v-315.064h161.3v-189.030h430.080zM962.56 857.6v-630.17h-483.86v-189.030h-376.3v441.098h161.3v378.102h698.86zM532.48 416.461h53.78v-62.996h-53.78v62.996zM640 416.461h-53.78v63.037h53.78v-63.037zM693.78 479.498h-53.78v63.037h53.78v-63.037zM747.52 542.536h-53.78v62.996h53.78v-62.996zM801.3 605.532h-53.78v63.037h-107.52v62.996h215.081v-252.068h-53.78v126.034z" />
</font>
</defs>
</svg>
